<svg xmlns="http://www.w3.org/2000/svg" xmlns:xlink="http://www.w3.org/1999/xlink" id="Group_10226" width="550.393" height="421.999" data-name="Group 10226" viewBox="0 0 550.393 421.999"><defs><clipPath id="clip-path"><rect id="Rectangle_2017" width="550.393" height="421.999" fill="none" data-name="Rectangle 2017"/></clipPath><clipPath id="clip-path-2"><path id="Path_4281" fill="none" d="M232.771,0c-8.748,0-30.194,3.951-32.451,11.852L183.389,313.779h98.76L265.22,11.851C262.963,3.95,241.517,0,232.771,0Z" data-name="Path 4281" transform="translate(-183.389 0.001)"/></clipPath><linearGradient id="linear-gradient" x1="-2.844" x2="-2.828" y1="1.345" y2="1.345" gradientUnits="objectBoundingBox"><stop offset="0" stop-color="#757575"/><stop offset=".708" stop-color="#eee"/><stop offset="1" stop-color="#bdbdbd"/></linearGradient><clipPath id="clip-path-3"><path id="Path_4282" fill="none" d="M227.328,0c-8.748,0-30.194,3.951-32.451,11.852l-1.248,22.268c5.52-6.944,25.186-10.416,33.7-10.416s28.177,3.472,33.7,10.416l-1.248-22.268C257.52,3.95,236.075,0,227.328,0Z" data-name="Path 4282" transform="translate(-193.629 0.001)"/></clipPath><linearGradient id="linear-gradient-2" x1="-4.4" x2="-4.377" y1="12.368" y2="12.368" gradientUnits="objectBoundingBox"><stop offset="0" stop-color="#821414"/><stop offset=".169" stop-color="#851515"/><stop offset=".3" stop-color="#8e1b1b"/><stop offset=".418" stop-color="#9f2424"/><stop offset=".528" stop-color="#b63230"/><stop offset=".633" stop-color="#d44341"/><stop offset=".708" stop-color="#ef5350"/><stop offset="1" stop-color="#c62828"/></linearGradient><clipPath id="clip-path-4"><path id="Path_4283" fill="none" d="M191.72,78l-3.1,55.276c12.3-6.034,31.678-7.927,41.37-7.927s29.069,1.893,41.369,7.927L268.258,78c-11.425-5.555-29.31-7.2-38.268-7.2S203.145,72.446,191.72,78" data-name="Path 4283" transform="translate(-188.62 -70.798)"/></clipPath><linearGradient id="linear-gradient-3" x1="-3.491" x2="-3.473" y1="5.019" y2="5.019" xlink:href="#linear-gradient-2"/><clipPath id="clip-path-5"><path id="Path_4284" fill="none" d="M163.09,182.391v155.66H344.182V152.519Z" data-name="Path 4284" transform="translate(-163.09 -152.519)"/></clipPath><linearGradient id="linear-gradient-4" x1="-1.379" x2="-1.371" y1="1.016" y2="1.016" gradientUnits="objectBoundingBox"><stop offset="0" stop-color="#757575"/><stop offset=".01" stop-color="#757575"/><stop offset="1" stop-color="#616161"/></linearGradient><clipPath id="clip-path-6"><path id="Path_4285" fill="none" d="M281.335,338.051h81.378V182.391l-81.378-29.872Z" data-name="Path 4285" transform="translate(-281.335 -152.519)"/></clipPath><linearGradient id="linear-gradient-5" x1="-5.295" x2="-5.276" y1="1.016" y2="1.016" gradientUnits="objectBoundingBox"><stop offset="0" stop-color="#a2a2a2"/><stop offset="1" stop-color="#868686"/></linearGradient><clipPath id="clip-path-7"><path id="Path_4286" fill="none" d="M294.7,300.764h99.056V235.247L294.7,222.673Z" data-name="Path 4286" transform="translate(-294.702 -222.673)"/></clipPath><linearGradient id="linear-gradient-6" x1="-4.556" x2="-4.541" y1="1.037" y2="1.037" gradientUnits="objectBoundingBox"><stop offset="0" stop-color="#eee"/><stop offset="1" stop-color="#e0e0e0"/></linearGradient><clipPath id="clip-path-8"><path id="Path_4287" fill="none" d="M265.638,235.247v65.518H310.15V222.673Z" data-name="Path 4287" transform="translate(-265.638 -222.673)"/></clipPath><linearGradient id="linear-gradient-7" x1="-9.14" x2="-9.105" y1="1.037" y2="1.037" gradientUnits="objectBoundingBox"><stop offset="0" stop-color="#939393"/><stop offset="1" stop-color="#bdbdbd"/></linearGradient><clipPath id="clip-path-9"><path id="Path_4288" fill="none" d="M50.641,82.531l-35.9,299.5h196.93l-35.9-299.5c-3.077-9.486-33.846-17.949-62.566-17.949s-59.49,8.463-62.565,17.949" data-name="Path 4288" transform="translate(-14.741 -64.582)"/></clipPath><linearGradient id="linear-gradient-8" x1="-.115" x2="-.107" y1="1.018" y2="1.018" xlink:href="#linear-gradient"/><clipPath id="clip-path-10"><path id="Path_4289" fill="none" d="M38.605,82.531,37.386,92.7c5.737-9.063,35.7-16.831,63.784-16.831s58.047,7.768,63.786,16.831l-1.219-10.165c-3.077-9.486-33.846-17.949-62.566-17.949S41.68,73.045,38.605,82.531" data-name="Path 4289" transform="translate(-37.386 -64.582)"/></clipPath><linearGradient id="linear-gradient-9" x1="-.449" x2="-.437" y1="11.492" y2="11.492" xlink:href="#linear-gradient-2"/><clipPath id="clip-path-11"><path id="Path_4290" fill="none" d="M33.861,144.38l-9.984,83.288c23.79-6.821,54.664-11.235,84.473-11.235s60.684,4.414,84.475,11.235l-9.984-83.288a313.312,313.312,0,0,0-148.98,0" data-name="Path 4290" transform="translate(-23.877 -135.396)"/></clipPath><linearGradient id="linear-gradient-10" x1="-.216" x2="-.207" y1="2.326" y2="2.326" xlink:href="#linear-gradient-2"/><clipPath id="clip-path-13"><path id="Path_4291" fill="none" d="M157.261,163.326l85.473,10.586V147.04l-85.473-10.586Z" data-name="Path 4291" transform="translate(-157.261 -136.454)"/></clipPath><linearGradient id="linear-gradient-11" x1="-2.818" x2="-2.8" y1="5.687" y2="5.687" gradientUnits="objectBoundingBox"><stop offset="0" stop-color="#e0e0e0"/><stop offset="1" stop-color="#eee"/></linearGradient><clipPath id="clip-path-14"><path id="Path_4292" fill="none" d="M154.586,136.454v29.835l4.1-2.963V136.454Z" data-name="Path 4292" transform="translate(-154.586 -136.454)"/></clipPath><linearGradient id="linear-gradient-12" x1="-57.789" x2="-57.415" y1="7.14" y2="7.14" xlink:href="#linear-gradient-7"/><clipPath id="clip-path-16"><rect id="Rectangle_1969" width="62.471" height="34.609" fill="none" data-name="Rectangle 1969"/></clipPath><clipPath id="clip-path-17"><path id="Path_4295" fill="none" d="M75.4,180.281V333.886H180.032V160.355Z" data-name="Path 4295" transform="translate(-75.397 -160.355)"/></clipPath><linearGradient id="linear-gradient-13" x1="-1.104" x2="-1.089" y1="1.017" y2="1.017" gradientUnits="objectBoundingBox"><stop offset="0" stop-color="#82b1ff"/><stop offset="1" stop-color="#bbdefb"/></linearGradient><clipPath id="clip-path-18"><path id="Path_4296" fill="none" d="M75.4,220.684v87.147H180.032V209.378Z" data-name="Path 4296" transform="translate(-75.397 -209.378)"/></clipPath><linearGradient id="linear-gradient-14" x1="-1.104" x2="-1.089" y1="1.029" y2="1.029" xlink:href="#linear-gradient-13"/><clipPath id="clip-path-19"><path id="Path_4297" fill="none" d="M143.719,333.886h160.9V180.281l-160.9-19.926Z" data-name="Path 4297" transform="translate(-143.719 -160.355)"/></clipPath><linearGradient id="linear-gradient-15" x1="-1.368" x2="-1.358" y1="1.017" y2="1.017" xlink:href="#linear-gradient-13"/><clipPath id="clip-path-20"><path id="Path_4298" fill="none" d="M143.719,306h160.9V223.526l-160.9-10.7Z" data-name="Path 4298" transform="translate(-143.719 -212.827)"/></clipPath><linearGradient id="linear-gradient-16" x1="-1.368" x2="-1.358" y1="1.031" y2="1.031" xlink:href="#linear-gradient-13"/><clipPath id="clip-path-22"><path id="Path_4299" fill="none" d="M71.644,252.622v17.436H182.027V247.64Z" data-name="Path 4299" transform="translate(-71.644 -247.64)"/></clipPath><linearGradient id="linear-gradient-17" x1="-.994" x2="-.98" y1="1.906" y2="1.906" xlink:href="#linear-gradient-7"/><clipPath id="clip-path-24"><rect id="Rectangle_1981" width="104.636" height="37.101" fill="none" data-name="Rectangle 1981"/></clipPath><clipPath id="clip-path-25"><path id="Path_4300" fill="none" d="M75.4,199.391l104.635-19.9v-17.2L75.4,181.18Z" data-name="Path 4300" transform="translate(-75.397 -162.29)"/></clipPath><linearGradient id="linear-gradient-18" x1="-1.104" x2="-1.089" y1="4.675" y2="4.675" xlink:href="#linear-gradient-7"/><clipPath id="clip-path-26"><path id="Path_4301" fill="none" d="M71.644,180.281v18.268l110.383-21v-17.2Z" data-name="Path 4301" transform="translate(-71.644 -160.355)"/></clipPath><linearGradient id="linear-gradient-19" x1="-.994" x2="-.98" y1="4.619" y2="4.619" xlink:href="#linear-gradient-7"/><clipPath id="clip-path-28"><rect id="Rectangle_1987" width="104.636" height="17.436" fill="none" data-name="Rectangle 1987"/></clipPath><clipPath id="clip-path-29"><rect id="Rectangle_1986" width="104.635" height="17.436" fill="none" data-name="Rectangle 1986"/></clipPath><linearGradient id="linear-gradient-20" x1="-1.104" x2="-1.089" y1="1.165" y2="1.165" gradientUnits="objectBoundingBox"><stop offset="0" stop-color="#fff"/><stop offset=".116" stop-color="#fafafa"/><stop offset=".24" stop-color="#ededed"/><stop offset=".369" stop-color="#d8d8d8"/><stop offset=".5" stop-color="#bababa"/><stop offset=".633" stop-color="#939393"/><stop offset=".768" stop-color="#646464"/><stop offset=".902" stop-color="#2d2d2d"/><stop offset="1"/></linearGradient><clipPath id="clip-path-30"><rect id="Rectangle_1990" width="104.636" height="27.745" fill="none" data-name="Rectangle 1990"/></clipPath><clipPath id="clip-path-31"><path id="Path_4302" fill="none" d="M75.4,237.123l104.635-11.018V209.378L75.4,220.684Z" data-name="Path 4302" transform="translate(-75.397 -209.378)"/></clipPath><linearGradient id="linear-gradient-21" x1="-1.104" x2="-1.089" y1="3.652" y2="3.652" xlink:href="#linear-gradient-7"/><clipPath id="clip-path-32"><path id="Path_4303" fill="none" d="M71.644,213.182v25.738L182.027,227.3V201.558Z" data-name="Path 4303" transform="translate(-71.644 -201.558)"/></clipPath><linearGradient id="linear-gradient-22" x1="-.994" x2="-.98" y1="3.033" y2="3.033" xlink:href="#linear-gradient-7"/><clipPath id="clip-path-34"><rect id="Rectangle_1993" width="149.268" height="132.855" fill="none" data-name="Rectangle 1993"/></clipPath><clipPath id="clip-path-35"><path id="Path_4305" fill="none" d="M143.719,270.058H310.368V252.622L143.719,247.64Z" data-name="Path 4305" transform="translate(-143.719 -247.64)"/></clipPath><linearGradient id="linear-gradient-23" x1="-1.321" x2="-1.312" y1="1.906" y2="1.906" xlink:href="#linear-gradient-11"/><clipPath id="clip-path-37"><rect id="Rectangle_1999" width="160.901" height="22.668" fill="none" data-name="Rectangle 1999"/></clipPath><clipPath id="clip-path-38"><path id="Path_4306" fill="none" d="M304.62,223.525l-160.9-10.7v11.446L304.62,235.5Z" data-name="Path 4306" transform="translate(-143.719 -212.826)"/></clipPath><linearGradient id="linear-gradient-24" x1="-1.368" x2="-1.358" y1="4.237" y2="4.237" xlink:href="#linear-gradient-7"/><clipPath id="clip-path-39"><path id="Path_4307" fill="none" d="M143.719,227.3l166.649,11.624V213.182L143.719,201.558Z" data-name="Path 4307" transform="translate(-143.719 -201.558)"/></clipPath><linearGradient id="linear-gradient-25" x1="-1.321" x2="-1.312" y1="3.033" y2="3.033" xlink:href="#linear-gradient-11"/><clipPath id="clip-path-41"><rect id="Rectangle_2003" width="160.901" height="37.871" fill="none" data-name="Rectangle 2003"/></clipPath><clipPath id="clip-path-42"><path id="Path_4308" fill="none" d="M304.62,181.53l-160.9-19.24v17.2l160.9,20.672Z" data-name="Path 4308" transform="translate(-143.719 -162.29)"/></clipPath><linearGradient id="linear-gradient-26" x1="-1.368" x2="-1.358" y1="4.58" y2="4.58" xlink:href="#linear-gradient-7"/><clipPath id="clip-path-43"><path id="Path_4309" fill="none" d="M143.719,177.554l166.649,21.41V180.281L143.719,160.355Z" data-name="Path 4309" transform="translate(-143.719 -160.355)"/></clipPath><linearGradient id="linear-gradient-27" x1="-1.321" x2="-1.312" y1="4.569" y2="4.569" xlink:href="#linear-gradient-11"/><clipPath id="clip-path-45"><rect id="Rectangle_2009" width="160.901" height="17.436" fill="none" data-name="Rectangle 2009"/></clipPath><linearGradient id="linear-gradient-28" x1="-1.368" x2="-1.358" y1="1.165" y2="1.165" xlink:href="#linear-gradient-20"/><clipPath id="clip-path-47"><path id="Path_4310" fill="none" d="M97.965,236.672v58.94h40.862V232.368Z" data-name="Path 4310" transform="translate(-97.965 -232.368)"/></clipPath><linearGradient id="linear-gradient-29" x1="-3.672" x2="-3.634" y1="1.046" y2="1.046" xlink:href="#linear-gradient-7"/><clipPath id="clip-path-49"><rect id="Rectangle_2013" width="31.538" height="55.773" fill="none" data-name="Rectangle 2013"/></clipPath><clipPath id="clip-path-50"><path id="Path_4312" fill="none" d="M101.009,240.75v52.269h31.538V237.246Z" data-name="Path 4312" transform="translate(-101.009 -237.246)"/></clipPath><linearGradient id="linear-gradient-30" x1="-4.905" x2="-4.856" y1="1.052" y2="1.052" xlink:href="#linear-gradient-20"/><clipPath id="clip-path-51"><rect id="Rectangle_2016" width="550.393" height="6.578" fill="none" data-name="Rectangle 2016"/></clipPath><linearGradient id="linear-gradient-31" x1="0" x2=".003" y1="1" y2="1" xlink:href="#linear-gradient-4"/></defs><g id="Group_10225" clip-path="url(#clip-path)" data-name="Group 10225"><g id="Group_10117" data-name="Group 10117" transform="translate(280.861 -0.002)"><g id="Group_10116" clip-path="url(#clip-path-2)" data-name="Group 10116"><rect id="Rectangle_1954" width="98.76" height="313.78" fill="url(#linear-gradient)" data-name="Rectangle 1954" transform="translate(0 0)"/></g></g><g id="Group_10119" data-name="Group 10119" transform="translate(296.543 -0.002)"><g id="Group_10118" clip-path="url(#clip-path-3)" data-name="Group 10118"><rect id="Rectangle_1955" width="67.397" height="34.12" fill="url(#linear-gradient-2)" data-name="Rectangle 1955" transform="translate(0 0)"/></g></g><g id="Group_10121" data-name="Group 10121" transform="translate(288.872 108.427)"><g id="Group_10120" clip-path="url(#clip-path-4)" data-name="Group 10120"><rect id="Rectangle_1956" width="82.739" height="62.479" fill="url(#linear-gradient-3)" data-name="Rectangle 1956" transform="translate(0 0)"/></g></g><g id="Group_10123" data-name="Group 10123" transform="translate(249.773 233.583)"><g id="Group_10122" clip-path="url(#clip-path-5)" data-name="Group 10122"><rect id="Rectangle_1957" width="181.092" height="185.532" fill="url(#linear-gradient-4)" data-name="Rectangle 1957"/></g></g><g id="Group_10125" data-name="Group 10125" transform="translate(430.865 233.583)"><g id="Group_10124" clip-path="url(#clip-path-6)" data-name="Group 10124"><rect id="Rectangle_1958" width="81.378" height="185.532" fill="url(#linear-gradient-5)" data-name="Rectangle 1958" transform="translate(0 0)"/></g></g><g id="Group_10127" data-name="Group 10127" transform="translate(451.337 341.024)"><g id="Group_10126" clip-path="url(#clip-path-7)" data-name="Group 10126"><rect id="Rectangle_1959" width="99.056" height="78.091" fill="url(#linear-gradient-6)" data-name="Rectangle 1959"/></g></g><g id="Group_10129" data-name="Group 10129" transform="translate(406.825 341.024)"><g id="Group_10128" clip-path="url(#clip-path-8)" data-name="Group 10128"><rect id="Rectangle_1960" width="44.512" height="78.091" fill="url(#linear-gradient-7)" data-name="Rectangle 1960" transform="translate(0)"/></g></g><g id="Group_10131" data-name="Group 10131" transform="translate(22.576 98.907)"><g id="Group_10130" clip-path="url(#clip-path-9)" data-name="Group 10130"><rect id="Rectangle_1961" width="196.93" height="317.447" fill="url(#linear-gradient-8)" data-name="Rectangle 1961"/></g></g><g id="Group_10133" data-name="Group 10133" transform="translate(57.257 98.907)"><g id="Group_10132" clip-path="url(#clip-path-10)" data-name="Group 10132"><rect id="Rectangle_1962" width="127.569" height="28.114" fill="url(#linear-gradient-9)" data-name="Rectangle 1962"/></g></g><g id="Group_10135" data-name="Group 10135" transform="translate(36.568 207.359)"><g id="Group_10134" clip-path="url(#clip-path-11)" data-name="Group 10134"><rect id="Rectangle_1963" width="168.948" height="92.271" fill="url(#linear-gradient-10)" data-name="Rectangle 1963" transform="translate(0 0)"/></g></g><g id="Group_10137" data-name="Group 10137"><g id="Group_10136" clip-path="url(#clip-path)" data-name="Group 10136"><rect id="Rectangle_1964" width="6.359" height="19.543" fill="#494949" data-name="Rectangle 1964" transform="translate(256.324 232.343)"/><rect id="Rectangle_1965" width="6.359" height="19.545" fill="#494949" data-name="Rectangle 1965" transform="translate(299.376 236.664)"/></g></g><g id="Group_10139" data-name="Group 10139" transform="translate(240.845 208.98)"><g id="Group_10138" clip-path="url(#clip-path-13)" data-name="Group 10138"><rect id="Rectangle_1967" width="85.473" height="37.457" fill="url(#linear-gradient-11)" data-name="Rectangle 1967"/></g></g><g id="Group_10141" data-name="Group 10141" transform="translate(236.749 208.98)"><g id="Group_10140" clip-path="url(#clip-path-14)" data-name="Group 10140"><rect id="Rectangle_1968" width="4.097" height="29.835" fill="url(#linear-gradient-12)" data-name="Rectangle 1968" transform="translate(0)"/></g></g><g id="Group_10146" data-name="Group 10146"><g id="Group_10145" clip-path="url(#clip-path)" data-name="Group 10145"><path id="Path_4293" fill="#494949" d="M158.684,154l85.472,10.586-4.284,2.484-85.286-10.106Z" data-name="Path 4293" transform="translate(82.163 81.851)"/><g id="Group_10144" data-name="Group 10144" opacity=".5" transform="translate(263.847 211.828)" style="mix-blend-mode:overlay;isolation:isolate"><g id="Group_10143" data-name="Group 10143"><g id="Group_10142" clip-path="url(#clip-path-16)" data-name="Group 10142"><path id="Path_4294" fill="#fff" d="M207.353,169.53l27.4,3.394V146.051l-62.471-7.737Z" data-name="Path 4294" transform="translate(-172.28 -138.314)"/></g></g></g></g></g><g id="Group_10148" data-name="Group 10148" transform="translate(115.471 245.584)"><g id="Group_10147" clip-path="url(#clip-path-17)" data-name="Group 10147"><rect id="Rectangle_1971" width="104.635" height="173.531" fill="url(#linear-gradient-13)" data-name="Rectangle 1971"/></g></g><g id="Group_10150" data-name="Group 10150" transform="translate(115.471 320.663)"><g id="Group_10149" clip-path="url(#clip-path-18)" data-name="Group 10149"><rect id="Rectangle_1972" width="104.635" height="98.453" fill="url(#linear-gradient-14)" data-name="Rectangle 1972"/></g></g><g id="Group_10152" data-name="Group 10152" transform="translate(220.106 245.584)"><g id="Group_10151" clip-path="url(#clip-path-19)" data-name="Group 10151"><rect id="Rectangle_1973" width="160.901" height="173.531" fill="url(#linear-gradient-15)" data-name="Rectangle 1973" transform="translate(0)"/></g></g><g id="Group_10154" data-name="Group 10154" transform="translate(220.106 325.945)"><g id="Group_10153" clip-path="url(#clip-path-20)" data-name="Group 10153"><rect id="Rectangle_1974" width="160.901" height="93.17" fill="url(#linear-gradient-16)" data-name="Rectangle 1974" transform="translate(0)"/></g></g><g id="Group_10156" data-name="Group 10156"><g id="Group_10155" clip-path="url(#clip-path)" data-name="Group 10155"><rect id="Rectangle_1975" width="11.633" height="145.716" fill="#494949" data-name="Rectangle 1975" transform="translate(156.155 264.682)"/><rect id="Rectangle_1976" width="11.633" height="157.34" fill="#5b5b5b" data-name="Rectangle 1976" transform="translate(220.106 253.058)"/><rect id="Rectangle_1977" width="11.633" height="157.34" fill="#494949" data-name="Rectangle 1977" transform="translate(208.473 253.058)"/></g></g><g id="Group_10158" data-name="Group 10158" transform="translate(109.723 379.261)"><g id="Group_10157" clip-path="url(#clip-path-22)" data-name="Group 10157"><rect id="Rectangle_1979" width="110.383" height="22.418" fill="url(#linear-gradient-17)" data-name="Rectangle 1979"/></g></g><g id="Group_10165" data-name="Group 10165"><g id="Group_10164" clip-path="url(#clip-path)" data-name="Group 10164"><g id="Group_10163" data-name="Group 10163" transform="translate(115.47 248.547)" style="mix-blend-mode:multiply;isolation:isolate"><g id="Group_10162" data-name="Group 10162"><g id="Group_10161" clip-path="url(#clip-path-24)" data-name="Group 10161"><g id="Group_10160" data-name="Group 10160" transform="translate(0)"><g id="Group_10159" clip-path="url(#clip-path-25)" data-name="Group 10159"><rect id="Rectangle_1980" width="104.635" height="37.101" fill="url(#linear-gradient-18)" data-name="Rectangle 1980" transform="translate(0 0)"/></g></g></g></g></g></g></g><g id="Group_10167" data-name="Group 10167" transform="translate(109.723 245.584)"><g id="Group_10166" clip-path="url(#clip-path-26)" data-name="Group 10166"><rect id="Rectangle_1983" width="110.383" height="38.194" fill="url(#linear-gradient-19)" data-name="Rectangle 1983"/></g></g><g id="Group_10179" data-name="Group 10179"><g id="Group_10178" clip-path="url(#clip-path)" data-name="Group 10178"><rect id="Rectangle_1984" width="104.635" height="17.436" fill="#2d2d2d" data-name="Rectangle 1984" transform="translate(115.471 401.679)"/><g id="Group_10172" data-name="Group 10172" opacity=".63" transform="translate(115.47 401.679)" style="mix-blend-mode:multiply;isolation:isolate"><g id="Group_10171" data-name="Group 10171"><g id="Group_10170" clip-path="url(#clip-path-28)" data-name="Group 10170"><g id="Group_10169" data-name="Group 10169" transform="translate(0)"><g id="Group_10168" clip-path="url(#clip-path-29)" data-name="Group 10168"><rect id="Rectangle_1985" width="104.635" height="17.436" fill="url(#linear-gradient-20)" data-name="Rectangle 1985" transform="translate(0)"/></g></g></g></g></g><rect id="Rectangle_1988" width="66.891" height="90.918" fill="#494949" data-name="Rectangle 1988" transform="translate(131.847 328.198)"/><g id="Group_10177" data-name="Group 10177" transform="translate(115.47 320.663)" style="mix-blend-mode:multiply;isolation:isolate"><g id="Group_10176" data-name="Group 10176"><g id="Group_10175" clip-path="url(#clip-path-30)" data-name="Group 10175"><g id="Group_10174" data-name="Group 10174" transform="translate(0 0)"><g id="Group_10173" clip-path="url(#clip-path-31)" data-name="Group 10173"><rect id="Rectangle_1989" width="104.635" height="27.745" fill="url(#linear-gradient-21)" data-name="Rectangle 1989"/></g></g></g></g></g></g></g><g id="Group_10181" data-name="Group 10181" transform="translate(109.723 308.686)"><g id="Group_10180" clip-path="url(#clip-path-32)" data-name="Group 10180"><rect id="Rectangle_1992" width="110.383" height="37.363" fill="url(#linear-gradient-22)" data-name="Rectangle 1992" transform="translate(0 0)"/></g></g><g id="Group_10186" data-name="Group 10186"><g id="Group_10185" clip-path="url(#clip-path)" data-name="Group 10185"><g id="Group_10184" data-name="Group 10184" opacity=".22" transform="translate(231.739 246.975)" style="mix-blend-mode:overlay;isolation:isolate"><g id="Group_10183" data-name="Group 10183"><g id="Group_10182" clip-path="url(#clip-path-34)" data-name="Group 10182"><path id="Path_4304" fill="#fff" d="M300.583,179.8,151.315,161.263,300.583,294.118Z" data-name="Path 4304" transform="translate(-151.315 -161.263)"/></g></g></g><rect id="Rectangle_1994" width="11.633" height="145.716" fill="#5b5b5b" data-name="Rectangle 1994" transform="translate(275.716 264.682)"/><rect id="Rectangle_1995" width="11.633" height="145.716" fill="#5b5b5b" data-name="Rectangle 1995" transform="translate(331.346 264.682)"/></g></g><g id="Group_10188" data-name="Group 10188" transform="translate(220.106 379.261)"><g id="Group_10187" clip-path="url(#clip-path-35)" data-name="Group 10187"><rect id="Rectangle_1997" width="166.649" height="22.418" fill="url(#linear-gradient-23)" data-name="Rectangle 1997" transform="translate(0)"/></g></g><g id="Group_10195" data-name="Group 10195"><g id="Group_10194" clip-path="url(#clip-path)" data-name="Group 10194"><g id="Group_10193" data-name="Group 10193" transform="translate(220.106 325.944)" style="mix-blend-mode:multiply;isolation:isolate"><g id="Group_10192" data-name="Group 10192"><g id="Group_10191" clip-path="url(#clip-path-37)" data-name="Group 10191"><g id="Group_10190" data-name="Group 10190" transform="translate(0 -0.001)"><g id="Group_10189" clip-path="url(#clip-path-38)" data-name="Group 10189"><rect id="Rectangle_1998" width="160.901" height="22.669" fill="url(#linear-gradient-24)" data-name="Rectangle 1998" transform="translate(0)"/></g></g></g></g></g></g></g><g id="Group_10197" data-name="Group 10197" transform="translate(220.106 308.686)"><g id="Group_10196" clip-path="url(#clip-path-39)" data-name="Group 10196"><rect id="Rectangle_2001" width="166.649" height="37.363" fill="url(#linear-gradient-25)" data-name="Rectangle 2001" transform="translate(0)"/></g></g><g id="Group_10204" data-name="Group 10204"><g id="Group_10203" clip-path="url(#clip-path)" data-name="Group 10203"><g id="Group_10202" data-name="Group 10202" transform="translate(220.106 248.547)" style="mix-blend-mode:multiply;isolation:isolate"><g id="Group_10201" data-name="Group 10201"><g id="Group_10200" clip-path="url(#clip-path-41)" data-name="Group 10200"><g id="Group_10199" data-name="Group 10199"><g id="Group_10198" clip-path="url(#clip-path-42)" data-name="Group 10198"><rect id="Rectangle_2002" width="160.901" height="37.871" fill="url(#linear-gradient-26)" data-name="Rectangle 2002" transform="translate(0)"/></g></g></g></g></g></g></g><g id="Group_10206" data-name="Group 10206" transform="translate(220.106 245.584)"><g id="Group_10205" clip-path="url(#clip-path-43)" data-name="Group 10205"><rect id="Rectangle_2005" width="166.649" height="38.609" fill="url(#linear-gradient-27)" data-name="Rectangle 2005" transform="translate(0)"/></g></g><g id="Group_10213" data-name="Group 10213"><g id="Group_10212" clip-path="url(#clip-path)" data-name="Group 10212"><rect id="Rectangle_2006" width="160.901" height="17.436" fill="#494949" data-name="Rectangle 2006" transform="translate(220.106 401.679)"/><g id="Group_10211" data-name="Group 10211" opacity=".63" transform="translate(220.106 401.679)" style="mix-blend-mode:multiply;isolation:isolate"><g id="Group_10210" data-name="Group 10210"><g id="Group_10209" clip-path="url(#clip-path-45)" data-name="Group 10209"><g id="Group_10208" data-name="Group 10208"><g id="Group_10207" clip-path="url(#clip-path-45)" data-name="Group 10207"><rect id="Rectangle_2007" width="160.901" height="17.436" fill="url(#linear-gradient-28)" data-name="Rectangle 2007" transform="translate(0)"/></g></g></g></g></g></g></g><g id="Group_10215" data-name="Group 10215" transform="translate(150.034 355.872)"><g id="Group_10214" clip-path="url(#clip-path-47)" data-name="Group 10214"><rect id="Rectangle_2011" width="40.862" height="63.243" fill="url(#linear-gradient-29)" data-name="Rectangle 2011" transform="translate(0 0)"/></g></g><g id="Group_10222" data-name="Group 10222"><g id="Group_10221" clip-path="url(#clip-path)" data-name="Group 10221"><path id="Path_4311" fill="#2d2d2d" d="M101.009,240.75v52.269h31.537V237.246Z" data-name="Path 4311" transform="translate(53.687 126.097)"/><g id="Group_10220" data-name="Group 10220" opacity=".63" transform="translate(154.695 363.343)" style="mix-blend-mode:multiply;isolation:isolate"><g id="Group_10219" data-name="Group 10219"><g id="Group_10218" clip-path="url(#clip-path-49)" data-name="Group 10218"><g id="Group_10217" data-name="Group 10217" transform="translate(0 0)"><g id="Group_10216" clip-path="url(#clip-path-50)" data-name="Group 10216"><rect id="Rectangle_2012" width="31.538" height="55.773" fill="url(#linear-gradient-30)" data-name="Rectangle 2012" transform="translate(0)"/></g></g></g></g></g></g></g><g id="Group_10224" data-name="Group 10224" transform="translate(0 415.421)"><g id="Group_10223" clip-path="url(#clip-path-51)" data-name="Group 10223"><rect id="Rectangle_2015" width="550.393" height="6.578" fill="url(#linear-gradient-31)" data-name="Rectangle 2015"/></g></g></g></svg>