<svg xmlns="http://www.w3.org/2000/svg" id="Group_1803" width="45.6" height="45.6" data-name="Group 1803" viewBox="0 0 45.6 45.6"><path id="Path_2382" fill="#4c74f5" d="M226.585,211.845a14.785,14.785,0,0,0-8.108-13.165,20.105,20.105,0,0,1-19.8,19.8,14.745,14.745,0,0,0,20.665,6.059l7.175,1.985-1.985-7.175a14.687,14.687,0,0,0,2.049-7.5Zm0,0" data-name="Path 2382" transform="translate(-180.985 -180.985)"/><path id="Path_2383" fill="#4c74f5" d="M34.823,17.412a17.412,17.412,0,1,0-32.409,8.85l-2.35,8.5,8.5-2.35a17.415,17.415,0,0,0,26.262-15ZM14.74,13.359H12.068a5.344,5.344,0,1,1,8.95,3.943l-2.27,2.078v2.084H16.076V18.2l3.138-2.872a2.644,2.644,0,0,0,.87-1.972,2.672,2.672,0,1,0-5.344,0Zm1.336,10.776h2.672v2.672H16.076Zm0,0" data-name="Path 2383" transform="translate(0)"/></svg>