<svg xmlns="http://www.w3.org/2000/svg" width="52.566" height="46.911" viewBox="0 0 52.566 46.911"><g id="Group_1800" data-name="Group 1800" transform="translate(-11366.648 -22172.602)"><g id="Group_1765" data-name="Group 1765" transform="translate(11387.711 22172.602)"><path id="Path_1273" fill="#bb0642" d="M549.4,308.052l12.993-3.658a5.39,5.39,0,0,0,3.729-6.646l-.03-.1a5.387,5.387,0,0,0-6.646-3.726l-13,3.655a5.391,5.391,0,0,0-3.726,6.649l.03.1a5.388,5.388,0,0,0,6.646,3.726" data-name="Path 1273" transform="translate(-542.518 -293.714)"/><path id="Path_1274" fill="#e48aa9" d="M548.327,306.053l12.751-3.589a4.206,4.206,0,0,0,2.91-5.191l-.024-.081a4.2,4.2,0,0,0-5.191-2.91l-12.751,3.586a4.21,4.21,0,0,0-2.911,5.191l.024.084a4.206,4.206,0,0,0,5.191,2.911" data-name="Path 1274" transform="translate(-541.65 -292.898)"/><path id="Path_1275" fill="#bb0642" d="M544.89,297.14a1.869,1.869,0,1,0,1.291-2.3,1.868,1.868,0,0,0-1.291,2.3" data-name="Path 1275" transform="translate(-531.632 -291.625)"/><path id="Path_1276" fill="#e44178" d="M545.7,295.354c-.209.314-.218.675-.021.807s.526-.018.735-.332.218-.675.021-.807-.526.018-.735.332" data-name="Path 1276" transform="translate(-531.784 -291.208)"/><path id="Path_1277" fill="#fff" d="M546.943,296.567a.677.677,0,1,0,.469-.834.68.68,0,0,0-.469.834" data-name="Path 1277" transform="translate(-537.617 -289.748)"/><path id="Path_1278" fill="#fff" d="M547.657,298.075a.936.936,0,1,0,.649-1.153.937.937,0,0,0-.649,1.153" data-name="Path 1278" transform="translate(-540.946 -287.407)"/><path id="Path_1279" fill="#fff" d="M543.47,296.81a1.225,1.225,0,1,0,.849-1.512,1.223,1.223,0,0,0-.849,1.512" data-name="Path 1279" transform="translate(-524.782 -290.651)"/><path id="Path_1280" fill="#fff" d="M548.853,297.749a1.308,1.308,0,1,0,.905-1.614,1.308,1.308,0,0,0-.905,1.614" data-name="Path 1280" transform="translate(-546.406 -288.995)"/></g><g id="Group_1761" data-name="Group 1761" transform="matrix(0.469, 0.883, -0.883, 0.469, 11412.048, 22195.137)"><path id="Path_1273-2" fill="#bb0642" d="M4.411,9.2,12.744,6.85a3.457,3.457,0,0,0,2.392-4.262l-.019-.067A3.455,3.455,0,0,0,10.855.13L2.52,2.474A3.457,3.457,0,0,0,.13,6.739l.019.067A3.455,3.455,0,0,0,4.411,9.2" data-name="Path 1273" transform="translate(0 0)"/><path id="Path_1274-2" fill="#e48aa9" d="M3.446,7.651l8.178-2.3A2.7,2.7,0,0,0,13.49,2.02l-.015-.052A2.7,2.7,0,0,0,10.146.1L1.968,2.4A2.7,2.7,0,0,0,.1,5.731l.015.054A2.7,2.7,0,0,0,3.446,7.651" data-name="Path 1274" transform="translate(0.835 0.785)"/><path id="Path_1275-2" fill="#bb0642" d="M.045,1.523A1.2,1.2,0,1,0,.873.045,1.2,1.2,0,0,0,.045,1.523" data-name="Path 1275" transform="translate(8.457 2.014)"/><path id="Path_1276-2" fill="#e44178" d="M.1.243c-.134.2-.14.433-.013.518S.428.749.563.548.7.115.576.031.239.042.1.243" data-name="Path 1276" transform="translate(8.819 2.418)"/><path id="Path_1277-2" fill="#fff" d="M.016.551a.434.434,0,1,0,.3-.535.436.436,0,0,0-.3.535" data-name="Path 1277" transform="translate(5.964 3.824)"/><path id="Path_1278-2" fill="#fff" d="M.023.763A.6.6,0,1,0,.439.023a.6.6,0,0,0-.416.74" data-name="Path 1278" transform="translate(4.283 6.08)"/><path id="Path_1279-2" fill="#fff" d="M.029,1A.785.785,0,1,0,.574.029.784.784,0,0,0,.029,1" data-name="Path 1279" transform="translate(11.957 2.954)"/><path id="Path_1280-2" fill="#fff" d="M.031,1.066A.839.839,0,1,0,.612.031.839.839,0,0,0,.031,1.066" data-name="Path 1280" transform="translate(1.539 4.549)"/></g><g id="Group_1756" data-name="Group 1756" transform="translate(11366.648 22192.709)"><path id="Path_1353" fill="#bb0642" d="M533.434,314.792l16.488,10.893a7.89,7.89,0,0,0,10.932-2.231l.088-.135a7.886,7.886,0,0,0-2.235-10.928L542.218,301.5a7.885,7.885,0,0,0-10.927,2.231l-.088.136a7.886,7.886,0,0,0,2.231,10.928" data-name="Path 1353" transform="translate(-529.894 -300.189)"/><path id="Path_1354" fill="#e48aa9" d="M533.092,312.015l16.177,10.691a6.167,6.167,0,0,0,8.539-1.745l.066-.1a6.157,6.157,0,0,0-1.741-8.535l-16.182-10.691a6.162,6.162,0,0,0-8.535,1.745l-.07.1a6.162,6.162,0,0,0,1.745,8.535" data-name="Path 1354" transform="translate(-528.437 -298.77)"/><path id="Path_1355" fill="#bb0642" d="M532.158,304.159a2.734,2.734,0,1,0,3.788-.774,2.735,2.735,0,0,0-3.788.774" data-name="Path 1355" transform="translate(-512.742 -290.932)"/><path id="Path_1356" fill="#e44178" d="M533.034,303.088c-.547.07-.958.407-.914.748s.525.569,1.072.5.958-.407.914-.752-.525-.564-1.072-.494" data-name="Path 1356" transform="translate(-511.475 -290.454)"/><path id="Path_1357" fill="#fff" d="M533.786,302.843a.993.993,0,1,0,1.378-.28,1,1,0,0,0-1.378.28" data-name="Path 1357" transform="translate(-519.576 -292.732)"/><path id="Path_1358" fill="#fff" d="M535.241,303.156a1.37,1.37,0,1,0,1.9-.39,1.369,1.369,0,0,0-1.9.39" data-name="Path 1358" transform="translate(-527.799 -292.251)"/><path id="Path_1359" fill="#fff" d="M531.372,305.348a1.793,1.793,0,1,0,2.485-.507,1.793,1.793,0,0,0-2.485.507" data-name="Path 1359" transform="translate(-507.47 -285.495)"/><path id="Path_1360" fill="#fff" d="M535.551,301.846a1.915,1.915,0,1,0,2.651-.542,1.912,1.912,0,0,0-2.651.542" data-name="Path 1360" transform="translate(-530.069 -297.5)"/></g></g></svg>