<svg xmlns="http://www.w3.org/2000/svg" width="24" height="24" viewBox="0 0 24 24"><path id="Path_3656" fill="#4c74f5" d="M352.469,206a.469.469,0,1,0,.469.469A.469.469,0,0,0,352.469,206Z" data-name="Path 3656" transform="translate(-352 -206)"/><path id="Path_3657" fill="#4c74f5" d="M24,16.688v-3.75a5.162,5.162,0,0,0-5.156-5.156H14.675a4.255,4.255,0,0,0-1.738-1.165v-2.4a2.352,2.352,0,0,0,.468-.468h3.282a1.406,1.406,0,1,0,0-2.812H13.405a2.342,2.342,0,0,0-3.748,0H6.375a1.406,1.406,0,0,0,0,2.813H9.657a2.352,2.352,0,0,0,.468.468v2.4A4.255,4.255,0,0,0,8.387,7.781H3.75V7.312A1.408,1.408,0,0,0,2.344,5.906H.469A.469.469,0,0,0,0,6.375v8.438a.469.469,0,0,0,.469.469H2.344A1.408,1.408,0,0,0,3.75,13.875v-.469H8.387a4.219,4.219,0,0,0,6.289,0h3.23a.469.469,0,0,1,.469.469v2.813a.465.465,0,0,0,.469.464h1.444c-.724,1.073-1.913,3-1.913,4.036a2.812,2.812,0,0,0,5.625,0c0-1.038-1.189-2.958-1.913-4.031h1.444A.469.469,0,0,0,24,16.688ZM13.827,1.875h2.86a.469.469,0,1,1,0,.938h-2.86a2.328,2.328,0,0,0,0-.938Zm-4.592.938H6.375a.471.471,0,0,1,0-.942h2.86a2.392,2.392,0,0,0-.048.473A2.346,2.346,0,0,0,9.235,2.813ZM2.813,13.875a.469.469,0,0,1-.469.469H.938v-7.5H2.344a.469.469,0,0,1,.469.469ZM11.531.938a1.406,1.406,0,1,1-1.406,1.406A1.407,1.407,0,0,1,11.531.938ZM12,4.64V6.4a4.282,4.282,0,0,0-.937,0V4.64a2.328,2.328,0,0,0,.937,0ZM23.063,21.188a1.875,1.875,0,1,1-3.75,0c0-.718,1.032-2.459,1.875-3.688C22.03,18.728,23.063,20.469,23.063,21.188Zm0-4.969h-3.75V13.875a1.408,1.408,0,0,0-1.406-1.406H14.459a.469.469,0,0,0-.366.176,3.281,3.281,0,0,1-5.123,0,.469.469,0,0,0-.366-.176H3.75V8.719H8.6a.469.469,0,0,0,.366-.176,3.28,3.28,0,0,1,5.123,0,.469.469,0,0,0,.366.176h4.385a4.224,4.224,0,0,1,4.219,4.219Z" data-name="Path 3657" transform="translate(0 0)"/><path id="Path_3658" fill="#4c74f5" d="M392.469,206a.469.469,0,0,0,0,.938,2.346,2.346,0,0,1,2.344,2.344v.938a.469.469,0,0,0,.938,0v-.937A3.285,3.285,0,0,0,392.469,206Z" data-name="Path 3658" transform="translate(-392 -206)"/></svg>