<svg xmlns="http://www.w3.org/2000/svg" width="996.112" height="496.939" viewBox="0 0 996.112 496.939"><g id="Group_1051" data-name="Group 1051" transform="translate(-9146.357 -6577.545)"><g id="Group_1050" data-name="Group 1050" transform="translate(9146.357 6577.545)"><g id="Group_1032" data-name="Group 1032" transform="translate(0 0)"><g id="Group_970" data-name="Group 970" transform="translate(0 0)"><path id="Path_401" fill="#d2dcf7" d="M295.676,33.671l-60.181.08L205.474,85.906l30.157,52.079,60.181-.08L325.833,85.75Z" data-name="Path 401" transform="translate(475.683 77.95)"/><path id="Path_402" fill="#d2dcf7" d="M325.013,50.576l-60.181.08L234.81,102.811l30.157,52.079,60.181-.08,30.021-52.156Z" data-name="Path 402" transform="translate(543.598 117.085)"/><path id="Path_403" fill="#d2dcf7" d="M295.676,0,235.494.076,205.473,52.235l30.157,52.079,60.181-.08,30.024-52.156Z" data-name="Path 403" transform="translate(475.682)"/><path id="Path_404" fill="#d2dcf7" d="M325.013,16.9l-60.181.08L234.81,69.14l30.157,52.079,60.181-.08,30.021-52.156Z" data-name="Path 404" transform="translate(543.598 39.135)"/><path id="Path_405" fill="#d2dcf7" d="M354.376,33.671l-60.182.08L264.173,85.906l30.157,52.079,60.181-.08L384.533,85.75Z" data-name="Path 405" transform="translate(611.576 77.95)"/><path id="Path_407" fill="#d2dcf7" d="M354.376,0,294.2.076,264.173,52.235l30.16,52.079,60.178-.08,30.025-52.156Z" data-name="Path 407" transform="translate(611.576)"/><path id="Path_417" fill="#d2dcf7" d="M295.676,101.452l-60.181.08-30.021,52.156,30.157,52.079,60.181-.08,30.021-52.156Z" data-name="Path 417" transform="translate(475.683 234.867)"/><path id="Path_418" fill="#d2dcf7" d="M264.831,118.434,234.81,170.593l30.157,52.076,60.181-.076,30.021-52.159-30.157-52.076Z" data-name="Path 418" transform="translate(543.598 274.004)"/><path id="Path_419" fill="#d2dcf7" d="M295.676,67.781l-60.181.08-30.021,52.156L235.631,172.1l60.181-.08,30.021-52.156Z" data-name="Path 419" transform="translate(475.683 156.917)"/><path id="Path_420" fill="#d2dcf7" d="M325.013,84.686l-60.181.08L234.81,136.921,264.967,189l60.181-.08,30.021-52.156Z" data-name="Path 420" transform="translate(543.598 196.053)"/><path id="Path_421" fill="#d2dcf7" d="M354.376,101.452l-60.182.08-30.021,52.156,30.157,52.079,60.181-.08,30.021-52.156Z" data-name="Path 421" transform="translate(611.576 234.867)"/><path id="Path_423" fill="#d2dcf7" d="M354.376,67.781l-60.182.08-30.021,52.156L294.331,172.1l60.181-.08,30.021-52.156Z" data-name="Path 423" transform="translate(611.576 156.917)"/><path id="Path_433" fill="#d2dcf7" d="M30.024,50.732,0,102.891l30.157,52.076,60.181-.076,30.024-52.159L90.2,50.656Z" data-name="Path 433" transform="translate(0 117.271)"/><path id="Path_434" fill="#d2dcf7" d="M30.024,17.061,0,69.22,30.157,121.3l60.181-.076,30.024-52.159L90.2,16.985Z" data-name="Path 434" transform="translate(0 39.322)"/><path id="Path_435" fill="#d2dcf7" d="M119.566,33.751l-60.181.08L29.364,85.986l30.157,52.079,60.181-.08,30.021-52.156Z" data-name="Path 435" transform="translate(67.98 78.135)"/><path id="Path_436" fill="#d2dcf7" d="M148.9,50.656l-60.181.08L58.7,102.891,88.857,154.97l60.181-.08,30.021-52.156Z" data-name="Path 436" transform="translate(135.895 117.271)"/><path id="Path_437" fill="#d2dcf7" d="M59.388.157,29.363,52.316,59.52,104.392l60.181-.076,30.024-52.159L119.569.081Z" data-name="Path 437" transform="translate(67.978 0.186)"/><path id="Path_438" fill="#d2dcf7" d="M148.9,16.985l-60.181.08L58.7,69.22,88.857,121.3l60.181-.08L179.06,69.064Z" data-name="Path 438" transform="translate(135.895 39.321)"/><path id="Path_439" fill="#d2dcf7" d="M177.942,33.751l-60.181.08L87.74,85.986,117.9,138.066l60.181-.08L208.1,85.831Z" data-name="Path 439" transform="translate(203.123 78.135)"/><path id="Path_440" fill="#d2dcf7" d="M207.279,50.656l-60.181.08-30.021,52.156,30.157,52.079,60.181-.08,30.021-52.156Z" data-name="Path 440" transform="translate(271.039 117.271)"/><path id="Path_441" fill="#d2dcf7" d="M117.761.157,87.74,52.316,117.9,104.392l60.181-.076L208.1,52.157,177.942.081Z" data-name="Path 441" transform="translate(203.123 0.186)"/><path id="Path_442" fill="#d2dcf7" d="M207.279,16.985l-60.181.08L117.076,69.22,147.233,121.3l60.181-.08,30.021-52.156Z" data-name="Path 442" transform="translate(271.039 39.321)"/><path id="Path_443" fill="#d2dcf7" d="M236.486,33.751l-60.181.08L146.283,85.986l30.157,52.079,60.181-.08,30.021-52.156Z" data-name="Path 443" transform="translate(338.655 78.135)"/><path id="Path_444" fill="#d2dcf7" d="M265.822,50.656l-60.182.08L175.62,102.891l30.157,52.079,60.181-.08,30.021-52.156Z" data-name="Path 444" transform="translate(406.57 117.271)"/><path id="Path_445" fill="#d2dcf7" d="M176.307.157,146.283,52.316l30.157,52.076,60.181-.076,30.024-52.159L236.486.081Z" data-name="Path 445" transform="translate(338.654 0.186)"/><path id="Path_446" fill="#d2dcf7" d="M265.822,16.985l-60.182.08L175.62,69.22,205.777,121.3l60.181-.08,30.021-52.156Z" data-name="Path 446" transform="translate(406.57 39.321)"/><path id="Path_447" fill="#d2dcf7" d="M30.024,118.514,0,170.673l30.157,52.076,60.181-.076,30.024-52.159L90.2,118.438Z" data-name="Path 447" transform="translate(0 274.189)"/><path id="Path_448" fill="#d2dcf7" d="M30.024,84.843,0,137l30.157,52.076L90.338,189l30.024-52.159L90.2,84.767Z" data-name="Path 448" transform="translate(0 196.24)"/><path id="Path_449" fill="#d2dcf7" d="M119.566,101.532l-60.181.08L29.364,153.768l30.157,52.079,60.181-.08,30.021-52.156Z" data-name="Path 449" transform="translate(67.98 235.053)"/><path id="Path_450" fill="#d2dcf7" d="M88.724,118.514,58.7,170.673l30.157,52.076,60.182-.076,30.024-52.159-30.157-52.076Z" data-name="Path 450" transform="translate(135.893 274.189)"/><path id="Path_451" fill="#d2dcf7" d="M119.566,67.862l-60.181.08L29.364,120.1l30.157,52.079,60.181-.08,30.021-52.156Z" data-name="Path 451" transform="translate(67.98 157.103)"/><path id="Path_452" fill="#d2dcf7" d="M148.9,84.766l-60.181.08L58.7,137l30.157,52.079,60.181-.08,30.021-52.156Z" data-name="Path 452" transform="translate(135.895 196.238)"/><path id="Path_453" fill="#d2dcf7" d="M177.942,101.532l-60.181.08L87.74,153.768,117.9,205.847l60.181-.08L208.1,153.612Z" data-name="Path 453" transform="translate(203.123 235.053)"/><path id="Path_454" fill="#d2dcf7" d="M147.1,118.514l-30.021,52.159,30.157,52.076,60.182-.076,30.021-52.159-30.157-52.076Z" data-name="Path 454" transform="translate(271.039 274.189)"/><path id="Path_455" fill="#d2dcf7" d="M177.942,67.862l-60.181.08L87.74,120.1,117.9,172.176l60.181-.08L208.1,119.941Z" data-name="Path 455" transform="translate(203.123 157.103)"/><path id="Path_456" fill="#d2dcf7" d="M207.279,84.766l-60.181.08L117.076,137l30.157,52.079,60.181-.08,30.021-52.156Z" data-name="Path 456" transform="translate(271.039 196.238)"/><path id="Path_457" fill="#d2dcf7" d="M236.486,101.532l-60.181.08-30.021,52.156,30.157,52.079,60.181-.08,30.021-52.156Z" data-name="Path 457" transform="translate(338.655 235.053)"/><path id="Path_458" fill="#d2dcf7" d="M205.644,118.514l-30.024,52.159,30.16,52.076,60.178-.076,30.024-52.159-30.16-52.076Z" data-name="Path 458" transform="translate(406.569 274.189)"/><path id="Path_459" fill="#d2dcf7" d="M236.486,67.862l-60.181.08L146.283,120.1l30.157,52.079,60.181-.08,30.021-52.156Z" data-name="Path 459" transform="translate(338.655 157.103)"/><path id="Path_460" fill="#d2dcf7" d="M265.822,84.766l-60.182.08L175.62,137l30.157,52.079,60.181-.08,30.021-52.156Z" data-name="Path 460" transform="translate(406.57 196.238)"/></g></g></g></g></svg>