<svg xmlns="http://www.w3.org/2000/svg" width="46.002" height="46.002" viewBox="0 0 46.002 46.002"><g id="Group_1819" data-name="Group 1819" transform="translate(-0.001)"><g id="Group_1813" data-name="Group 1813" transform="translate(14.466)"><g id="Group_1812" data-name="Group 1812"><g id="Group_1811" data-name="Group 1811" transform="translate(0 9.683)"><path id="Path_2393" fill="#4c74f5" d="M174.5,107.768a7.168,7.168,0,0,1-9.929,0A8.53,8.53,0,0,0,161,114.707v.9a1.348,1.348,0,0,0,1.348,1.348h14.376a1.348,1.348,0,0,0,1.348-1.348v-.9A8.53,8.53,0,0,0,174.5,107.768Z" data-name="Path 2393" transform="translate(-161 -107.768)"/></g><path id="Path_2394" fill="#4c74f5" d="M210.492,8.985a4.492,4.492,0,1,1,4.492-4.492A4.5,4.5,0,0,1,210.492,8.985Z" data-name="Path 2394" transform="translate(-201.957)"/></g></g><g id="Group_1818" data-name="Group 1818" transform="translate(0.001 10.961)"><g id="Group_1815" data-name="Group 1815" transform="translate(25.337)"><path id="Path_2395" fill="#4c74f5" d="M283.348,452A1.348,1.348,0,0,0,282,453.348v2.7a1.348,1.348,0,0,0,1.348,1.348h14.376a1.348,1.348,0,0,0,1.348-1.348v-2.7A1.348,1.348,0,0,0,297.723,452Z" data-name="Path 2395" transform="translate(-282 -422.35)"/><g id="Group_1814" data-name="Group 1814" transform="translate(1.797)"><path id="Path_2396" fill="#4c74f5" d="M319.52,122h-.449a4.942,4.942,0,0,0-4.942,4.942v2.636a6.061,6.061,0,0,1,1.285,9.556l-3.961,3.961a1.348,1.348,0,0,1-1.906-1.906l3.961-3.961a3.369,3.369,0,1,0-4.765-4.765l-4.77,4.77A6.7,6.7,0,0,0,302,142v6.957h13.477v-.965l5.19-8.415a1.348,1.348,0,0,0,.2-.707V123.348A1.348,1.348,0,0,0,319.52,122Z" data-name="Path 2396" transform="translate(-302 -122)"/></g></g><g id="Group_1817" data-name="Group 1817" transform="translate(0 0)"><path id="Path_2397" fill="#4c74f5" d="M55.722,452a1.348,1.348,0,0,1,1.348,1.348v2.7a1.348,1.348,0,0,1-1.348,1.348H41.347A1.348,1.348,0,0,1,40,456.043v-2.7A1.348,1.348,0,0,1,41.347,452Z" data-name="Path 2397" transform="translate(-36.405 -422.35)"/><g id="Group_1816" data-name="Group 1816"><path id="Path_2398" fill="#4c74f5" d="M18.869,142a6.694,6.694,0,0,0-1.974-4.765l-4.77-4.77a3.369,3.369,0,1,0-4.765,4.765l3.961,3.961A1.348,1.348,0,0,1,9.416,143.1l-3.961-3.961a6.061,6.061,0,0,1,1.285-9.556v-2.636A4.942,4.942,0,0,0,1.8,122H1.349A1.348,1.348,0,0,0,0,123.348v15.519a1.347,1.347,0,0,0,.2.707l5.19,8.415v.965H18.869Z" data-name="Path 2398" transform="translate(-0.001 -122)"/></g></g></g></g></svg>