<svg xmlns="http://www.w3.org/2000/svg" xmlns:xlink="http://www.w3.org/1999/xlink" id="Group_10236" width="589.98" height="470" data-name="Group 10236" viewBox="0 0 589.98 470"><defs><clipPath id="clip-path"><rect id="Rectangle_2021" width="589.98" height="470" fill="none" data-name="Rectangle 2021"/></clipPath><clipPath id="clip-path-3"><rect id="Rectangle_2018" width="89.385" height="333.144" fill="none" data-name="Rectangle 2018"/></clipPath><clipPath id="clip-path-4"><rect id="Rectangle_2019" width="64.91" height="248.083" fill="none" data-name="Rectangle 2019"/></clipPath></defs><g id="Group_10235" clip-path="url(#clip-path)" data-name="Group 10235"><g id="Group_10234" data-name="Group 10234"><g id="Group_10233" clip-path="url(#clip-path)" data-name="Group 10233"><path id="Path_4313" fill="#b3c7f8" d="M341.028,199.348c-15.655-3.049-44.144-5.091-76.694-5.091s-61.042,2.041-76.689,5.091H174.874v5.408c0,5.8,40.055,10.495,89.46,10.495s89.458-4.7,89.458-10.495v-5.408Z" data-name="Path 4313" transform="translate(227.592 252.818)"/><path id="Path_4314" fill="#cfd8fd" d="M353.792,202.4c0,5.8-40.052,10.5-89.46,10.5s-89.458-4.7-89.458-10.5,40.052-10.5,89.458-10.5,89.46,4.7,89.46,10.5" data-name="Path 4314" transform="translate(227.592 249.761)"/><path id="Path_4315" fill="#b3c7f8" d="M353.574,197.67c-32.688-5.346-93.992-8.948-164.225-8.948s-131.54,3.6-164.225,8.948H0v8.884c0,9.85,84.772,17.832,189.348,17.832s189.346-7.981,189.346-17.832V197.67Z" data-name="Path 4315" transform="translate(0 245.615)"/><path id="Path_4316" fill="#cfd8fd" d="M378.694,202.694c0,9.848-84.772,17.834-189.346,17.834S0,212.542,0,202.694s84.772-17.832,189.348-17.832,189.346,7.984,189.346,17.832" data-name="Path 4316" transform="translate(0 240.591)"/><path id="Path_4317" fill="#b3c7f8" d="M356.118,52.805V371.7c0,4.212-17.075,8.051-45.118,10.946-.29.032-.575.06-.865.09-31.88,3.247-77.647,5.286-128.509,5.3h-.865c-30.911,0-59.939-.764-85.113-2.085-16.248-.854-30.893-1.942-43.4-3.213-.288-.03-.573-.058-.858-.09-28.043-2.9-45.122-6.734-45.122-10.946V52.805Z" data-name="Path 4317" transform="translate(8.152 68.724)"/><path id="Path_4318" fill="#3161e1" d="M342.723,135.711c7.8-2.016,12.294-4,13.638-6.028a2.332,2.332,0,0,0,.43-1.3.432.432,0,1,0-.863,0c0,3.063-11.885,7.777-44.687,12.129V88.515a280.488,280.488,0,0,0,31.482-5.666c7.8-2.016,12.294-4,13.638-6.03a2.333,2.333,0,0,0,.43-1.3.432.432,0,0,0-.863,0c0,3.066-11.885,7.777-44.687,12.131V55.222a.428.428,0,0,0-.43-.43.433.433,0,0,0-.433.43v32.54q-2.568.331-5.307.667c-34.724,4.228-78.464,6.561-123.2,6.578V55.222a.432.432,0,0,0-.863,0V95.008C136.259,94.992,92.52,92.658,57.8,88.43c-1.827-.221-3.59-.446-5.307-.667V55.222a.432.432,0,0,0-.863,0V87.645C18.827,83.291,6.937,78.58,6.937,75.514a.429.429,0,1,0-.858,0,2.362,2.362,0,0,0,.426,1.3c1.344,2.028,5.846,4.014,13.643,6.03a280.083,280.083,0,0,0,31.477,5.666v51.992c-32.8-4.352-44.687-9.065-44.687-12.129a.429.429,0,1,0-.858,0,2.362,2.362,0,0,0,.426,1.3c1.349,2.028,5.846,4.011,13.643,6.028a280.237,280.237,0,0,0,31.477,5.662v51.995c-32.8-4.354-44.687-9.061-44.687-12.131a.429.429,0,1,0-.858,0,2.376,2.376,0,0,0,.426,1.31c1.349,2.028,5.846,4.009,13.643,6.025a280.076,280.076,0,0,0,31.477,5.666v51.995c-32.8-4.354-44.687-9.065-44.687-12.133a.429.429,0,0,0-.858,0,2.363,2.363,0,0,0,.426,1.307c1.349,2.03,5.846,4.011,13.643,6.03A281.206,281.206,0,0,0,51.625,247.1v51.992c-32.8-4.352-44.687-9.065-44.687-12.126a.429.429,0,1,0-.858,0,2.368,2.368,0,0,0,.426,1.3c1.349,2.028,5.846,4.007,13.643,6.025a280.153,280.153,0,0,0,31.477,5.664v51.995c-32.8-4.354-44.687-9.063-44.687-12.131a.429.429,0,0,0-.858,0,2.387,2.387,0,0,0,.426,1.31c1.349,2.028,5.846,4.009,13.643,6.028a281.283,281.283,0,0,0,31.477,5.662v27.24c.288.032.573.062.863.09V352.935q2.551.338,5.2.663c34.757,4.228,78.537,6.566,123.315,6.582v25.268h.863V360.18c44.777-.016,88.553-2.354,123.31-6.582,1.768-.216,3.505-.437,5.2-.663v27.217c.29-.028.58-.058.863-.09v-27.24a281.691,281.691,0,0,0,31.482-5.662c7.8-2.018,12.294-4,13.638-6.028a2.358,2.358,0,0,0,.43-1.31.432.432,0,0,0-.863,0c0,3.068-11.885,7.777-44.687,12.131V299.96a280.558,280.558,0,0,0,31.482-5.664c7.8-2.018,12.294-4,13.638-6.025a2.338,2.338,0,0,0,.43-1.3.432.432,0,1,0-.863,0c0,3.061-11.885,7.774-44.687,12.126V247.1a281.613,281.613,0,0,0,31.482-5.664c7.8-2.018,12.294-4,13.638-6.03a2.334,2.334,0,0,0,.43-1.307.432.432,0,0,0-.863,0c0,3.068-11.885,7.779-44.687,12.133V194.238a280.481,280.481,0,0,0,31.482-5.666c7.8-2.016,12.294-4,13.638-6.025a2.346,2.346,0,0,0,.43-1.31.432.432,0,0,0-.863,0c0,3.07-11.885,7.777-44.687,12.131V141.373a280.642,280.642,0,0,0,31.482-5.662M181,359.317c-44.745-.016-88.484-2.352-123.209-6.578-1.827-.221-3.59-.442-5.307-.667V300.077q2.551.335,5.2.656c34.757,4.232,78.537,6.566,123.315,6.58Zm0-52.865c-44.745-.016-88.484-2.348-123.209-6.571-1.827-.228-3.59-.449-5.307-.674V247.213q2.551.335,5.2.658c34.757,4.232,78.537,6.568,123.315,6.58Zm0-52.86c-44.745-.014-88.484-2.348-123.209-6.575-1.827-.221-3.59-.447-5.307-.667v-52q2.551.335,5.2.658c34.757,4.23,78.537,6.568,123.315,6.585Zm0-52.862c-44.745-.016-88.484-2.35-123.209-6.578-1.827-.221-3.59-.444-5.307-.667V141.49q2.551.335,5.2.656c34.757,4.232,78.537,6.566,123.315,6.582Zm0-52.865c-44.745-.016-88.484-2.345-123.209-6.571-1.827-.226-3.59-.449-5.307-.674V88.628q2.551.335,5.2.656C92.446,93.516,136.227,95.85,181,95.866ZM310.378,352.072q-2.568.338-5.307.667c-34.724,4.225-78.464,6.561-123.2,6.578v-52c44.777-.014,88.553-2.348,123.31-6.58,1.768-.214,3.505-.433,5.2-.656Zm0-52.865c-1.712.226-3.48.447-5.307.674-34.724,4.223-78.464,6.555-123.2,6.571v-52c44.777-.012,88.553-2.348,123.31-6.58,1.768-.216,3.505-.435,5.2-.658Zm0-52.858q-2.568.331-5.307.667c-34.724,4.228-78.464,6.561-123.2,6.575v-52c44.777-.016,88.553-2.354,123.31-6.585,1.768-.216,3.505-.435,5.2-.658Zm0-52.865q-2.568.335-5.307.667c-34.724,4.228-78.464,6.561-123.2,6.578v-52c44.777-.016,88.553-2.35,123.31-6.582,1.768-.214,3.505-.433,5.2-.656Zm0-52.865q-2.568.338-5.307.674c-34.724,4.225-78.464,6.555-123.2,6.571v-52c44.777-.016,88.553-2.35,123.31-6.582,1.768-.216,3.505-.433,5.2-.656Z" data-name="Path 4318" transform="translate(7.912 71.31)"/><path id="Path_4319" fill="#3161e1" d="M356.118,54.949c0,9.022-78.316,16.333-174.925,16.333-31.077,0-60.257-.755-85.545-2.081C42.3,66.4,6.264,61.07,6.264,54.949A9.257,9.257,0,0,1,7.61,51.158C9.359,52.479,12.8,53.749,17.7,54.949c14.66,3.588,42.476,6.571,77.944,8.43,25.288,1.326,54.469,2.083,85.545,2.083,89.237,0,162.868-6.239,173.583-14.3a9.232,9.232,0,0,1,1.342,3.791" data-name="Path 4319" transform="translate(8.152 66.58)"/><path id="Path_4320" fill="#cfd8fd" d="M354.014,90.595c-10.716,8.064-84.344,14.3-173.583,14.3-31.074,0-60.255-.755-85.545-2.083C47.544,100.33,13.83,95.849,6.85,90.595c8.828-16.386,61.693-68.88,170.9-69.73.888,0,1.784-.009,2.684-.009,111.025,0,164.679,53.221,173.583,69.739" data-name="Path 4320" transform="translate(8.915 27.143)"/><g id="Group_10229" data-name="Group 10229" opacity=".25" transform="translate(14.416 121.529)"><g id="Group_10228" data-name="Group 10228"><g id="Group_10227" clip-path="url(#clip-path-3)" data-name="Group 10227"><path id="Path_4321" fill="#3161e1" d="M95.648,67.059V385.95c-16.248-.854-30.893-1.942-43.4-3.213-.288-.035-.573-.058-.856-.09-28.043-2.9-45.125-6.734-45.125-10.946V52.806c0,6.12,36.041,11.454,89.384,14.253" data-name="Path 4321" transform="translate(-6.264 -52.804)"/></g></g></g><path id="Path_4322" fill="#b3c7f8" d="M177.747,20.86V26.1c-65.833,13.811-82.86,76.712-82.86,76.712C47.547,100.325,13.833,95.844,6.85,90.59c8.831-16.386,61.7-68.883,170.9-69.73" data-name="Path 4322" transform="translate(8.915 27.148)"/><path id="Path_4323" fill="#b3c7f8" d="M68.2,16.775V27.932c0,1.922,13.3,3.48,29.71,3.48s29.714-1.558,29.714-3.48V16.775Z" data-name="Path 4323" transform="translate(88.755 21.832)"/><path id="Path_4324" fill="#cfd8fd" d="M127.62,18.742c0,1.919-13.3,3.478-29.712,3.478S68.2,20.661,68.2,18.742s13.3-3.478,29.712-3.478,29.712,1.553,29.712,3.478" data-name="Path 4324" transform="translate(88.755 19.866)"/><path id="Path_4325" fill="#b3c7f8" d="M345.646,92.463V331.831c0,4.944-37.721,8.95-84.257,8.95-6.66,0-13.132-.085-19.344-.237-37.21-.927-64.91-4.481-64.91-8.713V92.463Z" data-name="Path 4325" transform="translate(230.534 120.337)"/><path id="Path_4326" fill="#cfd8fd" d="M345.646,97.524c0,4.944-37.721,8.95-84.257,8.95-6.66,0-13.132-.081-19.344-.237-37.21-.925-64.91-4.474-64.91-8.713,0-4.944,37.726-8.95,84.254-8.95s84.257,4.007,84.257,8.95" data-name="Path 4326" transform="translate(230.534 115.276)"/><path id="Path_4327" fill="#3161e1" d="M261.634,117.968c-22.52,0-43.7-.934-59.624-2.626a139.243,139.243,0,0,1-18.113-2.856c-4.746-1.19-6.95-2.43-6.95-3.9a.432.432,0,1,1,.863,0c0,1.606,6.382,4,24.294,5.9,15.9,1.687,37.042,2.617,59.53,2.617s43.633-.93,59.534-2.617c17.908-1.908,24.29-4.3,24.29-5.9a.432.432,0,1,1,.863,0c0,1.471-2.2,2.711-6.944,3.9a139.584,139.584,0,0,1-18.119,2.856c-15.926,1.692-37.1,2.626-59.624,2.626" data-name="Path 4327" transform="translate(230.29 140.756)"/><path id="Path_4328" fill="#3161e1" d="M261.634,141.72c-22.52,0-43.7-.932-59.624-2.624a139.575,139.575,0,0,1-18.113-2.858c-4.746-1.19-6.95-2.428-6.95-3.9a.432.432,0,0,1,.863,0c0,1.6,6.382,4,24.294,5.9,15.9,1.687,37.042,2.619,59.53,2.619s43.633-.932,59.534-2.619c17.908-1.9,24.29-4.3,24.29-5.9a.432.432,0,0,1,.863,0c0,1.473-2.2,2.711-6.944,3.9a139.918,139.918,0,0,1-18.119,2.858c-15.926,1.692-37.1,2.624-59.624,2.624" data-name="Path 4328" transform="translate(230.29 171.672)"/><path id="Path_4329" fill="#3161e1" d="M261.634,165.474c-22.52,0-43.7-.934-59.624-2.626a138.451,138.451,0,0,1-18.113-2.856c-4.746-1.188-6.95-2.426-6.95-3.9a.432.432,0,1,1,.863,0c0,1.6,6.382,4,24.294,5.9,15.9,1.689,37.042,2.621,59.53,2.621s43.633-.932,59.534-2.621c17.908-1.9,24.29-4.295,24.29-5.9a.432.432,0,1,1,.863,0c0,1.473-2.2,2.711-6.944,3.9a138.789,138.789,0,0,1-18.119,2.856c-15.926,1.692-37.1,2.626-59.624,2.626" data-name="Path 4329" transform="translate(230.29 202.587)"/><path id="Path_4330" fill="#3161e1" d="M261.634,189.225c-22.52,0-43.7-.93-59.624-2.621a139.639,139.639,0,0,1-18.113-2.856c-4.746-1.19-6.95-2.43-6.95-3.9a.432.432,0,0,1,.863,0c0,1.606,6.382,4,24.294,5.9,15.9,1.689,37.042,2.621,59.53,2.621s43.633-.932,59.534-2.621c17.908-1.9,24.29-4.295,24.29-5.9a.432.432,0,0,1,.863,0c0,1.473-2.2,2.713-6.944,3.9a139.981,139.981,0,0,1-18.119,2.856c-15.926,1.692-37.1,2.621-59.624,2.621" data-name="Path 4330" transform="translate(230.29 233.503)"/><path id="Path_4331" fill="#b3c7f8" d="M186.718,88.063V98.189c0,3.648,27.848,6.607,62.2,6.607s62.2-2.96,62.2-6.607V88.063Z" data-name="Path 4331" transform="translate(243.006 114.611)"/><path id="Path_4332" fill="#cfd8fd" d="M311.118,91.8c0,3.65-27.848,6.607-62.2,6.607s-62.2-2.957-62.2-6.607,27.848-6.608,62.2-6.608,62.2,2.96,62.2,6.608" data-name="Path 4332" transform="translate(243.008 110.874)"/><path id="Path_4333" fill="#3161e1" d="M202.022,79.168V99.382c0,1.583,12.078,2.868,26.98,2.868s26.985-1.284,26.985-2.868V79.168Z" data-name="Path 4333" transform="translate(262.924 103.034)"/><path id="Path_4334" fill="#b3c7f8" d="M255.987,80.791c0,1.579-12.085,2.863-26.985,2.863s-26.98-1.284-26.98-2.863,12.078-2.87,26.98-2.87,26.985,1.284,26.985,2.87" data-name="Path 4334" transform="translate(262.924 101.411)"/><path id="Path_4335" fill="#4763a8" d="M393.952,28.566V182.2c0,.96-2.17,1.738-4.845,1.738s-4.845-.778-4.845-1.738V28.566a18.893,18.893,0,0,0-18.87-18.872H107.564A18.892,18.892,0,0,0,88.692,28.566V38.612c0,.315-2.175.578-4.849.578S79,38.927,79,38.612V28.566A28.6,28.6,0,0,1,107.564,0H365.393a28.6,28.6,0,0,1,28.559,28.566" data-name="Path 4335" transform="translate(102.817 0)"/><path id="Path_4336" fill="#4763a8" d="M1.683,396.052a.969.969,0,0,1-.969-.969V67.879A17.158,17.158,0,0,1,17.853,50.738h6.313a.969.969,0,0,1,0,1.938H17.853a15.22,15.22,0,0,0-15.2,15.2v327.2a.972.972,0,0,1-.969.969" data-name="Path 4336" transform="translate(0.929 66.034)"/><path id="Path_4337" fill="#3161e1" d="M43.99,50.738H37.677A17.156,17.156,0,0,0,20.54,67.879v.969H1.684a.969.969,0,1,0,0,1.938H20.54v24H1.684a.969.969,0,1,0,0,1.938H20.54v24H1.684a.97.97,0,1,0,0,1.94H20.54v24H1.684a.97.97,0,1,0,0,1.94H20.54v24H1.684a.97.97,0,1,0,0,1.94H20.54v24H1.684a.969.969,0,1,0,0,1.938H20.54v24H1.684a.97.97,0,1,0,0,1.94H20.54v24H1.684a.969.969,0,1,0,0,1.938H20.54v24H1.684a.969.969,0,1,0,0,1.938H20.54v24H1.684a.969.969,0,1,0,0,1.938H20.54v24H1.684a.968.968,0,1,0,0,1.936H20.54v24H1.684a.969.969,0,1,0,0,1.938H20.54v24H1.684a.969.969,0,1,0,0,1.938H20.54v13.047a.969.969,0,1,0,1.938,0V67.879a15.218,15.218,0,0,1,15.2-15.2H43.99a.969.969,0,0,0,0-1.938" data-name="Path 4337" transform="translate(0.928 66.034)"/><path id="Path_4338" fill="#4763a8" d="M270.16,113.5V337.785h-1.938V113.5a15.219,15.219,0,0,0-15.2-15.206h-6.313a.969.969,0,1,1,0-1.938h6.313A17.159,17.159,0,0,1,270.16,113.5" data-name="Path 4338" transform="translate(319.82 125.398)"/><path id="Path_4339" fill="#3161e1" d="M261.551,142.337v24H280.4a.969.969,0,1,1,0,1.938H261.551v24H280.4a.969.969,0,1,1,0,1.938H261.551v24H280.4a.969.969,0,1,1,0,1.938H261.551v24H280.4a.969.969,0,1,1,0,1.938H261.551v24H280.4a.969.969,0,1,1,0,1.938H261.551v24H280.4a.97.97,0,0,1,0,1.94H261.551v24H280.4a.969.969,0,1,1,0,1.938H261.551v13.885h-1.942V113.495a15.219,15.219,0,0,0-15.2-15.206h-6.313a.969.969,0,1,1,0-1.938h6.313a17.166,17.166,0,0,1,17.144,17.144v.964H280.4a.97.97,0,0,1,0,1.94H261.551v24H280.4a.969.969,0,1,1,0,1.938Z" data-name="Path 4339" transform="translate(308.611 125.397)"/><g id="Group_10232" data-name="Group 10232" opacity=".25" transform="translate(407.669 212.798)"><g id="Group_10231" data-name="Group 10231"><g id="Group_10230" clip-path="url(#clip-path-4)" data-name="Group 10230"><path id="Path_4340" fill="#3161e1" d="M242.045,101.176V340.544c-37.21-.927-64.91-4.481-64.91-8.716V92.463c0,4.237,27.7,7.786,64.91,8.713" data-name="Path 4340" transform="translate(-177.135 -92.461)"/></g></g></g></g></g></g></svg>