<svg xmlns="http://www.w3.org/2000/svg" xmlns:svg="http://www.w3.org/2000/svg" id="svg2" width="21.739" height="24" fill="#091a5a" version="1.1"><path id="path1" d="M 21.433,4.234 10.097,0.029 C 9.791112,-0.08332055 9.4665229,0.14214561 9.465,0.468 v 5.769 l -9.184,4.081 c -0.16880122,0.07555 -0.27760863,0.243064 -0.278,0.428 v 12.785 c 5.5004e-4,0.258793 0.21020663,0.46845 0.469,0.469 h 20.8 c 0.258793,-5.5e-4 0.46845,-0.210207 0.469,-0.469 V 4.673 C 21.740081,4.4767064 21.617268,4.3016572 21.433,4.234 Z m -20.5,17.012 h 8.528 v 1.816 H 0.938 Z M 6.924,20.309 H 3.475 v -2.776 h 3.454 z m 7.465,2.754 v -4.335 h 2.422 v 4.334 z m 6.408,0 h -1.016 v -2.728 c 0.0155,-0.372525 -0.388148,-0.61392 -0.709,-0.424 -0.148108,0.08873 -0.235646,0.251517 -0.228,0.424 v 2.727 h -1.09 v -4.8 c -5.5e-4,-0.258793 -0.210207,-0.46845 -0.469,-0.469 h -3.361 c -0.258793,5.5e-4 -0.46845,0.210207 -0.469,0.469 v 4.8 h -1.09 v -2.727 c -5.5e-4,-0.258793 -0.210207,-0.46845 -0.469,-0.469 -0.258793,5.5e-4 -0.46845,0.210207 -0.469,0.469 v 2.727 h -1.024 v -7.086 c 0.0155,-0.372525 -0.388148,-0.61392 -0.709,-0.424 -0.1481083,0.08873 -0.2356459,0.251517 -0.228,0.424 v 4.332 h -1.6 V 17.064 C 7.86545,16.805207 7.6557934,16.59555 7.397,16.595 H 3.006 c -0.2587934,5.5e-4 -0.46845,0.210207 -0.469,0.469 v 3.244 h -1.6 V 11.051 L 9.465,7.263 v 4.475 c -0.015504,0.372525 0.388148,0.61392 0.709,0.424 0.148108,-0.08873 0.235646,-0.251517 0.228,-0.424 V 1.142 L 20.801,5 Z M 7.397,15.256 H 3.006 C 2.7472066,15.25545 2.53755,15.045793 2.537,14.787 v -2.6 c 3.651e-4,-0.188528 0.1133488,-0.358594 0.287,-0.432 l 2.923,-1.23 c 0.057602,-0.02432 0.1194762,-0.0369 0.182,-0.037 h 1.468 c 0.2587934,5.5e-4 0.46845,0.210207 0.469,0.469 v 3.831 c -0.0011,0.258403 -0.2105955,0.467453 -0.469,0.468 z M 3.475,14.319 h 3.453 v -2.893 h -0.9 L 3.479,12.499 Z M 19.307,10.194 H 16.725 C 16.466207,10.19345 16.25655,9.9837934 16.256,9.725 V 6.519 c 0.0015,-0.3258544 0.326112,-0.5513206 0.632,-0.439 l 2.582,0.958 c 0.183822,0.068444 0.305808,0.2438494 0.306,0.44 v 2.248 c -0.0011,0.2584028 -0.210595,0.467453 -0.469,0.468 z M 17.194,9.257 h 1.644 V 7.803 l -1.644,-0.61 z m -2.715,0.936 H 11.897 C 11.638207,10.19245 11.42855,9.9827934 11.428,9.724 V 4.892 c 5.5e-4,-0.2587934 0.210207,-0.46845 0.469,-0.469 h 0.443 c 0.05562,-5.45e-5 0.110811,0.00976 0.163,0.029 l 2.139,0.793 c 0.183822,0.068444 0.305808,0.2438494 0.306,0.44 v 4.04 c -0.0011,0.2584028 -0.210595,0.467453 -0.469,0.468 z M 12.366,9.256 h 1.645 V 6.011 l -1.645,-0.61 z"/><path id="path2" d="M19.308 16.258H16.73a.47.47 0 0 1-.469-.469v-3.9a.47.47 0 0 1 .469-.469h2.582a.47.47 0 0 1 .469.469v3.9a.47.47 0 0 1-.473.469zm-2.113-.937h1.644V12.36h-1.644zm-2.716.937h-2.582a.47.47 0 0 1-.469-.469v-3.9a.47.47 0 0 1 .469-.469h2.582a.47.47 0 0 1 .469.469v3.9a.47.47 0 0 1-.469.469zm-2.113-.937h1.644V12.36h-1.644z"/></svg>