<svg xmlns="http://www.w3.org/2000/svg" width="21.739" height="24" viewBox="0 0 21.739 24"><path fill="#091a5a" d="M45.552,4.234,34.216.029a.469.469,0,0,0-.632.439V6.237L24.4,10.318a.469.469,0,0,0-.278.428V23.531a.469.469,0,0,0,.469.469h20.8a.469.469,0,0,0,.469-.469V4.673A.469.469,0,0,0,45.552,4.234Zm-20.5,17.012h8.528v1.816H25.057Zm5.991-.937H27.594V17.533h3.454Zm7.465,2.754V18.728H40.93v4.334Zm6.408,0H43.9V20.335a.469.469,0,1,0-.937,0v2.727h-1.09v-4.8a.469.469,0,0,0-.469-.469H38.043a.469.469,0,0,0-.469.469v4.8h-1.09V20.335a.469.469,0,0,0-.938,0v2.727H34.522V15.976a.469.469,0,1,0-.937,0v4.332h-1.6V17.064a.469.469,0,0,0-.469-.469H27.125a.469.469,0,0,0-.469.469v3.244h-1.6V11.051l8.528-3.788v4.475a.469.469,0,1,0,.937,0V1.142L44.92,5Z" transform="translate(-24.119 0)"/><path fill="#091a5a" d="M226.542,286.777a.469.469,0,1,1,.457-.366A.473.473,0,0,1,226.542,286.777Z" transform="translate(-226.074 -285.841)"/><path fill="#091a5a" d="M83.109,228.514H78.718a.469.469,0,0,1-.469-.469v-2.6a.469.469,0,0,1,.287-.432l2.923-1.23a.47.47,0,0,1,.182-.037h1.468a.469.469,0,0,1,.469.469v3.831A.469.469,0,0,1,83.109,228.514Zm-3.922-.937H82.64v-2.893h-.9l-2.549,1.073Z" transform="translate(-75.712 -213.258)"/><path fill="#091a5a" d="M373.982,133.2H371.4a.469.469,0,0,1-.469-.469v-3.206a.469.469,0,0,1,.632-.439l2.582.958a.469.469,0,0,1,.306.44v2.248A.469.469,0,0,1,373.982,133.2Zm-2.113-.937h1.644v-1.454l-1.644-.61Z" transform="translate(-354.675 -123.006)"/><path fill="#091a5a" d="M270.977,100.123h-2.582a.469.469,0,0,1-.469-.469V94.822a.469.469,0,0,1,.469-.469h.443a.469.469,0,0,1,.163.029l2.139.793a.469.469,0,0,1,.306.44v4.04A.469.469,0,0,1,270.977,100.123Zm-2.113-.937h1.645V95.941l-1.645-.61Z" transform="translate(-256.498 -89.93)"/><path fill="#091a5a" d="M373.978,248.513H371.4a.469.469,0,0,1-.469-.469v-3.9a.469.469,0,0,1,.469-.469h2.582a.469.469,0,0,1,.469.469v3.9A.469.469,0,0,1,373.978,248.513Zm-2.113-.937h1.644v-2.961h-1.644Z" transform="translate(-354.67 -232.255)"/><path fill="#091a5a" d="M270.976,248.513h-2.582a.469.469,0,0,1-.469-.469v-3.9a.469.469,0,0,1,.469-.469h2.582a.469.469,0,0,1,.469.469v3.9A.469.469,0,0,1,270.976,248.513Zm-2.113-.937h1.644v-2.961h-1.644Z" transform="translate(-256.497 -232.255)"/></svg>