<svg xmlns="http://www.w3.org/2000/svg" width="21.739" height="24" fill="#091a5a" xmlns:v="https://vecta.io/nano"><path d="M21.433 4.234L10.097.029a.47.47 0 0 0-.632.439v5.769L.281 10.318a.47.47 0 0 0-.278.428v12.785A.47.47 0 0 0 .472 24h20.8a.47.47 0 0 0 .469-.469V4.673a.47.47 0 0 0-.308-.439zM.933 21.246h8.528v1.816H.938zm5.991-.937H3.475v-2.776h3.454zm7.465 2.754v-4.335h2.422v4.334zm6.408 0h-1.016v-2.728a.47.47 0 0 0-.709-.424.47.47 0 0 0-.228.424v2.727h-1.09v-4.8a.47.47 0 0 0-.469-.469h-3.361a.47.47 0 0 0-.469.469v4.8h-1.09v-2.727a.47.47 0 0 0-.469-.469.47.47 0 0 0-.469.469v2.727h-1.024v-7.086a.47.47 0 0 0-.709-.424.47.47 0 0 0-.228.424v4.332h-1.6v-3.244a.47.47 0 0 0-.469-.469H3.006a.47.47 0 0 0-.469.469v3.244h-1.6v-9.257l8.528-3.788v4.475a.47.47 0 0 0 .709.424.47.47 0 0 0 .228-.424V1.142L20.801 5zM.468.936A.47.47 0 0 1 .174.101.47.47 0 0 1 .925.57C.876.783.687.934.468.936zm6.929 14.32H3.006a.47.47 0 0 1-.469-.469v-2.6a.47.47 0 0 1 .287-.432l2.923-1.23a.47.47 0 0 1 .182-.037h1.468a.47.47 0 0 1 .469.469v3.831a.47.47 0 0 1-.469.468zm-3.922-.937h3.453v-2.893h-.9l-2.549 1.073zm15.832-4.125h-2.582a.47.47 0 0 1-.469-.469V6.519a.47.47 0 0 1 .632-.439l2.582.958a.47.47 0 0 1 .306.44v2.248a.47.47 0 0 1-.469.468zm-2.113-.937h1.644V7.803l-1.644-.61zm-2.715.936h-2.582a.47.47 0 0 1-.469-.469V4.892a.47.47 0 0 1 .469-.469h.443a.47.47 0 0 1 .163.029l2.139.793a.47.47 0 0 1 .306.44v4.04a.47.47 0 0 1-.469.468zm-2.113-.937h1.645V6.011l-1.645-.61z"/><path d="M19.308 16.258H16.73a.47.47 0 0 1-.469-.469v-3.9a.47.47 0 0 1 .469-.469h2.582a.47.47 0 0 1 .469.469v3.9a.47.47 0 0 1-.473.469zm-2.113-.937h1.644V12.36h-1.644zm-2.716.937h-2.582a.47.47 0 0 1-.469-.469v-3.9a.47.47 0 0 1 .469-.469h2.582a.47.47 0 0 1 .469.469v3.9a.47.47 0 0 1-.469.469zm-2.113-.937h1.644V12.36h-1.644z"/></svg>