<svg xmlns="http://www.w3.org/2000/svg" width="45.6" height="45.6" fill="#4c74f5" xmlns:v="https://vecta.io/nano"><path d="M45.6 30.86c-.01-5.564-3.143-10.652-8.108-13.165a20.11 20.11 0 0 1-19.8 19.8c1.837 3.644 5.102 6.364 9.018 7.512a14.75 14.75 0 0 0 11.647-1.453l7.175 1.985-1.985-7.175a14.69 14.69 0 0 0 2.049-7.5zM34.823 17.412a17.41 17.41 0 0 0-11.51-16.378C16.408-1.454 8.685.655 4.002 6.307a17.41 17.41 0 0 0-1.588 19.955l-2.35 8.5 8.5-2.35c5.384 3.175 12.057 3.222 17.484.122s8.778-8.871 8.778-15.122zM14.74 13.359h-2.672c0-2.449 1.663-4.584 4.037-5.183s4.852.493 6.012 2.649.708 4.825-1.1 6.477l-2.27 2.078v2.084h-2.672V18.2l3.138-2.872c.557-.504.873-1.221.87-1.972a2.67 2.67 0 1 0-5.344 0zm1.336 10.776h2.672v2.672h-2.672zm0 0"/></svg>