<svg id="Group_10288" data-name="Group 10288" xmlns="http://www.w3.org/2000/svg" xmlns:xlink="http://www.w3.org/1999/xlink" width="427.592" height="425.5" viewBox="0 0 427.592 425.5">
  <defs>
    <clipPath id="clip-path">
      <rect id="Rectangle_2054" data-name="Rectangle 2054" width="427.592" height="425.5" fill="none"/>
    </clipPath>
    <clipPath id="clip-path-3">
      <rect id="Rectangle_2024" data-name="Rectangle 2024" width="22.877" height="14.108" fill="none"/>
    </clipPath>
    <clipPath id="clip-path-4">
      <rect id="Rectangle_2025" data-name="Rectangle 2025" width="42.369" height="29.017" fill="none"/>
    </clipPath>
    <clipPath id="clip-path-5">
      <rect id="Rectangle_2026" data-name="Rectangle 2026" width="41.713" height="24.006" fill="none"/>
    </clipPath>
    <clipPath id="clip-path-6">
      <rect id="Rectangle_2027" data-name="Rectangle 2027" width="83.73" height="19.24" fill="none"/>
    </clipPath>
    <clipPath id="clip-path-7">
      <rect id="Rectangle_2028" data-name="Rectangle 2028" width="71.955" height="2.464" fill="none"/>
    </clipPath>
    <clipPath id="clip-path-8">
      <rect id="Rectangle_2029" data-name="Rectangle 2029" width="71.956" height="2.467" fill="none"/>
    </clipPath>
    <clipPath id="clip-path-9">
      <rect id="Rectangle_2030" data-name="Rectangle 2030" width="71.956" height="2.464" fill="none"/>
    </clipPath>
    <clipPath id="clip-path-13">
      <rect id="Rectangle_2035" data-name="Rectangle 2035" width="22.777" height="91.845" fill="none"/>
    </clipPath>
    <clipPath id="clip-path-14">
      <rect id="Rectangle_2038" data-name="Rectangle 2038" width="65.489" height="24.174" fill="none"/>
    </clipPath>
    <clipPath id="clip-path-15">
      <rect id="Rectangle_2039" data-name="Rectangle 2039" width="102.096" height="20.653" fill="none"/>
    </clipPath>
    <clipPath id="clip-path-16">
      <rect id="Rectangle_2045" data-name="Rectangle 2045" width="225.431" height="30.291" fill="none"/>
    </clipPath>
    <clipPath id="clip-path-17">
      <rect id="Rectangle_2046" data-name="Rectangle 2046" width="391.53" height="108.169" fill="none"/>
    </clipPath>
    <clipPath id="clip-path-18">
      <rect id="Rectangle_2047" data-name="Rectangle 2047" width="325.559" height="53.31" fill="none"/>
    </clipPath>
  </defs>
  <g id="Group_10287" data-name="Group 10287" clip-path="url(#clip-path)">
    <rect id="Rectangle_2022" data-name="Rectangle 2022" width="3.928" height="117.309" transform="translate(132.783 19.362)" fill="#3965b8"/>
    <rect id="Rectangle_2023" data-name="Rectangle 2023" width="3.393" height="117.309" transform="translate(129.39 19.362)" fill="#3965b8"/>
    <path id="Path_4341" data-name="Path 4341" d="M90.5,62.237,46.721,37.622v29.75H90.5Z" transform="translate(86.059 69.3)" fill="#3965b8"/>
    <g id="Group_10286" data-name="Group 10286">
      <g id="Group_10285" data-name="Group 10285" clip-path="url(#clip-path)">
        <path id="Path_4342" data-name="Path 4342" d="M102.068,24.891H64.252V5.779A5.779,5.779,0,0,1,70.033,0H96.29a5.777,5.777,0,0,1,5.778,5.778Z" transform="translate(118.352 0.002)" fill="#4f4d73"/>
        <g id="Group_10239" data-name="Group 10239" transform="translate(182.604 1.532)" opacity="0.2" style="mix-blend-mode: overlay;isolation: isolate">
          <g id="Group_10238" data-name="Group 10238">
            <g id="Group_10237" data-name="Group 10237" clip-path="url(#clip-path-3)">
              <path id="Path_4343" data-name="Path 4343" d="M81.639,13.751C87.13,18.847,87.13.539,87.13.539H66.122a5.756,5.756,0,0,0-1.87,4.246V9.156c4.465.125,13.363.858,17.387,4.6" transform="translate(-64.252 -0.539)" fill="#fff"/>
            </g>
          </g>
        </g>
        <path id="Path_4344" data-name="Path 4344" d="M107.482,24.891H69.666V5.779A5.779,5.779,0,0,1,75.447,0H101.7a5.777,5.777,0,0,1,5.778,5.778Z" transform="translate(128.324 0.002)" fill="#595781"/>
        <path id="Path_4345" data-name="Path 4345" d="M104.377,23.9H70.569V4.617A4.076,4.076,0,0,1,74.644.539H100.3a4.076,4.076,0,0,1,4.075,4.078Z" transform="translate(129.987 0.993)" fill="#3a3a54"/>
        <path id="Path_4346" data-name="Path 4346" d="M84.812,4.413A2.683,2.683,0,1,1,82.129,1.73a2.684,2.684,0,0,1,2.683,2.683" transform="translate(146.339 3.187)" fill="#e7ecdf"/>
        <path id="Path_4347" data-name="Path 4347" d="M82.844,3.639A1.489,1.489,0,1,1,81.355,2.15a1.491,1.491,0,0,1,1.489,1.489" transform="translate(147.112 3.96)" fill="#b4b8ad"/>
        <path id="Path_4348" data-name="Path 4348" d="M118.865,49.354c0,22.483-7.568,40.709-13.948,40.709S93.37,71.837,93.37,49.354,98.54,8.648,104.917,8.648s13.948,18.229,13.948,40.706" transform="translate(171.987 15.93)" fill="#75bafc"/>
        <path id="Path_4349" data-name="Path 4349" d="M117.641,8.648H86.464V90.063h31.177c6.377,0,11.55-18.226,11.55-40.706s-5.172-40.709-11.55-40.709" transform="translate(159.266 15.93)" fill="#5796dc"/>
        <g id="Group_10242" data-name="Group 10242" transform="translate(245.729 27.826)" opacity="0.2" style="mix-blend-mode: overlay;isolation: isolate">
          <g id="Group_10241" data-name="Group 10241">
            <g id="Group_10240" data-name="Group 10240" clip-path="url(#clip-path-4)">
              <path id="Path_4350" data-name="Path 4350" d="M86.464,9.791V38.808a112.767,112.767,0,0,1,15.841-1.646h26.527c-.767-10.592-2.711-19.522-5.315-24.956-8.279.25-31.648.659-37.054-2.416" transform="translate(-86.463 -9.791)" fill="#fff"/>
            </g>
          </g>
        </g>
        <g id="Group_10245" data-name="Group 10245" transform="translate(245.729 81.986)" opacity="0.2" style="mix-blend-mode: overlay;isolation: isolate">
          <g id="Group_10244" data-name="Group 10244">
            <g id="Group_10243" data-name="Group 10243" clip-path="url(#clip-path-5)">
              <path id="Path_4351" data-name="Path 4351" d="M115.052,31.265H89.806L86.464,36.1V52.852h31.174c4.692,0,8.728-9.853,10.535-24a40.092,40.092,0,0,1-13.121,2.416" transform="translate(-86.463 -28.846)"/>
            </g>
          </g>
        </g>
        <path id="Path_4352" data-name="Path 4352" d="M105.5,49.354c0,22.483-5.17,40.709-11.55,40.709S82.4,71.837,82.4,49.354,87.57,8.648,93.947,8.648,105.5,26.877,105.5,49.354" transform="translate(151.78 15.93)" fill="#3965b8"/>
        <path id="Path_4353" data-name="Path 4353" d="M134.2,9.172H60.05V87.605H134.2c6.144,0,11.126-17.558,11.126-39.217S140.348,9.172,134.2,9.172" transform="translate(110.612 16.895)" fill="#4e89d1"/>
        <g id="Group_10248" data-name="Group 10248" transform="translate(170.66 85.263)" opacity="0.2" style="mix-blend-mode: overlay;isolation: isolate">
          <g id="Group_10247" data-name="Group 10247">
            <g id="Group_10246" data-name="Group 10246" clip-path="url(#clip-path-6)">
              <path id="Path_4354" data-name="Path 4354" d="M140.26,31.357H60.05V49.241H134.2c4.075,0,7.636-7.725,9.575-19.24a5.036,5.036,0,0,1-3.518,1.356" transform="translate(-60.048 -30.001)"/>
            </g>
          </g>
        </g>
        <g id="Group_10251" data-name="Group 10251" transform="translate(179.533 35.778)" opacity="0.2" style="mix-blend-mode: overlay;isolation: isolate">
          <g id="Group_10250" data-name="Group 10250">
            <g id="Group_10249" data-name="Group 10249" clip-path="url(#clip-path-7)">
              <path id="Path_4355" data-name="Path 4355" d="M132.8,15.053H65.5a2.33,2.33,0,0,1-2.33-2.33v-.134h71.954v.134a2.33,2.33,0,0,1-2.33,2.33" transform="translate(-63.171 -12.589)"/>
            </g>
          </g>
        </g>
        <g id="Group_10254" data-name="Group 10254" transform="translate(181.585 44.261)" opacity="0.2" style="mix-blend-mode: overlay;isolation: isolate">
          <g id="Group_10253" data-name="Group 10253">
            <g id="Group_10252" data-name="Group 10252" clip-path="url(#clip-path-8)">
              <path id="Path_4356" data-name="Path 4356" d="M133.517,18.039H66.224a2.33,2.33,0,0,1-2.33-2.33v-.134h71.954v.134a2.33,2.33,0,0,1-2.33,2.33" transform="translate(-63.893 -15.572)"/>
            </g>
          </g>
        </g>
        <g id="Group_10257" data-name="Group 10257" transform="translate(182.734 52.796)" opacity="0.2" style="mix-blend-mode: overlay;isolation: isolate">
          <g id="Group_10256" data-name="Group 10256">
            <g id="Group_10255" data-name="Group 10255" clip-path="url(#clip-path-9)">
              <path id="Path_4357" data-name="Path 4357" d="M133.921,21.041H66.628a2.33,2.33,0,0,1-2.33-2.33v-.134h71.954v.134a2.33,2.33,0,0,1-2.33,2.33" transform="translate(-64.297 -18.577)"/>
            </g>
          </g>
        </g>
        <g id="Group_10260" data-name="Group 10260" transform="translate(183.35 61.33)" opacity="0.2" style="mix-blend-mode: overlay;isolation: isolate">
          <g id="Group_10259" data-name="Group 10259">
            <g id="Group_10258" data-name="Group 10258" clip-path="url(#clip-path-7)">
              <path id="Path_4358" data-name="Path 4358" d="M134.138,24.044H66.845a2.33,2.33,0,0,1-2.33-2.33V21.58h71.954v.134a2.33,2.33,0,0,1-2.33,2.33" transform="translate(-64.514 -21.58)"/>
            </g>
          </g>
        </g>
        <g id="Group_10263" data-name="Group 10263" transform="translate(183.35 69.862)" opacity="0.2" style="mix-blend-mode: overlay;isolation: isolate">
          <g id="Group_10262" data-name="Group 10262">
            <g id="Group_10261" data-name="Group 10261" clip-path="url(#clip-path-7)">
              <path id="Path_4359" data-name="Path 4359" d="M134.138,27.046H66.845a2.33,2.33,0,0,1-2.33-2.33v-.134h71.954v.134a2.33,2.33,0,0,1-2.33,2.33" transform="translate(-64.514 -24.582)"/>
            </g>
          </g>
        </g>
        <g id="Group_10266" data-name="Group 10266" transform="translate(182.434 78.396)" opacity="0.2" style="mix-blend-mode: overlay;isolation: isolate">
          <g id="Group_10265" data-name="Group 10265">
            <g id="Group_10264" data-name="Group 10264" clip-path="url(#clip-path-9)">
              <path id="Path_4360" data-name="Path 4360" d="M133.816,30.049H66.523a2.33,2.33,0,0,1-2.33-2.33v-.134h71.954v.134a2.33,2.33,0,0,1-2.33,2.33" transform="translate(-64.192 -27.585)"/>
            </g>
          </g>
        </g>
        <path id="Path_4361" data-name="Path 4361" d="M135.881,15.005H64.305a1.543,1.543,0,0,1,0-3.086h71.576a1.543,1.543,0,0,1,0,3.086" transform="translate(115.607 21.955)" fill="#75bafc"/>
        <path id="Path_4362" data-name="Path 4362" d="M136.536,18.008H64.96a1.543,1.543,0,0,1,0-3.086h71.576a1.543,1.543,0,1,1,0,3.086" transform="translate(116.814 27.486)" fill="#75bafc"/>
        <path id="Path_4363" data-name="Path 4363" d="M136.94,21.011H65.364a1.543,1.543,0,0,1,0-3.086H136.94a1.543,1.543,0,1,1,0,3.086" transform="translate(117.558 33.018)" fill="#75bafc"/>
        <path id="Path_4364" data-name="Path 4364" d="M137.157,24.013H65.581a1.543,1.543,0,0,1,0-3.086h71.576a1.543,1.543,0,1,1,0,3.086" transform="translate(117.957 38.547)" fill="#75bafc"/>
        <path id="Path_4365" data-name="Path 4365" d="M137.157,27.016H65.581a1.543,1.543,0,0,1,0-3.086h71.576a1.543,1.543,0,1,1,0,3.086" transform="translate(117.957 44.079)" fill="#75bafc"/>
        <path id="Path_4366" data-name="Path 4366" d="M136.94,30.018H65.364a1.543,1.543,0,0,1,0-3.086H136.94a1.543,1.543,0,1,1,0,3.086" transform="translate(117.558 49.608)" fill="#75bafc"/>
        <path id="Path_4367" data-name="Path 4367" d="M136.536,33.021H64.96a1.543,1.543,0,0,1,0-3.086h71.576a1.543,1.543,0,1,1,0,3.086" transform="translate(116.814 55.14)" fill="#5796dc"/>
        <path id="Path_4368" data-name="Path 4368" d="M135.881,36.023H64.305a1.543,1.543,0,0,1,0-3.086h71.576a1.543,1.543,0,1,1,0,3.086" transform="translate(115.607 60.67)" fill="#5796dc"/>
        <rect id="Rectangle_2034" data-name="Rectangle 2034" width="60.577" height="2.274" transform="translate(178.918 24.89)" fill="#5796dc"/>
        <path id="Path_4369" data-name="Path 4369" d="M67.2,8.847H61v6.46c-3.123,7.156-5.189,19.567-5.189,33.68S57.874,75.512,61,82.668v6.46h6.2c6.289,0,11.388-17.97,11.388-40.14S73.485,8.847,67.2,8.847" transform="translate(102.798 16.296)" fill="#3965b8"/>
        <path id="Path_4370" data-name="Path 4370" d="M94.381,75.772a.405.405,0,0,1-.082-.009.358.358,0,0,1-.264-.429,117.069,117.069,0,0,0,2.689-26.07c0-19.746-4.112-36.9-9.566-39.9a.353.353,0,0,1-.142-.48.359.359,0,0,1,.483-.142c5.758,3.172,9.936,20.215,9.936,40.527A117.7,117.7,0,0,1,94.725,75.5a.352.352,0,0,1-.344.273" transform="translate(160.199 16.018)" fill="#96cefc"/>
        <path id="Path_4371" data-name="Path 4371" d="M103.793,41.753a.355.355,0,0,1-.355-.355c0-10.473-1.128-20.411-3.175-27.982a.355.355,0,0,1,.685-.185c2.063,7.631,3.2,17.635,3.2,28.167a.355.355,0,0,1-.355.355" transform="translate(184.661 23.886)" fill="#96cefc"/>
        <path id="Path_4372" data-name="Path 4372" d="M105.171,12.5H64.922a.355.355,0,0,1,0-.71h40.248a.355.355,0,1,1,0,.71" transform="translate(118.932 21.724)" fill="#96cefc"/>
        <path id="Path_4373" data-name="Path 4373" d="M105.875,15.507H65.629a.355.355,0,1,1,0-.71h40.245a.355.355,0,0,1,0,.71" transform="translate(120.234 27.256)" fill="#96cefc"/>
        <path id="Path_4374" data-name="Path 4374" d="M106.432,18.509H66.186a.355.355,0,1,1,0-.71h40.245a.355.355,0,1,1,0,.71" transform="translate(121.26 32.786)" fill="#96cefc"/>
        <path id="Path_4375" data-name="Path 4375" d="M106.726,21.512H66.48a.355.355,0,1,1,0-.71h40.245a.355.355,0,0,1,0,.71" transform="translate(121.802 38.317)" fill="#96cefc"/>
        <path id="Path_4376" data-name="Path 4376" d="M116.366,9.343H65.883a.355.355,0,1,1,0-.71h50.482a.355.355,0,0,1,0,.71" transform="translate(120.702 15.902)" fill="#96cefc"/>
        <path id="Path_4377" data-name="Path 4377" d="M85.767,24.515H66.481a.355.355,0,1,1,0-.711H85.767a.355.355,0,1,1,0,.711" transform="translate(121.803 43.849)" fill="#96cefc"/>
        <path id="Path_4378" data-name="Path 4378" d="M80.433,27.517H66.481a.355.355,0,1,1,0-.71H80.433a.355.355,0,1,1,0,.71" transform="translate(121.803 49.378)" fill="#96cefc"/>
        <path id="Path_4379" data-name="Path 4379" d="M76.4,52.734c0-20.536-4.38-37.466-10.024-39.842v-.009L53.626,6.813V98.66l12.755-6.073v-.006C72.025,90.2,76.4,73.276,76.4,52.734" transform="translate(98.779 12.549)" fill="#3d62ab"/>
        <g id="Group_10269" data-name="Group 10269" transform="translate(152.407 19.362)" opacity="0.2" style="mix-blend-mode: overlay;isolation: isolate">
          <g id="Group_10268" data-name="Group 10268">
            <g id="Group_10267" data-name="Group 10267" clip-path="url(#clip-path-13)">
              <path id="Path_4380" data-name="Path 4380" d="M65.95,67.077C63.7,64.372,56.483,20.742,54.275,7.12l-.648-.307V98.658l12.752-6.07v-.009c5.647-2.379,10.027-19.3,10.027-39.845,0-.4-.006-.787-.009-1.179C73.885,64.409,68.118,69.686,65.95,67.077" transform="translate(-53.626 -6.813)"/>
            </g>
          </g>
        </g>
        <path id="Path_4381" data-name="Path 4381" d="M66.2,53.681,54.309,55.588V16.008l11.888,1.9a5.261,5.261,0,0,1,4.428,5.2V48.489A5.258,5.258,0,0,1,66.2,53.681" transform="translate(100.037 29.487)" fill="#1d315b"/>
        <rect id="Rectangle_2036" data-name="Rectangle 2036" width="3.928" height="117.309" transform="translate(163.795 19.362)" fill="#5796dc"/>
        <rect id="Rectangle_2037" data-name="Rectangle 2037" width="3.393" height="117.309" transform="translate(160.402 19.362)" fill="#3965b8"/>
        <path id="Path_4382" data-name="Path 4382" d="M101.409,62.237,57.634,37.622v29.75h43.775Z" transform="translate(106.161 69.3)" fill="#5796dc"/>
        <path id="Path_4383" data-name="Path 4383" d="M73.886,111.325H50.593a4.844,4.844,0,0,1-4.846-4.846V8.954a4.846,4.846,0,0,1,4.846-4.846H73.886a4.846,4.846,0,0,1,4.846,4.846v97.526a4.844,4.844,0,0,1-4.846,4.846" transform="translate(84.266 7.567)" fill="#3a3a54"/>
        <path id="Path_4384" data-name="Path 4384" d="M71.708,111.325H48.415a4.844,4.844,0,0,1-4.846-4.846V8.954a4.846,4.846,0,0,1,4.846-4.846H71.708a4.846,4.846,0,0,1,4.846,4.846v97.526a4.844,4.844,0,0,1-4.846,4.846" transform="translate(80.254 7.567)" fill="#4f4d73"/>
        <path id="Path_4385" data-name="Path 4385" d="M69.29,82.173a.355.355,0,0,1-.355-.355V9.185a4.494,4.494,0,0,0-4.49-4.49H47.867a.355.355,0,0,1,0-.71H64.445a5.207,5.207,0,0,1,5.2,5.2V81.818a.355.355,0,0,1-.355.355" transform="translate(87.517 7.338)" fill="#8582b4"/>
        <path id="Path_4386" data-name="Path 4386" d="M112.85,4.649H92.217c-14.588,0-63.47,4.428-71.706,8.89V99.907c8.236,4.459,57.118,8.89,71.706,8.89H112.85a4.846,4.846,0,0,0,4.846-4.846V9.495a4.844,4.844,0,0,0-4.846-4.846" transform="translate(37.781 8.563)" fill="#3a3a54"/>
        <path id="Path_4387" data-name="Path 4387" d="M93.888,8.648h-13.9c-7.952,0-31.017,2.268-42.485,4.979a7.554,7.554,0,0,0-5.837,7.347V77.74A7.557,7.557,0,0,0,37.5,85.086c11.467,2.711,34.533,4.976,42.485,4.976h13.9a3.556,3.556,0,0,0,3.265-3.788V12.439a3.557,3.557,0,0,0-3.265-3.791" transform="translate(58.323 15.93)" fill="#4f4d73"/>
        <path id="Path_4388" data-name="Path 4388" d="M44.823,95.847H27.913a9.129,9.129,0,0,1-9.131-9.131V16.544a9.129,9.129,0,0,1,9.131-9.131h16.91a9.131,9.131,0,0,1,9.131,9.131V86.716a9.131,9.131,0,0,1-9.131,9.131" transform="translate(34.596 13.655)" fill="#3a3a54"/>
        <path id="Path_4389" data-name="Path 4389" d="M39.51,87.828H29.045A9.129,9.129,0,0,1,19.917,78.7V18.256a9.129,9.129,0,0,1,9.128-9.131H39.51a9.131,9.131,0,0,1,9.131,9.131V78.7a9.131,9.131,0,0,1-9.131,9.131" transform="translate(36.687 16.808)" fill="#313146"/>
        <path id="Path_4390" data-name="Path 4390" d="M20.147,67.343a.355.355,0,0,1-.355-.355v-48.5A9.5,9.5,0,0,1,29.279,9H39.74a9.5,9.5,0,0,1,9.487,9.487.355.355,0,0,1-.711,0A8.785,8.785,0,0,0,39.74,9.71H29.279A8.785,8.785,0,0,0,20.5,18.487v48.5a.355.355,0,0,1-.355.355" transform="translate(36.457 16.578)" fill="#8582b4"/>
        <g id="Group_10272" data-name="Group 10272" transform="translate(89.987 24.578)" opacity="0.2" style="mix-blend-mode: overlay;isolation: isolate">
          <g id="Group_10271" data-name="Group 10271">
            <g id="Group_10270" data-name="Group 10270" clip-path="url(#clip-path-14)">
              <path id="Path_4391" data-name="Path 4391" d="M97.152,24.756V12.436a3.556,3.556,0,0,0-3.265-3.788h-13.9c-7.949,0-31.017,2.265-42.485,4.976a7.554,7.554,0,0,0-5.835,7.347V32.822c16.722-4.286,48.365-6.9,65.488-8.066" transform="translate(-31.662 -8.648)" fill="#fff"/>
            </g>
          </g>
        </g>
        <g id="Group_10275" data-name="Group 10275" transform="translate(53.38 13.212)" opacity="0.2" style="mix-blend-mode: overlay;isolation: isolate">
          <g id="Group_10274" data-name="Group 10274">
            <g id="Group_10273" data-name="Group 10273" clip-path="url(#clip-path-15)">
              <path id="Path_4392" data-name="Path 4392" d="M116.033,4.649H95.4c-14.588,0-63.47,4.428-71.706,8.89v0a9.127,9.127,0,0,0-4.911,8.094V25.3c0-8.427,5.064-9.288,16.373-9.288s18.371.83,20.766,2.586c2.3,1.688,36.139-4.934,64.957-4.891V9.495a4.844,4.844,0,0,0-4.846-4.846" transform="translate(-18.782 -4.649)" fill="#fff"/>
            </g>
          </g>
        </g>
        <path id="Path_4393" data-name="Path 4393" d="M33.746,13.448a.355.355,0,0,1-.065-.7c10.683-2.006,36.895-5.707,49.826-6.508a.356.356,0,1,1,.045.71c-12.908.8-39.075,4.49-49.741,6.5l-.065.006" transform="translate(61.506 11.484)" fill="#8582b4"/>
        <path id="Path_4394" data-name="Path 4394" d="M59.744,2.956H41.066V8.7a81.237,81.237,0,0,0,11.82.81c2.39,0,4.692-.091,6.858-.256Z" transform="translate(75.643 5.445)" fill="#c9d2ed"/>
        <path id="Path_4395" data-name="Path 4395" d="M56.889,3.541H42.13a.355.355,0,0,1,0-.71H56.889a.355.355,0,1,1,0,.71" transform="translate(76.949 5.215)" fill="#e9ebf3"/>
        <path id="Path_4396" data-name="Path 4396" d="M37.269,143.573v28.008h3.888V135.826a75.306,75.306,0,0,1-3.888,7.747" transform="translate(68.649 250.19)" fill="#3d6dc7"/>
        <rect id="Rectangle_2040" data-name="Rectangle 2040" width="23.56" height="35.755" transform="translate(109.806 386.019)" fill="#3d6dc7"/>
        <rect id="Rectangle_2041" data-name="Rectangle 2041" width="39.001" height="3.726" transform="translate(100.143 421.774)" fill="#3d6dc7"/>
        <path id="Path_4397" data-name="Path 4397" d="M88.409,143.573v28.008H92.3V135.826a75.306,75.306,0,0,1-3.888,7.747" transform="translate(162.849 250.19)" fill="#3d6dc7"/>
        <rect id="Rectangle_2042" data-name="Rectangle 2042" width="23.56" height="35.755" transform="translate(255.145 386.019)" fill="#3d6dc7"/>
        <rect id="Rectangle_2043" data-name="Rectangle 2043" width="39.001" height="3.726" transform="translate(245.483 421.774)" fill="#3d6dc7"/>
        <path id="Path_4398" data-name="Path 4398" d="M43.359,49.168V86.29l1.316,2.694H67.053V49.168Zm16.9,35.155H50.16v-30.5H60.255Z" transform="translate(79.867 90.567)" fill="#3d6dc7"/>
        <path id="Path_4399" data-name="Path 4399" d="M43.822,88.984H67.516V49.168H43.822Zm16.893-4.661H50.62v-30.5H60.715Z" transform="translate(80.72 90.567)" fill="#3d6dc7"/>
        <path id="Path_4400" data-name="Path 4400" d="M93.513,49.168V86.29l1.313,2.694H117.2V49.168Zm16.893,35.155H100.311v-30.5h10.095Z" transform="translate(172.25 90.567)" fill="#3d6dc7"/>
        <path id="Path_4401" data-name="Path 4401" d="M93.975,88.984h23.694V49.168H93.975Zm16.893-4.661H100.773v-30.5h10.095Z" transform="translate(173.101 90.567)" fill="#3d6dc7"/>
        <rect id="Rectangle_2044" data-name="Rectangle 2044" width="167.544" height="3.061" transform="translate(123.226 136.671)" fill="#3d6dc7"/>
        <path id="Path_4402" data-name="Path 4402" d="M115.516,181.238c0-71.09,16.35-128.719,36.52-128.719s62.774,20.815,62.774,128.719c0,108.129-42.6,128.719-62.774,128.719s-36.52-57.63-36.52-128.719" transform="translate(212.779 96.74)" fill="#5796dc"/>
        <path id="Path_4403" data-name="Path 4403" d="M303.213,52.519H33.443V309.955h269.77c20.17,0,36.52-57.63,36.52-128.717s-16.35-128.719-36.52-128.719" transform="translate(61.602 96.74)" fill="#5796dc"/>
        <path id="Path_4404" data-name="Path 4404" d="M125.335,52.519h-7.187c20.17,0,36.52,57.63,36.52,128.719s-16.35,128.717-36.52,128.717h7.187c20.17,0,36.52-57.63,36.52-128.717s-16.35-128.719-36.52-128.719" transform="translate(217.627 96.74)" fill="#5ea2ee"/>
        <path id="Path_4405" data-name="Path 4405" d="M49.818,52.519H42.631c20.17,0,36.52,57.63,36.52,128.719S62.8,309.955,42.631,309.955h7.187c20.17,0,36.52-57.63,36.52-128.717S69.988,52.519,49.818,52.519" transform="translate(78.526 96.74)" fill="#5ea2ee"/>
        <path id="Path_4406" data-name="Path 4406" d="M66.76,227.607l-.048,0a.357.357,0,0,1-.3-.4,412.835,412.835,0,0,0,3.66-56.2c0-46.654-7.187-89.724-18.757-112.406a.355.355,0,0,1,.634-.321C63.56,81.045,70.779,124.24,70.779,171a413.772,413.772,0,0,1-3.666,56.3.357.357,0,0,1-.352.307" transform="translate(94.443 106.978)" fill="#96cefc"/>
        <path id="Path_4407" data-name="Path 4407" d="M142.276,227.607l-.048,0a.357.357,0,0,1-.3-.4,412.84,412.84,0,0,0,3.66-56.2c0-46.654-7.187-89.724-18.757-112.406a.355.355,0,0,1,.634-.321C139.076,81.045,146.294,124.24,146.294,171a413.8,413.8,0,0,1-3.666,56.3.357.357,0,0,1-.352.307" transform="translate(233.543 106.978)" fill="#96cefc"/>
        <g id="Group_10278" data-name="Group 10278" transform="translate(110.561 149.259)" opacity="0.2" style="mix-blend-mode: overlay;isolation: isolate">
          <g id="Group_10277" data-name="Group 10277">
            <g id="Group_10276" data-name="Group 10276" clip-path="url(#clip-path-16)">
              <path id="Path_4408" data-name="Path 4408" d="M97.888,82.807H264.116s2.9-18.481-12.471-30.287H38.9c23.162,0,50.619,18.456,58.986,30.287" transform="translate(-38.903 -52.517)"/>
            </g>
          </g>
        </g>
        <path id="Path_4409" data-name="Path 4409" d="M110.649,181.238c0,71.09-16.35,128.719-36.52,128.719S11.356,289.143,11.356,181.238c0-108.129,42.6-128.719,62.774-128.719s36.52,57.63,36.52,128.719" transform="translate(20.918 96.74)" fill="#5796dc"/>
        <g id="Group_10281" data-name="Group 10281" transform="translate(32.833 298.526)" opacity="0.2" style="mix-blend-mode: overlay;isolation: isolate">
          <g id="Group_10280" data-name="Group 10280">
            <g id="Group_10279" data-name="Group 10279" clip-path="url(#clip-path-17)">
              <path id="Path_4410" data-name="Path 4410" d="M364.881,145.258H120.154c-38.12,0-82.065-3.695-108.6-40.217,5.059,90.043,43.4,108.169,62.211,108.169h269.77c16.822,0,49.246-14.335,59.548-81.827a58.22,58.22,0,0,1-38.2,13.875" transform="translate(-11.553 -105.042)"/>
            </g>
          </g>
        </g>
        <path id="Path_4411" data-name="Path 4411" d="M67.663,162.128c0,54.8-12.6,99.234-28.156,99.234s-28.153-44.429-28.153-99.234,12.6-99.234,28.153-99.234,28.156,44.429,28.156,99.234" transform="translate(20.916 115.85)" fill="#3d6dc7"/>
        <path id="Path_4412" data-name="Path 4412" d="M51.968,223.867a.356.356,0,0,1-.347-.432c3.908-17.572,5.971-38.694,5.971-61.077,0-54.524-12.471-98.879-27.8-98.879-4.311,0-8.634,3.686-12.5,10.66a.354.354,0,1,1-.62-.344c4.056-7.318,8.469-11.027,13.121-11.027,7.693,0,14.884,10.413,20.249,29.324C55.37,110.864,58.3,135.82,58.3,162.358c0,22.435-2.072,43.608-5.988,61.231a.358.358,0,0,1-.347.279" transform="translate(30.631 115.62)" fill="#96cefc"/>
        <g id="Group_10284" data-name="Group 10284" transform="translate(88.479 186.918)" opacity="0.2" style="mix-blend-mode: overlay;isolation: isolate">
          <g id="Group_10283" data-name="Group 10283">
            <g id="Group_10282" data-name="Group 10282" clip-path="url(#clip-path-18)">
              <path id="Path_4413" data-name="Path 4413" d="M325.855,65.77H56.085c-6.653,0-15.747,2.242-24.953,9.128,1.322,4.84,2.524,10.072,3.592,15.642A35.058,35.058,0,0,0,69.1,119.08H343.512c25.072,0,11.695-53.31-17.657-53.31" transform="translate(-31.134 -65.771)" fill="#fff"/>
            </g>
          </g>
        </g>
        <path id="Path_4414" data-name="Path 4414" d="M28.067,80.755h-6.09v5.008c-4.539,7.918-7.662,24.4-7.662,43.465s3.123,35.545,7.662,43.463V177.7h6.09c7.594,0,13.752-21.7,13.752-48.47S35.661,80.755,28.067,80.755" transform="translate(26.368 148.75)" fill="#5796dc"/>
        <path id="Path_4415" data-name="Path 4415" d="M39.642,129.228c0,26.772-6.159,48.473-13.752,48.473S12.137,156,12.137,129.228s6.156-48.473,13.752-48.473,13.752,21.7,13.752,48.473" transform="translate(22.356 148.75)" fill="#5ea2ee"/>
        <path id="Path_4416" data-name="Path 4416" d="M36.118,156.756l-.065-.006a.357.357,0,0,1-.284-.415,147.151,147.151,0,0,0,2.313-26.877c0-26.533-6.011-48.118-13.4-48.118-4.422,0-8.708,8.347-11.189,21.784a.349.349,0,0,1-.412.284.355.355,0,0,1-.284-.415c2.583-14,7.028-22.364,11.885-22.364,7.909,0,14.108,21.449,14.108,48.828a147.782,147.782,0,0,1-2.325,27.007.358.358,0,0,1-.35.29" transform="translate(23.564 148.52)" fill="#96cefc"/>
        <path id="Path_4417" data-name="Path 4417" d="M59.195,49.168V86.29l1.313,2.694H82.889V49.168ZM76.088,84.323H65.993v-30.5H76.088Z" transform="translate(109.037 90.567)" fill="#3d6dc7"/>
        <path id="Path_4418" data-name="Path 4418" d="M59.657,88.984H83.351V49.168H59.657Zm16.9-4.661H66.458v-30.5H76.553Z" transform="translate(109.888 90.567)" fill="#5c9fe9"/>
        <path id="Path_4419" data-name="Path 4419" d="M109.348,49.168V86.29l1.316,2.694h22.378V49.168Zm16.893,35.155H116.146v-30.5h10.095Z" transform="translate(201.418 90.567)" fill="#3d6dc7"/>
        <path id="Path_4420" data-name="Path 4420" d="M109.811,88.984H133.5V49.168H109.811ZM126.7,84.323H116.609v-30.5H126.7Z" transform="translate(202.271 90.567)" fill="#5c9fe9"/>
        <rect id="Rectangle_2048" data-name="Rectangle 2048" width="166.228" height="3.061" transform="translate(169.547 136.671)" fill="#5c9fe9"/>
        <path id="Path_4421" data-name="Path 4421" d="M58.01,143.573v28.008H61.9V135.826a75.306,75.306,0,0,1-3.888,7.747" transform="translate(106.854 250.19)" fill="#3d6dc7"/>
        <rect id="Rectangle_2049" data-name="Rectangle 2049" width="23.56" height="35.755" transform="translate(168.752 386.019)" fill="#5fa3f1"/>
        <rect id="Rectangle_2050" data-name="Rectangle 2050" width="39.001" height="3.726" transform="translate(159.089 421.774)" fill="#3d6dc7"/>
        <path id="Path_4422" data-name="Path 4422" d="M109.15,143.573v28.008h3.888V135.826a75.3,75.3,0,0,1-3.888,7.747" transform="translate(201.053 250.19)" fill="#3d6dc7"/>
        <rect id="Rectangle_2051" data-name="Rectangle 2051" width="23.56" height="35.755" transform="translate(314.091 386.019)" fill="#5fa3f1"/>
        <rect id="Rectangle_2052" data-name="Rectangle 2052" width="39.001" height="3.726" transform="translate(304.428 421.774)" fill="#3d6dc7"/>
        <path id="Path_4423" data-name="Path 4423" d="M19.9,94.064H14.916v21.3H19.9c1.668,0,3.021-4.769,3.021-10.649S21.572,94.064,19.9,94.064" transform="translate(27.475 173.265)" fill="#c9d2ed"/>
        <path id="Path_4424" data-name="Path 4424" d="M19.9,104.713c0,5.88-1.353,10.649-3.021,10.649s-3.021-4.769-3.021-10.649,1.353-10.649,3.021-10.649S19.9,98.833,19.9,104.713" transform="translate(25.517 173.265)" fill="#96a4d2"/>
        <path id="Path_4425" data-name="Path 4425" d="M17.406,101.261c0,2.941-.676,5.323-1.512,5.323s-1.509-2.382-1.509-5.323.676-5.323,1.509-5.323,1.512,2.382,1.512,5.323" transform="translate(26.497 176.717)" fill="#1d315b"/>
        <path id="Path_4426" data-name="Path 4426" d="M209.905,48.675H60.49a.355.355,0,1,1,0-.71H209.905a.355.355,0,1,1,0,.71" transform="translate(110.768 88.351)" fill="#96cefc"/>
        <path id="Path_4427" data-name="Path 4427" d="M221.757,66.355H72.808a.355.355,0,0,1,0-.71H221.757a.355.355,0,1,1,0,.71" transform="translate(133.458 120.917)" fill="#96cefc"/>
        <path id="Path_4428" data-name="Path 4428" d="M59.608,164.6a.355.355,0,0,1-.355-.355v-28.19a.355.355,0,1,1,.71,0v28.19a.355.355,0,0,1-.355.355" transform="translate(109.143 249.96)" fill="#96cefc"/>
        <path id="Path_4429" data-name="Path 4429" d="M110.748,162.205a.355.355,0,0,1-.355-.355V136.056a.355.355,0,1,1,.711,0V161.85a.355.355,0,0,1-.355.355" transform="translate(203.343 249.96)" fill="#96cefc"/>
        <path id="Path_4430" data-name="Path 4430" d="M31.371,10.371H22.345V48.925h9.026c3.021,0,5.471-8.631,5.471-19.277s-2.45-19.277-5.471-19.277" transform="translate(41.159 19.103)" fill="#c9d2ed"/>
        <path id="Path_4431" data-name="Path 4431" d="M31.36,29.648c0,10.646-2.45,19.277-5.468,19.277s-5.471-8.631-5.471-19.277,2.45-19.277,5.471-19.277S31.36,19,31.36,29.648" transform="translate(37.615 19.103)" fill="#96a4d2"/>
        <path id="Path_4432" data-name="Path 4432" d="M26.312,37.337l-.045,0a.355.355,0,0,1-.307-.4,62.506,62.506,0,0,0,.477-7.861c0-7.9-1.393-15.063-3.464-17.825a.354.354,0,1,1,.566-.426c2.191,2.922,3.609,10.083,3.609,18.251a63.417,63.417,0,0,1-.483,7.952.355.355,0,0,1-.352.31" transform="translate(42.183 19.677)" fill="#e9ebf3"/>
        <path id="Path_4433" data-name="Path 4433" d="M31.518,12.158H17.365v28.4H31.518c2.225,0,4.03-6.358,4.03-14.2s-1.8-14.2-4.03-14.2" transform="translate(31.986 22.395)" fill="#c9d2ed"/>
        <path id="Path_4434" data-name="Path 4434" d="M24,26.357c0,7.841-1.8,14.2-4.027,14.2s-4.03-6.358-4.03-14.2,1.8-14.2,4.03-14.2S24,18.516,24,26.357" transform="translate(29.374 22.395)" fill="#96a4d2"/>
        <path id="Path_4435" data-name="Path 4435" d="M22.03,23.619c0,5.511-1.268,9.975-2.831,9.975s-2.831-4.465-2.831-9.975,1.268-9.975,2.831-9.975,2.831,4.465,2.831,9.975" transform="translate(30.152 25.132)" fill="#1d315b"/>
        <path id="Path_4436" data-name="Path 4436" d="M27.157,13.992H19.52a.355.355,0,0,1,0-.71h7.636a.355.355,0,0,1,0,.71" transform="translate(35.302 24.465)" fill="#e9ebf3"/>
        <path id="Path_4437" data-name="Path 4437" d="M29.624,26.731H24.636v21.3h4.988c1.668,0,3.021-4.769,3.021-10.649s-1.353-10.649-3.021-10.649" transform="translate(45.379 49.238)" fill="#c9d2ed"/>
        <path id="Path_4438" data-name="Path 4438" d="M29.616,37.38c0,5.88-1.353,10.649-3.021,10.649S23.574,43.26,23.574,37.38,24.927,26.731,26.6,26.731,29.616,31.5,29.616,37.38" transform="translate(43.423 49.238)" fill="#96a4d2"/>
        <path id="Path_4439" data-name="Path 4439" d="M27.126,33.928c0,2.941-.676,5.323-1.512,5.323S24.1,36.87,24.1,33.928s.676-5.323,1.509-5.323,1.512,2.382,1.512,5.323" transform="translate(44.401 52.69)" fill="#1d315b"/>
        <path id="Path_4440" data-name="Path 4440" d="M42.428,230.613H20.667A20.69,20.69,0,0,1,0,209.946V49.274A20.692,20.692,0,0,1,20.667,28.6H70.052V39.253H20.667A10.031,10.031,0,0,0,10.649,49.274V209.946a10.028,10.028,0,0,0,10.018,10.018H42.428Z" transform="translate(0 52.688)" fill="#c9d2ed"/>
        <path id="Path_4441" data-name="Path 4441" d="M27.139,33.928c0,2.941-.676,5.323-1.512,5.323s-1.509-2.382-1.509-5.323.676-5.323,1.509-5.323,1.512,2.382,1.512,5.323" transform="translate(44.425 52.69)" fill="#c9d2ed"/>
        <path id="Path_4442" data-name="Path 4442" d="M17.419,101.261c0,2.941-.676,5.323-1.512,5.323S14.4,104.2,14.4,101.261s.676-5.323,1.509-5.323,1.512,2.382,1.512,5.323" transform="translate(26.521 176.717)" fill="#c9d2ed"/>
        <path id="Path_4443" data-name="Path 4443" d="M1.277,140.335a.355.355,0,0,1-.355-.355V48.835A19.579,19.579,0,0,1,20.478,29.279H37.749a.355.355,0,1,1,0,.71H20.478A18.866,18.866,0,0,0,1.632,48.835V139.98a.355.355,0,0,1-.355.355" transform="translate(1.698 53.932)" fill="#e9ebf3"/>
      </g>
    </g>
  </g>
</svg>
