<svg xmlns="http://www.w3.org/2000/svg" width="44.163" height="34.699" viewBox="0 0 44.163 34.699">
  <g id="Group_1802" data-name="Group 1802" transform="translate(0 -59.013)">
    <g id="Group_1801" data-name="Group 1801" transform="translate(0 59.013)">
      <path id="Path_2378" data-name="Path 2378" d="M55.807,337.016a3.775,3.775,0,0,0,2.584-.975L45.879,323.528c-.3.215-.591.424-.866.623q-1.4,1.035-2.28,1.614a14.044,14.044,0,0,1-2.329,1.183,7.1,7.1,0,0,1-2.711.6h-.049a7.1,7.1,0,0,1-2.711-.6,14,14,0,0,1-2.329-1.183q-.875-.579-2.28-1.614c-.261-.191-.551-.4-.864-.626L16.946,336.041a3.776,3.776,0,0,0,2.585.975Z" transform="translate(-15.587 -302.316)" fill="#4c74f5"/>
      <path id="Path_2379" data-name="Path 2379" d="M2.489,200.7A13.066,13.066,0,0,1,0,198.555v19.037l11.028-11.028Q7.719,204.253,2.489,200.7Z" transform="translate(0 -187.367)" fill="#4c74f5"/>
      <path id="Path_2380" data-name="Path 2380" d="M421.868,200.7q-5.035,3.408-8.559,5.869l11.024,11.024V198.555A13.6,13.6,0,0,1,421.868,200.7Z" transform="translate(-380.17 -187.367)" fill="#4c74f5"/>
      <path id="Path_2381" data-name="Path 2381" d="M40.225,59.013H3.949a3.519,3.519,0,0,0-2.92,1.281A4.972,4.972,0,0,0,.006,63.5a5.759,5.759,0,0,0,1.355,3.364,12.227,12.227,0,0,0,2.883,2.846Q5.082,70.3,9.3,73.22c1.517,1.051,2.836,1.967,3.969,2.758.966.673,1.8,1.256,2.487,1.74l.368.262.68.49q.8.579,1.331.937t1.282.8a7.477,7.477,0,0,0,1.417.665,3.921,3.921,0,0,0,1.232.222h.049a3.923,3.923,0,0,0,1.232-.222,7.46,7.46,0,0,0,1.417-.665q.751-.444,1.282-.8t1.331-.937l.679-.489.369-.263,2.494-1.733q3.065-2.129,9.04-6.277a11.722,11.722,0,0,0,3.006-3.031,6.52,6.52,0,0,0,1.207-3.721,3.975,3.975,0,0,0-3.943-3.943Z" transform="translate(-0.006 -59.013)" fill="#4c74f5"/>
    </g>
  </g>
</svg>
