<svg xmlns="http://www.w3.org/2000/svg" id="Layer_1" data-name="Layer 1" viewBox="0 0 328.75 196.65"><defs><style>.cls-1{fill:#fff}</style></defs><path d="M43.2,82.17v28L56.48,92.54h8.59l-12,15.62,13.14,20.45H57.26L47.82,113.2l-4.62,5v10.44h-8V82.17Z" class="cls-1"/><path d="M88.57,99.92H80.41v18.39c0,3.41,1.7,4.9,4.4,4.9a8.82,8.82,0,0,0,3-.57l.71,4.9a13.51,13.51,0,0,1-6.6,1.64c-6.82,0-9.59-4-9.59-11.22V100.28l-4.33-1.14v-5l4.76-.35,2.06-8h5.54V94h8.16Z" class="cls-1"/><path d="M114.91,92.54h7.88v36.07h-7l-.35-3.41a13.12,13.12,0,0,1-9.94,4C98.16,129.25,94,124,94,115.61V92.54H102v23.14c0,4.76,2,7.25,6,7.25a8.49,8.49,0,0,0,6.89-3.41Z" class="cls-1"/><path d="M173,92.28V105h-2.91V92.28ZM172.8,88v2.55h-2.55V88Z" class="cls-1"/><path d="M179.15,105h-2.92V91.76h2.6l.11,1.27a4.64,4.64,0,0,1,3.61-1.51c2.73,0,4.21,1.9,4.21,5V105h-2.88V96.59c0-1.79-.76-2.68-2.21-2.68a3,3,0,0,0-2.52,1.28Z" class="cls-1"/><path d="M195.86,94.49h-2.93V105H190V94.49h-1.53V92.38H190v-.26c0-2.63,1.46-4.16,5.59-4.26l.13,2c-2.28.1-2.94.72-2.94,2.31v.26h3.07Z" class="cls-1"/><path d="M207.87,100.44c0,2.68-1.81,4.76-5.3,4.76s-5.28-2.08-5.28-4.76V96.33c0-2.68,1.8-4.81,5.28-4.81s5.3,2.08,5.3,4.81Zm-7.66-.13c0,1.74.78,2.7,2.36,2.7s2.39-1,2.39-2.7V96.44c0-1.72-.72-2.71-2.39-2.71s-2.36,1-2.36,2.71Z" class="cls-1"/><path d="M217.52,94.54a2.28,2.28,0,0,0-1.27-.34c-1.75,0-2.68,1.27-2.92,3.41V105h-2.91V91.76H213l.15,2.18c.78-1.72,1.87-2.39,3.25-2.39a3.33,3.33,0,0,1,1.48.34Z" class="cls-1"/><path d="M229.59,105H226.7V96.54c0-1.92-.75-2.63-1.87-2.63a2.43,2.43,0,0,0-2.16,1.54V105h-2.91V91.76h2.6v1.4a4.12,4.12,0,0,1,3.35-1.64,3.29,3.29,0,0,1,3.15,1.93,4.26,4.26,0,0,1,3.64-1.93c2.55,0,4,1.59,4,5V105h-2.88V96.54c0-1.69-.63-2.63-2-2.63-1.17,0-2,.76-2,2.63Z" class="cls-1"/><path d="M239.1,94.56a5.09,5.09,0,0,1,4.73-3.07c3.15,0,4.4,2,4.4,4.53v6.24a.87.87,0,0,0,.93,1h.34v1.66a5.16,5.16,0,0,1-1.35.21,2.53,2.53,0,0,1-2.37-1.2,4.72,4.72,0,0,1-3.4,1.28,3.43,3.43,0,0,1-3.72-3.64c0-2.32,1.38-4.27,5.77-4.27h.91V96c0-1.61-.65-2.29-1.92-2.29a2.91,2.91,0,0,0-2.55,1.82Zm6.24,7.62v-3h-.91c-2.29,0-3,.83-3,2.13s.62,1.85,1.66,1.85A2.78,2.78,0,0,0,245.34,102.18Z" class="cls-1"/><path d="M257.69,94.46h-3v6.73c0,1.25.63,1.8,1.61,1.8a3.27,3.27,0,0,0,1.12-.21l.26,1.79a4.9,4.9,0,0,1-2.42.6c-2.49,0-3.51-1.45-3.51-4.11V94.59l-1.58-.42V92.33l1.74-.13.75-2.94h2v3h3Z" class="cls-1"/><path d="M263.07,92.28V105h-2.91V92.28ZM262.89,88v2.55h-2.55V88Z" class="cls-1"/><path d="M269.34,88V98.2l4.86-6.44h3.15L273,97.48l4.81,7.48h-3.27L271,99.32l-1.69,1.82V105h-2.91V88Z" class="cls-1"/><path d="M289.18,100.44c0,2.68-1.82,4.76-5.31,4.76s-5.28-2.08-5.28-4.76V96.33c0-2.68,1.8-4.81,5.28-4.81s5.31,2.08,5.31,4.81Zm-7.67-.13c0,1.74.78,2.7,2.36,2.7s2.39-1,2.39-2.7V96.44c0-1.72-.72-2.71-2.39-2.71s-2.36,1-2.36,2.71Z" class="cls-1"/><path d="M298.43,95.21a2.5,2.5,0,0,0-2.52-1.61c-1.27,0-1.87.6-1.87,1.48,0,2.47,6.26,1.67,6.26,6.11,0,2.32-1.87,4-4.52,4a4.69,4.69,0,0,1-4.68-2.91l1.79-1a3.06,3.06,0,0,0,2.81,1.84c1.25,0,1.85-.59,1.85-1.69,0-2.62-6.27-1.74-6.27-6.13,0-2.11,1.59-3.8,4.53-3.8a4.43,4.43,0,0,1,4.39,2.86Z" class="cls-1"/><path d="M176.18,117.49h-2.94V128h-2.91V117.49H168.8v-2.11h1.53v-.26c0-2.63,1.46-4.16,5.59-4.26l.13,2c-2.29.1-2.94.72-2.94,2.31v.26h3.07Z" class="cls-1"/><path d="M177.9,117.56a5.08,5.08,0,0,1,4.73-3.07c3.15,0,4.39,2,4.39,4.53v6.24a.87.87,0,0,0,.94,1h.34v1.66a5.23,5.23,0,0,1-1.35.21,2.52,2.52,0,0,1-2.37-1.2,4.74,4.74,0,0,1-3.41,1.28,3.43,3.43,0,0,1-3.71-3.64c0-2.32,1.37-4.27,5.77-4.27h.91V119c0-1.61-.65-2.29-1.93-2.29a2.92,2.92,0,0,0-2.55,1.82Zm6.24,7.62v-3h-.91c-2.29,0-3,.83-3,2.13s.62,1.85,1.66,1.85A2.78,2.78,0,0,0,184.14,125.18Z" class="cls-1"/><path d="M193.19,111V121.2l4.86-6.45h3.14l-4.39,5.73,4.81,7.48h-3.28l-3.46-5.64-1.68,1.82V128h-2.92V111Z" class="cls-1"/><path d="M210.76,114.75h2.89V128h-2.58l-.13-1.24a4.81,4.81,0,0,1-3.64,1.48c-2.68,0-4.18-1.93-4.18-5v-8.46H206v8.48c0,1.74.73,2.65,2.21,2.65a3.11,3.11,0,0,0,2.52-1.24Z" class="cls-1"/><path d="M219.89,111v17H217V111Z" class="cls-1"/><path d="M229.64,117.46h-3v6.73c0,1.25.62,1.8,1.61,1.8a3.32,3.32,0,0,0,1.12-.21l.26,1.79a4.92,4.92,0,0,1-2.42.6c-2.5,0-3.51-1.45-3.51-4.11v-6.47l-1.59-.42v-1.84l1.74-.13.76-2.94h2v3h3Z" class="cls-1"/><path d="M234.34,121.72v1.54c0,1.79.86,2.73,2.5,2.73a2.51,2.51,0,0,0,2.55-1.95l2.08.78c-.76,2.26-2.29,3.38-4.92,3.38-3.3,0-5.12-2.06-5.12-4.84v-4c0-2.66,1.74-4.79,5.07-4.79a4.64,4.64,0,0,1,4.94,4.92v2.28Zm0-1.71h4.53v-.91a2.13,2.13,0,0,0-2.27-2.42c-1.56,0-2.26.91-2.26,2.47Z" class="cls-1"/><path d="M250.28,117.46h-3v6.73c0,1.25.62,1.8,1.61,1.8a3.27,3.27,0,0,0,1.12-.21l.26,1.79a4.92,4.92,0,0,1-2.42.6c-2.49,0-3.51-1.45-3.51-4.11v-6.47l-1.58-.42v-1.84l1.74-.13.75-2.94h2v3h3Z" class="cls-1"/><path d="M252.36,117.56a5.08,5.08,0,0,1,4.73-3.07c3.15,0,4.4,2,4.4,4.53v6.24a.87.87,0,0,0,.93,1h.34v1.66a5.16,5.16,0,0,1-1.35.21,2.53,2.53,0,0,1-2.37-1.2,4.72,4.72,0,0,1-3.4,1.28,3.43,3.43,0,0,1-3.72-3.64c0-2.32,1.37-4.27,5.77-4.27h.91V119c0-1.61-.65-2.29-1.92-2.29a2.91,2.91,0,0,0-2.55,1.82Zm6.24,7.62v-3h-.91c-2.29,0-3,.83-3,2.13s.62,1.85,1.66,1.85A2.78,2.78,0,0,0,258.6,125.18Z" class="cls-1"/><path d="M271.34,118.21a2.5,2.5,0,0,0-2.52-1.61c-1.28,0-1.87.6-1.87,1.48,0,2.47,6.26,1.67,6.26,6.11,0,2.32-1.87,4-4.52,4a4.68,4.68,0,0,1-4.68-2.91l1.79-1a3.05,3.05,0,0,0,2.81,1.84c1.25,0,1.85-.59,1.85-1.69,0-2.62-6.27-1.74-6.27-6.13,0-2.11,1.59-3.8,4.52-3.8a4.44,4.44,0,0,1,4.4,2.86Z" class="cls-1"/><path d="M7.9,17.26V179.39h142V17.26Zm7.8,7.8H142.13V171.58H15.7Z" class="cls-1"/><polyline points="34.77 140.64 300.31 140.64 300.31 136.74 34.77 136.74" class="cls-1"/><path d="M29.23,150v13.81h-3v-9.25H23.45v-2.06h1.16c1.57,0,2-.4,2.22-2.5Z" class="cls-1"/><path d="M35.4,161.57c1.35,0,2-.69,2-2.08v-1.6a3.51,3.51,0,0,1-2.28.7c-2.4,0-3.93-1.3-3.93-4.14s1.64-4.6,4.6-4.6a4.13,4.13,0,0,1,4.45,4.37v5.08A4.32,4.32,0,0,1,35.57,164a4.1,4.1,0,0,1-4.24-3L33.2,160A2.12,2.12,0,0,0,35.4,161.57Zm2-6.34v-1.16c0-1.21-.52-1.74-1.65-1.74s-1.68.61-1.68,2,.54,2,1.59,2C36.41,156.3,37.33,156,37.37,155.23Z" class="cls-1"/><path d="M50.52,153.65c0,4.69-4.83,5-5.56,7.77h5.58v2.37H41.77l-.05-1.26c.17-4.43,5.9-6,5.9-8.73,0-.92-.48-1.47-1.61-1.47s-1.81.74-2.12,2.08l-2.25-.76a4.67,4.67,0,0,1,4.62-3.78C49.26,149.87,50.52,151.66,50.52,153.65Z" class="cls-1"/><path d="M60.75,153.65c0,4.69-4.83,5-5.57,7.77h5.59v2.37H52l0-1.26c.17-4.43,5.9-6,5.9-8.73,0-.92-.48-1.47-1.62-1.47s-1.8.74-2.12,2.08l-2.24-.76a4.66,4.66,0,0,1,4.62-3.78C59.49,149.87,60.75,151.66,60.75,153.65Z" class="cls-1"/></svg>