<svg xmlns="http://www.w3.org/2000/svg" width="52.566" height="46.911" xmlns:v="https://vecta.io/nano"><path fill="#bb0642" d="M27.945 14.338l12.993-3.658a5.39 5.39 0 0 0 3.729-6.646l-.03-.1c-.387-1.376-1.305-2.541-2.551-3.24s-2.719-.874-4.095-.486l-13 3.655a5.39 5.39 0 0 0-3.726 6.649l.03.1a5.39 5.39 0 0 0 6.646 3.726"/><path fill="#e48aa9" d="M27.74 13.155l12.751-3.589c1.075-.302 1.985-1.019 2.531-1.992s.682-2.124.379-3.199l-.024-.081a4.2 4.2 0 0 0-5.191-2.91L25.435 4.97a4.21 4.21 0 0 0-2.911 5.191l.024.084c.302 1.075 1.018 1.985 1.992 2.531s2.124.683 3.199.38"/><path fill="#bb0642" d="M34.321 5.515a1.87 1.87 0 0 0 3.43.413 1.87 1.87 0 0 0-2.139-2.713 1.87 1.87 0 0 0-1.291 2.3"/><path fill="#e44178" d="M34.979 4.146c-.209.314-.218.675-.021.807s.526-.018.735-.332.218-.675.021-.807-.526.018-.735.332"/><path d="M30.389 6.819c.074.264.299.457.571.49s.537-.102.671-.34a.68.68 0 0 0-.058-.75c-.169-.215-.452-.307-.715-.233a.68.68 0 0 0-.469.834m-2.615 3.848c.102.365.413.632.789.678s.742-.14.928-.47.154-.739-.079-1.037-.624-.425-.989-.323c-.497.14-.787.655-.649 1.153m11.977-4.51c.183.651.86 1.03 1.511.847s1.031-.859.848-1.51-.858-1.031-1.51-.849c-.314.087-.579.296-.739.58a1.22 1.22 0 0 0-.11.932M23.51 8.754a1.31 1.31 0 0 0 1.613.904 1.31 1.31 0 1 0-1.495-1.898 1.31 1.31 0 0 0-.118.995" fill="#fff"/><g transform="matrix(.469 .883 -.883 .469 45.4 22.535)"><path fill="#bb0642" d="M4.411 9.2l8.333-2.35a3.46 3.46 0 0 0 2.392-4.262l-.019-.067c-.248-.882-.836-1.63-1.636-2.078S11.737-.118 10.855.13L2.52 2.474c-.883.249-1.63.838-2.078 1.638S-.119 5.856.13 6.739l.019.067c.247.883.835 1.631 1.635 2.08s1.744.562 2.627.314"/><path fill="#e48aa9" d="M4.281 8.436l8.178-2.3a2.7 2.7 0 0 0 1.866-3.331l-.015-.052A2.7 2.7 0 0 0 10.981.885l-8.178 2.3A2.7 2.7 0 0 0 .935 6.516l.015.054a2.7 2.7 0 0 0 3.331 1.866"/><path fill="#bb0642" d="M8.502 3.537a1.2 1.2 0 0 0 2.202.263A1.2 1.2 0 0 0 9.33 2.059a1.2 1.2 0 0 0-.828 1.478"/><path fill="#e44178" d="M8.919 2.661c-.134.2-.14.433-.013.518s.341-.012.476-.213.137-.433.013-.517-.337.011-.476.212"/><path d="M5.98 4.375c.047.169.192.293.366.314s.344-.066.43-.219.071-.343-.038-.481-.29-.197-.459-.149c-.23.066-.364.305-.3.535M4.306 6.843a.6.6 0 0 0 1.155-.324.6.6 0 1 0-1.156.324m7.681-2.889c.118.416.552.658.968.541s.66-.55.543-.967-.549-.661-.966-.545c-.202.056-.372.19-.475.372a.78.78 0 0 0-.07.599M1.57 5.615a.84.84 0 0 0 1.035.581.84.84 0 1 0-.958-1.219.84.84 0 0 0-.076.638" fill="#fff"/></g><path fill="#bb0642" d="M3.54 34.71l16.488 10.893a7.89 7.89 0 0 0 10.932-2.231l.088-.135c1.153-1.745 1.565-3.877 1.146-5.927s-1.635-3.848-3.381-5.001L12.324 21.418c-1.745-1.153-3.876-1.566-5.926-1.148s-3.848 1.634-5.001 3.379l-.088.136C.156 25.53-.257 27.662.161 29.711s1.634 3.849 3.379 5.002"/><path fill="#e48aa9" d="M4.655 33.352l16.177 10.691a6.17 6.17 0 0 0 8.539-1.745l.066-.1c.902-1.362 1.225-3.027.898-4.628s-1.276-3.006-2.639-3.907L11.514 22.972c-2.839-1.874-6.659-1.093-8.535 1.745l-.07.1c-1.874 2.839-1.093 6.659 1.745 8.535"/><path fill="#bb0642" d="M19.416 33.334c-.61.923-.603 2.122.016 3.038s1.729 1.369 2.813 1.148 1.927-1.074 2.137-2.159-.255-2.191-1.177-2.801c-1.26-.832-2.955-.485-3.788.774"/><path fill="#e44178" d="M21.559 32.741c-.547.07-.958.407-.914.748s.525.569 1.072.5.958-.407.914-.752-.525-.564-1.072-.494"/><path d="M14.21 30.218c-.302.457-.176 1.073.281 1.375s1.073.177 1.376-.28.178-1.073-.278-1.376a1 1 0 0 0-1.378.28m-6.769.795a1.37 1.37 0 0 0 2.288 1.507 1.37 1.37 0 1 0-2.288-1.507m16.46 8.948c-.546.826-.319 1.938.507 2.484s1.938.319 2.484-.507.319-1.938-.507-2.484c-.397-.262-.881-.356-1.348-.261a1.79 1.79 0 0 0-1.137.768M5.482 24.453c-.428.646-.424 1.486.01 2.129s1.211.96 1.971.805 1.35-.753 1.497-1.513-.179-1.535-.826-1.962a1.91 1.91 0 0 0-2.651.542" fill="#fff"/></svg>