<svg xmlns="http://www.w3.org/2000/svg" xmlns:v="https://vecta.io/nano" xmlns:xlink="http://www.w3.org/1999/xlink" viewBox="0 0 157 58.47"><style>.A{isolation:isolate}</style><path fill="#091a5a" d="M.91.35h4.7v16.48h10.18v3.83H.91V.35zm33.24 16.53v3.77H18.43V.35h15.34v3.77H23.1v4.41h9.43v3.66H23.1v4.7h11.05zm17.39-6.7h4.29v8.24C53.6 20.1 50.52 21 47.62 21c-6.38 0-11.08-4.38-11.08-10.5S41.25 0 47.72 0c3.57 0 6.53 1.22 8.5 3.51L53.2 6.3c-1.48-1.57-3.19-2.29-5.25-2.29-3.94 0-6.64 2.64-6.64 6.5s2.7 6.5 6.58 6.5c1.28 0 2.47-.23 3.65-.87v-5.95zM60.18.35h4.7v20.3h-4.7V.35zm8.24 10.15c0-6.03 4.7-10.5 11.11-10.5s11.11 4.44 11.11 10.5S85.91 21 79.53 21s-11.11-4.47-11.11-10.5zm17.46 0c0-3.86-2.73-6.5-6.35-6.5s-6.35 2.64-6.35 6.5 2.73 6.5 6.35 6.5 6.35-2.64 6.35-6.5zM112.79.35v20.3h-3.86L98.81 8.32v12.33h-4.64V.35h3.89l10.1 12.33V.35h4.64zm18.18 15.95h-9.43l-1.8 4.35h-4.82l9.06-20.3h4.64l9.08 20.3h-4.93l-1.8-4.35zm-1.48-3.57l-3.22-7.77-3.22 7.77h6.44zm8.73 5.92l1.6-3.54c1.71 1.25 4.26 2.12 6.7 2.12 2.78 0 3.92-.93 3.92-2.18 0-3.8-11.81-1.19-11.81-8.73 0-3.45 2.79-6.32 8.56-6.32 2.55 0 5.16.61 7.05 1.8l-1.45 3.57c-1.89-1.07-3.83-1.59-5.63-1.59-2.79 0-3.86 1.04-3.86 2.32 0 3.74 11.81 1.16 11.81 8.62 0 3.39-2.81 6.29-8.62 6.29-3.22 0-6.47-.96-8.27-2.35z" class="A"/><g fill="#bb0642" class="A"><path d="m14.55,45.76h1.33v11.45h7.06v1.15h-8.39v-12.6Z"/><use xlink:href="#B"/><path d="M48.84 52.06h1.28v4.81c-1.19 1.06-2.88 1.6-4.63 1.6-3.83 0-6.64-2.72-6.64-6.41s2.81-6.41 6.66-6.41c1.91 0 3.57.61 4.68 1.82l-.83.85c-1.06-1.04-2.32-1.48-3.8-1.48-3.11 0-5.4 2.21-5.4 5.22s2.29 5.22 5.38 5.22c1.21 0 2.32-.27 3.29-.97v-4.25zm6.46-6.3h1.33v12.6H55.3v-12.6zm5.75 6.3c0-3.67 2.81-6.41 6.63-6.41s6.61 2.72 6.61 6.41-2.83 6.41-6.61 6.41-6.63-2.74-6.63-6.41zm11.9 0c0-3.01-2.25-5.22-5.28-5.22s-5.31 2.21-5.31 5.22 2.27 5.22 5.31 5.22 5.28-2.21 5.28-5.22zm16.27-6.3v12.6h-1.1l-8.1-10.23v10.23h-1.33v-12.6h1.1l8.12 10.23V45.76h1.31z"/><use x="68.16" xlink:href="#B"/><path d="m108.21,45.76h1.33v11.45h7.06v1.15h-8.39v-12.6Z"/><use x="93.65" xlink:href="#B"/><path d="m132.49,56.83l.52-1.03c.9.88,2.5,1.53,4.16,1.53,2.36,0,3.38-.99,3.38-2.23,0-3.46-7.76-1.33-7.76-6,0-1.85,1.44-3.46,4.65-3.46,1.42,0,2.9.41,3.91,1.12l-.45,1.06c-1.08-.7-2.34-1.04-3.46-1.04-2.3,0-3.33,1.03-3.33,2.29,0,3.46,7.76,1.37,7.76,5.96,0,1.85-1.48,3.44-4.7,3.44-1.89,0-3.74-.67-4.68-1.64Z"/></g><path fill="#091a5a" d="M0 33.05h54.5v1H0zm102.5 0H157v1h-54.5z"/><path fill="#091a5a" d="M72.82 34.42c0 1.6-1.12 2.68-2.62 2.68-.84 0-1.56-.36-2-1.04v2.93h-.71v-7.2h.68v1.04c.43-.7 1.16-1.08 2.03-1.08 1.5 0 2.62 1.08 2.62 2.67zm-.71 0c0-1.22-.85-2.05-1.96-2.05s-1.96.83-1.96 2.05.84 2.05 1.96 2.05 1.96-.82 1.96-2.05zm4.81-2.67v.69h-.17c-1.1 0-1.77.7-1.77 1.94v2.68h-.71V31.8h.68v1.03c.33-.7 1-1.07 1.97-1.07zm1.12-1.61c0-.27.23-.5.52-.5s.52.22.52.49a.51.51 0 0 1-.52.52c-.3 0-.52-.23-.52-.51zm.16 1.66h.71v5.26h-.71V31.8zm7.27 2.84h-4.4c.08 1.1.92 1.83 2.07 1.83.64 0 1.21-.23 1.61-.69l.4.46c-.47.56-1.2.86-2.03.86-1.64 0-2.76-1.12-2.76-2.68s1.09-2.67 2.57-2.67 2.55 1.09 2.55 2.67v.22zm-4.4-.53h3.73c-.09-1.03-.84-1.75-1.87-1.75s-1.77.72-1.86 1.75zm9.44 1.49c0 .91-.8 1.5-2.17 1.5-.87 0-1.71-.28-2.14-.65l.32-.56c.42.33 1.13.59 1.87.59 1 0 1.41-.34 1.41-.86 0-1.37-3.41-.29-3.41-2.37 0-.86.74-1.5 2.08-1.5.68 0 1.42.19 1.86.49l-.31.57c-.46-.32-1.01-.45-1.55-.45-.95 0-1.37.37-1.37.87 0 1.42 3.41.35 3.41 2.37zm-2.5-4.62l-1.29-1.24h.66l.99.82.99-.82h.66l-1.29 1.24h-.72z" class="A"/><defs><path id="B" d="m35.49,57.21v1.15h-8.91v-12.6h8.64v1.15h-7.31v4.48h6.52v1.13h-6.52v4.68h7.58Z"/></defs></svg>