<svg xmlns="http://www.w3.org/2000/svg" id="Layer_1" viewBox="0 0 157 58.47"><defs><style>.cls-1{fill:#bb0642}.cls-1,.cls-2{stroke-width:0}.cls-3{isolation:isolate}.cls-2{fill:#091a5a}</style></defs><g id="Legionas" class="cls-3"><g class="cls-3"><path d="m.91.35h4.7v16.48h10.18v3.83H.91V.35Z" class="cls-2"/><path d="m34.15,16.88v3.77h-15.72V.35h15.34v3.77h-10.67v4.41h9.43v3.66h-9.43v4.7h11.05Z" class="cls-2"/><path d="m51.54,10.18h4.29v8.24c-2.23,1.68-5.31,2.58-8.21,2.58-6.38,0-11.08-4.38-11.08-10.5S41.25,0,47.72,0c3.57,0,6.53,1.22,8.5,3.51l-3.02,2.79c-1.48-1.57-3.19-2.29-5.25-2.29-3.94,0-6.64,2.64-6.64,6.5s2.7,6.5,6.58,6.5c1.28,0,2.47-.23,3.65-.87v-5.95Z" class="cls-2"/><path d="m60.18.35h4.7v20.3h-4.7V.35Z" class="cls-2"/><path d="m68.42,10.5c0-6.03,4.7-10.5,11.11-10.5s11.11,4.44,11.11,10.5-4.73,10.5-11.11,10.5-11.11-4.47-11.11-10.5Zm17.46,0c0-3.86-2.73-6.5-6.35-6.5s-6.35,2.64-6.35,6.5,2.73,6.5,6.35,6.5,6.35-2.64,6.35-6.5Z" class="cls-2"/><path d="m112.79.35v20.3h-3.86l-10.12-12.33v12.33h-4.64V.35h3.89l10.1,12.33V.35h4.64Z" class="cls-2"/><path d="m130.97,16.3h-9.43l-1.8,4.35h-4.82L123.98.35h4.64l9.08,20.3h-4.93l-1.8-4.35Zm-1.48-3.57l-3.22-7.77-3.22,7.77h6.44Z" class="cls-2"/><path d="m138.22,18.65l1.6-3.54c1.71,1.25,4.26,2.12,6.7,2.12,2.78,0,3.92-.93,3.92-2.18,0-3.8-11.81-1.19-11.81-8.73,0-3.45,2.79-6.32,8.56-6.32,2.55,0,5.16.61,7.05,1.8l-1.45,3.57c-1.89-1.07-3.83-1.59-5.63-1.59-2.79,0-3.86,1.04-3.86,2.32,0,3.74,11.81,1.16,11.81,8.62,0,3.39-2.81,6.29-8.62,6.29-3.22,0-6.47-.96-8.27-2.35Z" class="cls-2"/></g></g><g id="legioneles" class="cls-3"><g class="cls-3"><path d="m14.55,45.76h1.33v11.45h7.06v1.15h-8.39v-12.6Z" class="cls-1"/><path d="m35.49,57.21v1.15h-8.91v-12.6h8.64v1.15h-7.31v4.48h6.52v1.13h-6.52v4.68h7.58Z" class="cls-1"/><path d="m48.84,52.06h1.28v4.81c-1.19,1.06-2.88,1.6-4.63,1.6-3.83,0-6.64-2.72-6.64-6.41s2.81-6.41,6.66-6.41c1.91,0,3.57.61,4.68,1.82l-.83.85c-1.06-1.04-2.32-1.48-3.8-1.48-3.11,0-5.4,2.21-5.4,5.22s2.29,5.22,5.38,5.22c1.21,0,2.32-.27,3.29-.97v-4.25Z" class="cls-1"/><path d="m55.3,45.76h1.33v12.6h-1.33v-12.6Z" class="cls-1"/><path d="m61.05,52.06c0-3.67,2.81-6.41,6.63-6.41s6.61,2.72,6.61,6.41-2.83,6.41-6.61,6.41-6.63-2.74-6.63-6.41Zm11.9,0c0-3.01-2.25-5.22-5.28-5.22s-5.31,2.21-5.31,5.22,2.27,5.22,5.31,5.22,5.28-2.21,5.28-5.22Z" class="cls-1"/><path d="m89.22,45.76v12.6h-1.1l-8.1-10.23v10.23h-1.33v-12.6h1.1l8.12,10.23v-10.23h1.31Z" class="cls-1"/><path d="m103.65,57.21v1.15h-8.91v-12.6h8.64v1.15h-7.31v4.48h6.52v1.13h-6.52v4.68h7.58Z" class="cls-1"/><path d="m108.21,45.76h1.33v11.45h7.06v1.15h-8.39v-12.6Z" class="cls-1"/><path d="m129.14,57.21v1.15h-8.91v-12.6h8.64v1.15h-7.31v4.48h6.52v1.13h-6.52v4.68h7.58Z" class="cls-1"/><path d="m132.49,56.83l.52-1.03c.9.88,2.5,1.53,4.16,1.53,2.36,0,3.38-.99,3.38-2.23,0-3.46-7.76-1.33-7.76-6,0-1.85,1.44-3.46,4.65-3.46,1.42,0,2.9.41,3.91,1.12l-.45,1.06c-1.08-.7-2.34-1.04-3.46-1.04-2.3,0-3.33,1.03-3.33,2.29,0,3.46,7.76,1.37,7.76,5.96,0,1.85-1.48,3.44-4.7,3.44-1.89,0-3.74-.67-4.68-1.64Z" class="cls-1"/></g></g><rect width="54.5" height="1" y="33.05" class="cls-2"/><rect width="54.5" height="1" x="102.5" y="33.05" class="cls-2"/><g id="prieš" class="cls-3"><g class="cls-3"><path d="m72.82,34.42c0,1.6-1.12,2.68-2.62,2.68-.84,0-1.56-.36-2-1.04v2.93h-.71v-7.2h.68v1.04c.43-.7,1.16-1.08,2.03-1.08,1.5,0,2.62,1.08,2.62,2.67Zm-.71,0c0-1.22-.85-2.05-1.96-2.05s-1.96.83-1.96,2.05.84,2.05,1.96,2.05,1.96-.82,1.96-2.05Z" class="cls-2"/><path d="m76.92,31.75v.69c-.06,0-.12,0-.17,0-1.1,0-1.77.7-1.77,1.94v2.68h-.71v-5.26h.68v1.03c.33-.7,1-1.07,1.97-1.07Z" class="cls-2"/><path d="m78.04,30.14c0-.27.23-.5.52-.5s.52.22.52.49c0,.29-.22.52-.52.52s-.52-.23-.52-.51Zm.16,1.66h.71v5.26h-.71v-5.26Z" class="cls-2"/><path d="m85.47,34.64h-4.4c.08,1.1.92,1.83,2.07,1.83.64,0,1.21-.23,1.61-.69l.4.46c-.47.56-1.2.86-2.03.86-1.64,0-2.76-1.12-2.76-2.68s1.09-2.67,2.57-2.67,2.55,1.09,2.55,2.67c0,.06,0,.14,0,.22Zm-4.4-.53h3.73c-.09-1.03-.84-1.75-1.87-1.75s-1.77.72-1.86,1.75Z" class="cls-2"/><path d="m90.51,35.6c0,.91-.8,1.5-2.17,1.5-.87,0-1.71-.28-2.14-.65l.32-.56c.42.33,1.13.59,1.87.59,1,0,1.41-.34,1.41-.86,0-1.37-3.41-.29-3.41-2.37,0-.86.74-1.5,2.08-1.5.68,0,1.42.19,1.86.49l-.31.57c-.46-.32-1.01-.45-1.55-.45-.95,0-1.37.37-1.37.87,0,1.42,3.41.35,3.41,2.37Zm-2.5-4.62l-1.29-1.24h.66l.99.82.99-.82h.66l-1.29,1.24h-.72Z" class="cls-2"/></g></g></svg>