<svg xmlns="http://www.w3.org/2000/svg" xmlns:svg="http://www.w3.org/2000/svg" id="svg2" width="24" height="24" fill="#4c74f5" version="1.1"><path id="path1" d="m 24,16.688 v -3.75 C 23.997,10.092 21.69,7.785 18.844,7.782 H 14.675 C 14.201525,7.2552206 13.604174,6.8548102 12.937,6.617 v -2.4 c 0.177297,-0.133141 0.334859,-0.2907033 0.468,-0.468 h 3.282 c 0.777,0 1.406,-0.629 1.406,-1.406 0,-0.777 -0.629,-1.406 -1.406,-1.406 h -3.282 c -0.935885,-1.25156084 -2.812115,-1.25156084 -3.748,0 H 6.375 c -0.7759909,0.001648 -1.4048004,0.6300104 -1.407,1.406 0.00165,0.7763801 0.6306199,1.4053499 1.407,1.407 h 3.282 c 0.133141,0.1772967 0.2907033,0.334859 0.468,0.468 v 2.4 C 9.4580351,6.8552398 8.8607044,7.2549496 8.387,7.781 H 3.75 V 7.312 C 3.7478028,6.5363996 3.1196004,5.9081972 2.344,5.906 H 0.469 C 0.3445607,5.9059151 0.22516656,5.9551831 0.137,6.043 0.04918312,6.1311666 -8.4943956e-5,6.2505607 0,6.375 v 8.438 c 5.5004091e-4,0.258793 0.21020663,0.46845 0.469,0.469 H 2.344 C 3.1199896,15.2798 3.7483521,14.650991 3.75,13.875 v -0.469 h 4.637 c 1.677427,1.874211 4.611573,1.874211 6.289,0 h 3.23 c 0.258793,5.5e-4 0.46845,0.210207 0.469,0.469 v 2.813 c 0,0.124 0.05,0.242 0.138,0.33 0.08779,0.08742 0.207124,0.135729 0.331,0.134 h 1.444 c -0.724,1.073 -1.913,3 -1.913,4.036 0,1.553 1.259,2.813 2.813,2.813 1.554,0 2.812,-1.26 2.812,-2.813 0,-1.038 -1.189,-2.958 -1.913,-4.031 h 1.444 C 23.789793,17.15645 23.99945,16.946793 24,16.688 Z M 13.827,1.875 h 2.86 c 0.36058,0.00123 0.585526,0.3912864 0.406,0.704 -0.08403,0.1447149 -0.23866,0.2338387 -0.406,0.234 h -2.86 c 0.06359,-0.3094338 0.06359,-0.6285662 0,-0.938 z M 9.235,2.813 h -2.86 c -0.6279997,0 -0.6279997,-0.942 0,-0.942 h 2.86 c -0.031681,0.1556794 -0.047761,0.3141299 -0.048,0.473 0,0.158 0.016,0.315 0.048,0.469 z M 2.813,13.875 c -5.5e-4,0.258793 -0.2102066,0.46845 -0.469,0.469 H 0.938 v -7.5 h 1.406 c 0.2587934,5.5e-4 0.46845,0.2102066 0.469,0.469 z M 11.531,0.938 c 0.777,0 1.406,0.629 1.406,1.406 0,0.777 -0.629,1.406 -1.406,1.406 -0.777,0 -1.406,-0.629 -1.406,-1.406 0,-0.777 0.63,-1.405 1.406,-1.406 z M 12,4.64 V 6.4 c -0.311392,-0.034292 -0.625608,-0.034292 -0.937,0 V 4.64 c 0.309111,0.06345 0.627889,0.06345 0.937,0 z m 11.063,16.548 c 0,1.036 -0.839,1.875 -1.875,1.875 -1.036,0 -1.875,-0.839 -1.875,-1.875 0,-0.718 1.032,-2.459 1.875,-3.688 0.842,1.228 1.875,2.969 1.875,3.688 z m 0,-4.969 h -3.75 v -2.344 c -0.0022,-0.7756 -0.6304,-1.403803 -1.406,-1.406 h -3.448 c -0.142359,2.1e-4 -0.27695,0.06493 -0.366,0.176 -1.313072,1.641751 -3.809928,1.641751 -5.123,0 -0.08905,-0.111068 -0.2236415,-0.17579 -0.366,-0.176 H 3.75 V 8.719 H 8.6 c 0.1423585,-2.101e-4 0.2769502,-0.064932 0.366,-0.176 1.313072,-1.6417509 3.809928,-1.6417509 5.123,0 0.08905,0.1110682 0.223641,0.1757899 0.366,0.176 h 4.385 c 2.329,0.003 4.216,1.89 4.219,4.219 z"/></svg>