<svg xmlns="http://www.w3.org/2000/svg" width="24" height="24" fill="#4c74f5" xmlns:v="https://vecta.io/nano"><path d="M.469 0a.47.47 0 0 0-.433.29.47.47 0 0 0 .102.511.47.47 0 0 0 .801-.332A.47.47 0 0 0 .469 0zM24 16.688v-3.75c-.003-2.846-2.31-5.153-5.156-5.156h-4.169a4.26 4.26 0 0 0-1.738-1.165v-2.4a2.35 2.35 0 0 0 .468-.468h3.282c.777 0 1.406-.629 1.406-1.406S17.464.937 16.687.937h-3.282a2.34 2.34 0 0 0-3.748 0H6.375a1.41 1.41 0 0 0-1.407 1.406A1.41 1.41 0 0 0 6.375 3.75h3.282a2.35 2.35 0 0 0 .468.468v2.4a4.26 4.26 0 0 0-1.738 1.163H3.75v-.469a1.41 1.41 0 0 0-1.406-1.406H.469a.47.47 0 0 0-.332.137.47.47 0 0 0-.137.332v8.438a.47.47 0 0 0 .469.469h1.875a1.41 1.41 0 0 0 1.406-1.407v-.469h4.637a4.22 4.22 0 0 0 6.289 0h3.23a.47.47 0 0 1 .469.469v2.813c0 .124.05.242.138.33a.46.46 0 0 0 .331.134h1.444c-.724 1.073-1.913 3-1.913 4.036 0 1.553 1.259 2.813 2.813 2.813S24 22.741 24 21.188c0-1.038-1.189-2.958-1.913-4.031h1.444a.47.47 0 0 0 .469-.469zM13.827 1.875h2.86a.47.47 0 0 1 .406.704.47.47 0 0 1-.406.234h-2.86a2.33 2.33 0 0 0 0-.938zm-4.592.938h-2.86a.471.471 0 1 1 0-.942h2.86a2.39 2.39 0 0 0-.048.473c0 .158.016.315.048.469zM2.813 13.875a.47.47 0 0 1-.469.469H.938v-7.5h1.406a.47.47 0 0 1 .469.469zM11.531.938c.777 0 1.406.629 1.406 1.406s-.629 1.406-1.406 1.406-1.406-.629-1.406-1.406.63-1.405 1.406-1.406zM12 4.64V6.4a4.28 4.28 0 0 0-.937 0V4.64a2.33 2.33 0 0 0 .937 0zm11.063 16.548c0 1.036-.839 1.875-1.875 1.875s-1.875-.839-1.875-1.875c0-.718 1.032-2.459 1.875-3.688.842 1.228 1.875 2.969 1.875 3.688zm0-4.969h-3.75v-2.344a1.41 1.41 0 0 0-1.406-1.406h-3.448a.47.47 0 0 0-.366.176 3.28 3.28 0 0 1-5.123 0 .47.47 0 0 0-.366-.176H3.75v-3.75H8.6a.47.47 0 0 0 .366-.176 3.28 3.28 0 0 1 5.123 0 .47.47 0 0 0 .366.176h4.385c2.329.003 4.216 1.89 4.219 4.219z"/><path d="M.469 0A.47.47 0 0 0 0 .469.47.47 0 0 0 .469.938c1.294.001 2.343 1.05 2.344 2.344v.938a.47.47 0 0 0 .469.469.47.47 0 0 0 .469-.469v-.937C3.75 1.471 2.281.002.469 0z"/></svg>