<svg xmlns="http://www.w3.org/2000/svg" xmlns:xlink="http://www.w3.org/1999/xlink" width="996.112" height="496.939" xmlns:v="https://vecta.io/nano"><g fill="#d2dcf7"><path d="M771.359 111.621l-60.181.08-30.021 52.155 30.157 52.079 60.181-.08 30.021-52.155z"/><use xlink:href="#B"/><path d="M771.358 0l-60.182.076-30.021 52.159 30.157 52.079 60.181-.08 30.024-52.156zm97.253 56.035l-60.181.08-30.022 52.16 30.157 52.079 60.181-.08 30.021-52.156zm97.341 55.586l-60.182.08-30.021 52.155 30.157 52.079 60.181-.08 30.022-52.155zm0-111.621l-60.176.076-30.027 52.159 30.16 52.079 60.178-.08 30.025-52.156z"/><use xlink:href="#C"/><path d="M808.429 392.438l-30.021 52.159 30.157 52.076 60.181-.076 30.021-52.159-30.157-52.076zm-37.07-167.74l-60.181.08-30.021 52.156 30.157 52.083 60.181-.08 30.021-52.156z"/><use xlink:href="#B" y="113.078"/><path d="M965.952 336.319l-60.182.08-30.021 52.156 30.157 52.079 60.181-.08 30.021-52.156zm0-111.621l-60.182.08-30.021 52.156 30.158 52.083 60.181-.08 30.021-52.156zM30.024 168.003L0 220.162l30.157 52.076 60.181-.076 30.024-52.159L90.2 167.927zm0-111.62L0 108.542l30.157 52.08 60.181-.076 30.024-52.159L90.2 56.307zm157.522 55.503l-60.181.08-30.021 52.155 30.157 52.079 60.181-.08 30.021-52.156zm97.249 56.041l-60.181.08-30.019 52.155 30.157 52.079 60.181-.08 30.021-52.156zM127.366.343L97.341 52.502l30.157 52.076 60.181-.076 30.024-52.159L187.547.267zm157.429 55.963l-60.181.08-30.019 52.155 30.157 52.08 60.181-.08 30.022-52.156zm96.27 55.58l-60.181.08-30.021 52.155 30.16 52.08 60.181-.08 30.019-52.155z"/><use xlink:href="#C" x="-293.041" y="-168.392"/><path d="M320.884.343l-30.021 52.159 30.16 52.076 60.181-.076 30.019-52.159L381.065.267zm157.434 55.963l-60.181.08-30.022 52.155 30.157 52.08 60.181-.08 30.021-52.156z"/><use xlink:href="#B" x="-293.47" y="-55.775"/><path d="M672.392 167.927l-60.182.08-30.02 52.155 30.157 52.079 60.181-.08 30.021-52.156zM514.961.343l-30.024 52.159 30.157 52.076 60.181-.076 30.024-52.159L575.14.267zm157.431 55.963l-60.182.08-30.02 52.155 30.157 52.08 60.181-.08 30.021-52.156zM30.024 392.703L0 444.862l30.157 52.076 60.181-.076 30.024-52.159L90.2 392.627zm0-111.62L0 333.24l30.157 52.076 60.181-.076 30.024-52.159L90.2 281.007z"/><use xlink:href="#C" x="-583.813" y="0.266"/><path d="M224.617 392.703l-30.024 52.159 30.157 52.076 60.182-.076 30.024-52.159-30.157-52.076zm-37.071-167.738l-60.181.08-30.021 52.158 30.157 52.079 60.181-.08 30.021-52.156zm97.249 56.039l-60.181.08-30.019 52.154 30.157 52.079 60.181-.08 30.021-52.156zm96.27 55.581l-60.181.08-30.021 52.156 30.16 52.079 60.181-.08 30.019-52.155zm37.074 56.118l-30.021 52.159 30.157 52.076 60.182-.076 30.021-52.159-30.157-52.076zm-37.074-167.738l-60.181.08-30.021 52.158 30.16 52.076 60.181-.08 30.019-52.155zm97.253 56.039l-60.181.08-30.022 52.154 30.157 52.079 60.181-.08 30.021-52.156z"/><use xlink:href="#C" x="-196.218" y="0.266"/><path d="M612.213 392.703l-30.024 52.159 30.16 52.076 60.178-.076 30.024-52.159-30.16-52.076zm-37.072-167.738l-60.181.08-30.022 52.158 30.157 52.079 60.181-.08 30.021-52.156zm97.251 56.039l-60.182.08-30.02 52.154 30.157 52.079 60.181-.08 30.021-52.156z"/></g><defs ><path id="B" d="M868.611 167.661l-60.181.08-30.022 52.155 30.157 52.079 60.181-.08 30.021-52.156z"/><path id="C" d="M771.359 336.319l-60.181.08-30.021 52.156 30.157 52.079 60.181-.08 30.021-52.156z"/></defs></svg>