<svg xmlns="http://www.w3.org/2000/svg" width="43.422" height="43.422" fill="#4c74f5" xmlns:v="https://vecta.io/nano"><path d="M10.262 6.997v4.765a3.83 3.83 0 0 1 2.367 2.436 3.78 3.78 0 0 1 1.45-.391v-6.81a1.91 1.91 0 0 0-1.908-1.908 1.91 1.91 0 0 0-1.908 1.908zm-8.99 17.258h1.485c.163.797.479 1.555.93 2.232l-.994.994c-.497.497-.497 1.303 0 1.8s1.303.497 1.8 0l.994-.994c.677.451 1.435.767 2.232.93v1.4a1.272 1.272 0 1 0 2.544 0v-1.4c.797-.163 1.555-.479 2.232-.93l.994.994c.497.497 1.303.497 1.8 0s.497-1.303 0-1.8l-.994-.994a6.32 6.32 0 0 0 .93-2.232h1.4a1.272 1.272 0 1 0 0-2.544h-1.4c-.163-.797-.479-1.555-.93-2.232l.994-.994c.497-.497.497-1.303 0-1.8s-1.303-.497-1.8 0l-.994.994a6.32 6.32 0 0 0-2.232-.93v-1.4a1.272 1.272 0 1 0-2.544 0v1.4c-.797.163-1.555.479-2.232.93l-.994-.994c-.497-.497-1.303-.497-1.8 0s-.497 1.303 0 1.8l.994.994a6.32 6.32 0 0 0-.93 2.232H1.272a1.272 1.272 0 1 0 0 2.544zm6.446-1.277a1.27 1.27 0 1 1-1.272 1.272 1.27 1.27 0 0 1 1.272-1.272z"/><circle cx="25.527" cy="31.889" r="1.272"/><path d="M14.387 32.2c-.612.002-1.215-.145-1.758-.427a3.8 3.8 0 0 1-1.871 2.176c1.478 5.55 6.482 9.428 12.225 9.477 8.6 0 10.322-6.379 19.737-17.413.952-.989.948-2.555-.009-3.539s-2.522-1.031-3.537-.106l-6.014 5.276V4.452a1.91 1.91 0 0 0-1.908-1.908 1.91 1.91 0 0 0-1.908 1.908v12.17a1.27 1.27 0 1 1-2.544 0V1.908A1.91 1.91 0 0 0 24.892 0a1.91 1.91 0 0 0-1.908 1.908v14.714a1.27 1.27 0 1 1-2.544 0V4.452a1.91 1.91 0 0 0-1.908-1.908 1.91 1.91 0 0 0-1.908 1.908v10.055c1.559 1.084 2.055 3.166 1.153 4.837 1.586.503 2.663 1.975 2.663 3.639s-1.078 3.136-2.663 3.639a3.82 3.82 0 0 1-3.389 5.574zm7.325-.307c.002-.233.025-.465.07-.694l-1.3-.749a1.27 1.27 0 0 1-.414-1.707 1.27 1.27 0 0 1 1.686-.493l1.308.755a3.79 3.79 0 0 1 1.191-.691V26.8a1.27 1.27 0 1 1 2.544 0v1.506c.436.156.839.39 1.191.691l1.308-.755a1.27 1.27 0 0 1 1.686.493 1.27 1.27 0 0 1-.414 1.707l-1.3.749a3.47 3.47 0 0 1 0 1.387l1.3.749a1.27 1.27 0 0 1 .414 1.707 1.27 1.27 0 0 1-1.686.493l-1.308-.755a3.79 3.79 0 0 1-1.191.691v1.506a1.27 1.27 0 1 1-2.544 0v-1.498c-.436-.156-.839-.39-1.191-.691l-1.308.755a1.27 1.27 0 0 1-1.686-.493 1.27 1.27 0 0 1 .414-1.707l1.3-.749c-.045-.229-.068-.461-.07-.694z"/></svg>