<svg xmlns="http://www.w3.org/2000/svg" id="Group_1820" width="43.422" height="43.422" data-name="Group 1820" viewBox="0 0 43.422 43.422"><path id="Path_2399" fill="#4c74f5" d="M121,61.908v4.765a3.829,3.829,0,0,1,2.367,2.436,3.779,3.779,0,0,1,1.45-.391v-6.81a1.908,1.908,0,0,0-3.816,0Z" data-name="Path 2399" transform="translate(-110.738 -54.911)"/><path id="Path_2400" fill="#4c74f5" d="M1.272,176.177H2.757a6.317,6.317,0,0,0,.93,2.232l-.994.994a1.272,1.272,0,1,0,1.8,1.8l.994-.994a6.315,6.315,0,0,0,2.232.93v1.4a1.272,1.272,0,0,0,2.544,0v-1.4a6.315,6.315,0,0,0,2.232-.93l.994.994a1.272,1.272,0,1,0,1.8-1.8l-.994-.994a6.319,6.319,0,0,0,.93-2.232h1.4a1.272,1.272,0,0,0,0-2.544h-1.4a6.317,6.317,0,0,0-.93-2.232l.994-.994a1.272,1.272,0,0,0-1.8-1.8l-.994.994a6.319,6.319,0,0,0-2.232-.93v-1.4a1.272,1.272,0,0,0-2.544,0v1.4a6.317,6.317,0,0,0-2.232.93l-.994-.994a1.272,1.272,0,0,0-1.8,1.8l.994.994a6.319,6.319,0,0,0-.93,2.232H1.272a1.272,1.272,0,0,0,0,2.544ZM7.718,174.9a1.272,1.272,0,1,1-1.272,1.272A1.272,1.272,0,0,1,7.718,174.9Z" data-name="Path 2400" transform="translate(0 -151.922)"/><circle id="Ellipse_62" cx="1.272" cy="1.272" r="1.272" fill="#4c74f5" data-name="Ellipse 62" transform="translate(24.255 30.617)"/><path id="Path_2401" fill="#4c74f5" d="M130.475,32.2a3.793,3.793,0,0,1-1.758-.427,3.8,3.8,0,0,1-1.871,2.176,12.763,12.763,0,0,0,12.225,9.477c8.6,0,10.322-6.379,19.737-17.413a2.544,2.544,0,0,0-3.546-3.645l-6.014,5.276V4.452a1.908,1.908,0,1,0-3.816,0v12.17a1.272,1.272,0,1,1-2.544,0V1.908a1.908,1.908,0,0,0-3.816,0V16.622a1.272,1.272,0,1,1-2.544,0V4.452a1.908,1.908,0,0,0-3.816,0V14.507a3.732,3.732,0,0,1,1.153,4.837,3.817,3.817,0,0,1,0,7.277,3.818,3.818,0,0,1-3.389,5.574Zm7.325-.307a3.793,3.793,0,0,1,.07-.694l-1.3-.749a1.272,1.272,0,0,1,1.272-2.2l1.308.755a3.792,3.792,0,0,1,1.191-.691V26.8a1.272,1.272,0,0,1,2.544,0v1.506a3.794,3.794,0,0,1,1.191.691l1.308-.755a1.272,1.272,0,0,1,1.272,2.2l-1.3.749a3.469,3.469,0,0,1,0,1.387l1.3.749a1.272,1.272,0,0,1-1.272,2.2l-1.308-.755a3.791,3.791,0,0,1-1.191.691v1.506a1.272,1.272,0,1,1-2.544,0V35.471a3.794,3.794,0,0,1-1.191-.691l-1.308.755a1.272,1.272,0,0,1-1.272-2.2l1.3-.749a3.794,3.794,0,0,1-.07-.694Z" data-name="Path 2401" transform="translate(-116.088)"/></svg>