<svg xmlns="http://www.w3.org/2000/svg" id="Layer_1" viewBox="0 0 71.46 42.18"><defs><style>.cls-1{fill:#e44178}.cls-1,.cls-2,.cls-3,.cls-4,.cls-5,.cls-6,.cls-7{stroke-width:0}.cls-2{fill:#bb0642}.cls-5,.cls-8{isolation:isolate}.cls-3{fill:#fff}.cls-4{fill:#e48aa9}.cls-5,.cls-7{fill:#091a5a}.cls-6{fill:#331f27;opacity:.13}</style></defs><path d="m22.04,41.93l-.96-.37c-4.38-1.7-14.27-5.55-17.45-16.96C-.42,10.09,0,2.02.02,1.68L.12,0h1.9C2.15,0,5.11,0,12.47.23c6.5.21,9.15.44,9.25.45l.32.03.32.17c.1.06,2.49,1.36,7.1,4.18,3.77,2.3,4.99,3.11,5.04,3.14l.71.47.04,1.03c0,.2.16,5.1-1.39,13.86-1.4,7.92-7.22,13.76-10.88,17.42l-.93.94ZM5.38,4.73c.09,2.83.6,9.32,3.05,18.68,2.27,8.66,9.47,12.38,13.61,14.28,3.67-3.47,8.44-8.27,9.63-14.77,1.17-6.35,1.4-10.62,1.44-12.48-.74-.43-2.07-1.18-4.29-2.41-3.64-2.02-5.96-3.21-6.78-3.62-.84-.02-3.47-.05-8.54.07-3.84.1-6.51.19-8.12.26Z" class="cls-3"/><path d="m22.04,2.56s2.42,1.25,7.1,3.98c3.83,2.23,5.06,3.01,5.06,3.01,0,0,.18,4.89-1.41,13.7-1.35,7.51-7.04,12.97-10.75,16.56-4.17-1.76-13.14-5.46-15.94-15.83C2.34,10.07,2.78,2.43,2.78,2.43c0,0,2.91-.09,10.21-.06,6.44.02,9.05.19,9.05.19Z" class="cls-5"/><g id="Group_2134"><g id="Legionas" class="cls-8"><g class="cls-8"><path d="m7.11,9.1c.39.14.78.27,1.17.41.08,2.03.18,4.05.29,6.08.77.17,1.55.32,2.33.47.02.41.04.82.06,1.22-1.15-.19-2.3-.4-3.45-.63-.16-2.52-.3-5.04-.4-7.56Z" class="cls-3"/><path d="m14.68,16.73c.01.37.02.74.03,1.11-1.06-.14-2.13-.3-3.18-.47-.11-2.3-.2-4.6-.27-6.9,1.06.33,2.13.64,3.21.93,0,.43.02.85.03,1.28-.73-.18-1.46-.36-2.18-.56.02.51.03,1.01.05,1.52.64.15,1.28.29,1.92.43.01.39.02.77.03,1.16-.64-.12-1.28-.25-1.91-.38.02.5.04,1,.06,1.5.74.13,1.47.25,2.21.37Z" class="cls-3"/><path d="m17.81,15.26c.24.04.49.08.73.12,0,.77.02,1.54.02,2.3-.37.42-.88.61-1.38.55-1.14-.12-2.05-1.51-2.09-3.37-.04-1.96.82-3.18,2-2.88.63.16,1.14.66,1.49,1.44-.17.25-.33.49-.5.74-.26-.53-.56-.81-.93-.89-.71-.16-1.19.57-1.17,1.77.02,1.14.53,2.01,1.22,2.1.22.03.43,0,.63-.16,0-.57-.02-1.14-.02-1.71Z" class="cls-3"/><path d="m19.23,12.6c.25.06.51.11.76.17,0,1.88.01,3.77.02,5.65-.25-.02-.49-.04-.74-.07-.01-1.92-.03-3.84-.04-5.76Z" class="cls-3"/><path d="m20.56,15.78c0-1.69.72-2.84,1.67-2.65.9.18,1.54,1.49,1.52,3.06-.02,1.51-.67,2.54-1.56,2.48-.93-.06-1.63-1.27-1.63-2.89Zm2.55.33c.01-1.01-.36-1.77-.88-1.86-.53-.09-.94.58-.94,1.63,0,1.02.39,1.75.92,1.79.51.04.9-.58.91-1.56Z" class="cls-3"/><path d="m26.6,13.98c-.04,1.6-.08,3.2-.13,4.8-.15,0-.3,0-.45-.01-.4-1-.8-2-1.18-3.01-.02.99-.04,1.98-.06,2.96-.2,0-.4-.02-.59-.03.03-1.7.06-3.4.08-5.09.17.03.34.06.51.09.39,1.08.79,2.16,1.2,3.24.03-1.01.05-2.02.07-3.03.19.03.37.06.56.09Z" class="cls-3"/><path d="m28.52,17.89c-.34-.01-.68-.02-1.02-.04-.08.32-.16.63-.24.95-.18,0-.36,0-.55-.01.41-1.54.8-3.08,1.18-4.62.17.02.34.05.51.07.25,1.53.51,3.06.78,4.58-.17,0-.34,0-.51,0-.05-.31-.1-.62-.15-.93Zm-.13-.79c-.1-.6-.19-1.2-.29-1.8-.14.59-.27,1.17-.42,1.76.23.01.47.03.7.04Z" class="cls-3"/><path d="m29.25,18.41c.07-.25.13-.49.2-.74.16.27.4.46.64.46.27,0,.39-.18.4-.44.04-.79-1.15-.29-1.08-1.94.03-.78.34-1.41.92-1.34.25.03.5.19.66.48-.06.26-.12.51-.17.77-.17-.25-.35-.38-.53-.4-.28-.03-.39.2-.4.48-.04.82,1.13.34,1.05,1.89-.03.69-.33,1.27-.89,1.27-.32,0-.63-.19-.8-.49Z" class="cls-3"/></g></g><g id="legioneles" class="cls-8"><g class="cls-8"><path d="m11.1,24.39c.09,0,.19,0,.28,0,.06.93.12,1.87.18,2.8.47,0,.93-.02,1.4-.03,0,.09.01.17.02.26-.56.02-1.11.04-1.67.05-.07-1.03-.14-2.06-.21-3.08Z" class="cls-3"/><path d="m15.28,27.07c0,.08,0,.17,0,.25-.54.03-1.08.05-1.63.08-.05-.99-.1-1.97-.15-2.95.54,0,1.08.01,1.62.01,0,.09,0,.18.01.27-.45,0-.91,0-1.36,0,.02.36.03.71.05,1.07.4,0,.8-.01,1.2-.02,0,.09,0,.17.01.26-.4.01-.8.02-1.2.03.02.36.04.71.05,1.07.46-.02.92-.04,1.38-.06Z" class="cls-3"/><path d="m17.53,25.84c.07,0,.14,0,.21-.01,0,.34.01.69.02,1.03-.19.24-.46.37-.75.39-.64.04-1.15-.52-1.17-1.34-.03-.84.45-1.48,1.11-1.49.32,0,.6.13.79.4-.04.06-.09.13-.13.19-.18-.23-.39-.32-.64-.32-.53.01-.91.53-.89,1.21.02.66.43,1.13.95,1.09.2-.01.38-.08.54-.24,0-.3-.01-.61-.02-.91Z" class="cls-3"/><path d="m18.55,24.41c.07,0,.14,0,.21,0,.01.9.02,1.79.03,2.69-.07,0-.14.01-.21.02-.01-.9-.02-1.8-.03-2.7Z" class="cls-3"/><path d="m19.46,25.73c0-.78.42-1.39.99-1.42.55-.02.95.52.94,1.28,0,.74-.4,1.31-.95,1.37-.56.05-.98-.47-.99-1.23Zm1.74-.12c0-.62-.32-1.06-.76-1.04-.45.02-.79.51-.79,1.15,0,.62.34,1.05.79,1.01.43-.04.76-.51.76-1.12Z" class="cls-3"/><path d="m23.42,24.17c-.02.82-.04,1.64-.06,2.45-.05,0-.09.01-.14.02-.35-.63-.69-1.27-1.03-1.9,0,.68-.02,1.35-.03,2.03-.06,0-.12.01-.18.02.01-.84.02-1.68.03-2.52.05,0,.1,0,.15,0,.34.65.69,1.3,1.04,1.94.02-.67.03-1.34.04-2.01.06,0,.11,0,.17-.01Z" class="cls-3"/><path d="m25.14,26.19c0,.07,0,.14,0,.21-.36.05-.72.09-1.07.14.02-.81.05-1.61.07-2.42.35-.03.71-.05,1.06-.08,0,.07,0,.15,0,.22-.3.03-.59.05-.89.08,0,.29-.02.58-.02.87.26-.03.53-.05.79-.08,0,.07,0,.14,0,.21-.26.03-.53.06-.79.09,0,.29-.02.59-.03.88.3-.04.61-.08.91-.12Z" class="cls-3"/><path d="m25.75,23.98c.05,0,.1,0,.15-.01-.03.71-.06,1.42-.09,2.13.26-.04.53-.07.79-.11,0,.07,0,.14-.01.2-.31.05-.63.09-.94.13.03-.78.06-1.56.09-2.34Z" class="cls-3"/><path d="m27.94,25.79c0,.07,0,.13-.01.2-.31.05-.62.1-.94.14.04-.76.08-1.52.11-2.28.31-.03.61-.06.92-.1,0,.07,0,.14-.01.21-.26.03-.52.06-.77.08-.01.27-.03.55-.04.82.23-.03.46-.06.69-.09,0,.07,0,.13-.01.2-.23.03-.46.06-.69.09-.01.28-.03.55-.04.83.26-.04.53-.08.79-.12Z" class="cls-3"/><path d="m28.28,25.67c.02-.06.04-.12.06-.18.08.14.23.22.4.2.23-.04.34-.22.36-.43.04-.59-.76-.11-.71-.93.02-.33.18-.64.5-.67.14-.02.28.04.37.15-.02.06-.04.13-.06.19-.1-.11-.22-.16-.33-.14-.23.03-.35.22-.36.45-.03.61.75.14.7.93-.02.31-.18.6-.5.65-.19.03-.37-.05-.45-.2Z" class="cls-3"/></g></g><g id="Group_1838"><path d="m18.38,21.44c-3.62-.12-7.23-.4-10.81-.85,0,.1.02.2.02.3,3.58.43,7.18.69,10.79.79,0-.08,0-.16,0-.24Z" class="cls-3"/><path d="m25.16,21.46c0,.07,0,.14,0,.21,1.91-.06,3.83-.16,5.74-.31,0-.06,0-.12.01-.18-1.92.14-3.83.24-5.75.29Z" class="cls-3"/><g id="prieš" class="cls-8"><g class="cls-8"><path d="m21.2,21.81c0,.36-.17.61-.38.61-.13,0-.23-.08-.3-.23,0,.22,0,.44,0,.66-.04,0-.07,0-.11,0,0-.55,0-1.11,0-1.66.03,0,.07,0,.1,0,0,.08,0,.16,0,.24.07-.16.17-.25.3-.25.22,0,.38.26.38.62Zm-.1,0c0-.28-.12-.47-.29-.48-.17,0-.29.19-.29.47,0,.28.13.47.29.47.16,0,.29-.19.29-.47Z" class="cls-3"/><path d="m21.8,21.2c0,.05,0,.11,0,.16,0,0-.02,0-.02,0-.16,0-.25.16-.26.44,0,.2,0,.4,0,.6-.03,0-.07,0-.1,0,0-.4,0-.8,0-1.19.03,0,.07,0,.1,0,0,.08,0,.16,0,.24.05-.16.14-.24.28-.24Z" class="cls-3"/><path d="m21.96,20.83c0-.06.04-.12.07-.11.04,0,.07.05.07.11,0,.07-.03.12-.07.12-.04,0-.07-.05-.07-.12Zm.02.38s.07,0,.1,0c0,.39,0,.79-.01,1.18-.03,0-.07,0-.1,0,0-.39,0-.79.01-1.18Z" class="cls-3"/><path d="m22.97,21.85c-.2,0-.4,0-.6,0,0,.24.12.4.28.4.09,0,.16-.05.22-.15.02.03.03.07.05.1-.06.12-.17.19-.28.19-.22,0-.37-.24-.37-.58,0-.35.16-.6.36-.6.2,0,.34.24.34.59,0,.01,0,.03,0,.05Zm-.6-.11c.17,0,.34,0,.51,0,0-.23-.11-.39-.25-.39-.14,0-.25.16-.26.39Z" class="cls-3"/><path d="m23.63,22.04c0,.19-.11.32-.29.33-.12,0-.22-.05-.28-.13.01-.04.03-.08.04-.12.05.07.15.12.25.12.13,0,.19-.08.19-.19,0-.3-.45-.05-.44-.51,0-.19.1-.33.28-.33.09,0,.19.04.24.11-.01.04-.03.08-.04.13-.06-.07-.13-.1-.2-.1-.13,0-.18.08-.19.19,0,.31.45.07.44.51Zm-.31-1.01c-.06-.09-.11-.19-.17-.28.03,0,.06,0,.09,0,.04.06.09.12.13.18.04-.06.09-.12.13-.18.03,0,.06,0,.09,0-.06.09-.12.18-.18.28-.03,0-.06,0-.1,0Z" class="cls-3"/></g></g></g></g><g class="cls-8"><path d="m37.39,1.4c.39.84.72,1.7,1.01,2.58.3.88.55,1.77.78,2.67.44,1.8.77,3.64.95,5.49.2,1.85.23,3.72.15,5.59-.09,1.87-.33,3.72-.68,5.56-.39,1.83-.92,3.63-1.57,5.38l-.54,1.3-.14.32-.15.32-.3.63c-.38.85-.87,1.66-1.32,2.47-1.92,3.2-4.36,6.07-7.17,8.46,2.45-2.76,4.61-5.73,6.32-8.94.82-1.62,1.58-3.27,2.18-4.98.6-1.71,1.1-3.45,1.46-5.22.36-1.77.6-3.57.72-5.38.14-1.81.14-3.63.05-5.45-.1-1.82-.29-3.64-.58-5.44-.14-.9-.32-1.8-.51-2.7-.1-.45-.2-.9-.32-1.34-.11-.45-.23-.89-.37-1.33Z" class="cls-7"/></g><g id="Group_1677"><path id="Path_1394-2" d="m43.86,8.65l8.39-4.4c1.85-.97,4.14-.25,5.11,1.6l.03.07c.97,1.85.25,4.14-1.6,5.11l-8.39,4.4c-1.85.97-4.14.25-5.11-1.6l-.03-.07c-.97-1.85-.26-4.14,1.59-5.11,0,0,0,0,0,0" class="cls-6"/><path id="Path_1395-2" d="m44.33,9.34l8.24-4.32c1.45-.76,3.23-.2,3.99,1.25l.03.05c.76,1.45.2,3.23-1.25,3.99l-8.25,4.32c-1.45.75-3.23.19-3.98-1.25l-.03-.05c-.76-1.45-.2-3.23,1.25-3.99" class="cls-4"/><path id="Path_1396-2" d="m51.38,10.07c-.34-.64-.1-1.43.55-1.77.64-.34,1.43-.1,1.77.55.34.64.1,1.43-.55,1.77,0,0,0,0,0,0-.64.34-1.43.09-1.77-.55,0,0,0,0,0,0" class="cls-2"/><path id="Path_1397-2" d="m52.37,10.46c-.26-.06-.44-.24-.4-.4s.28-.25.54-.19.44.24.4.4-.28.25-.54.19" class="cls-1"/><path id="Path_1398-2" d="m48.74,11.3c-.12-.23-.03-.52.2-.64.23-.12.52-.03.64.2.12.23.03.52-.2.64,0,0,0,0,0,0-.23.12-.52.03-.64-.2,0,0,0,0,0,0" class="cls-3"/><path id="Path_1399-2" d="m45.55,10.6c-.17-.32-.05-.72.27-.89.32-.17.72-.05.89.27.17.32.05.72-.27.89,0,0,0,0,0,0-.32.17-.72.05-.89-.27" class="cls-3"/><path id="Path_1400-2" d="m53.84,7.13c-.22-.42-.05-.94.37-1.16.42-.22.94-.05,1.16.37.22.42.05.94-.37,1.16,0,0,0,0,0,0-.42.22-.94.05-1.16-.37" class="cls-3"/><path id="Path_1401-2" d="m44.29,13.64c-.24-.45-.06-1.01.39-1.24.45-.24,1.01-.06,1.24.39.24.45.06,1.01-.39,1.24,0,0,0,0,0,0-.45.24-1,.06-1.24-.39" class="cls-3"/></g><g id="Group_1677-2"><path id="Path_1394-2-2" d="m57.5,14.97l8.39-4.4c1.85-.97,4.14-.25,5.11,1.6l.03.07c.97,1.85.25,4.14-1.6,5.11l-8.39,4.4c-1.85.97-4.14.25-5.11-1.6l-.03-.07c-.97-1.85-.26-4.14,1.59-5.11,0,0,0,0,0,0" class="cls-6"/><path id="Path_1395-2-2" d="m57.96,15.67l8.24-4.32c1.45-.76,3.23-.2,3.99,1.25l.03.05c.76,1.45.2,3.23-1.25,3.99l-8.25,4.32c-1.45.75-3.23.19-3.98-1.25l-.03-.05c-.76-1.45-.2-3.23,1.25-3.99" class="cls-4"/><path id="Path_1396-2-2" d="m65.01,16.4c-.34-.64-.1-1.43.55-1.77.64-.34,1.43-.1,1.77.55.34.64.1,1.43-.55,1.77,0,0,0,0,0,0-.64.34-1.43.09-1.77-.55,0,0,0,0,0,0" class="cls-2"/><path id="Path_1397-2-2" d="m66,16.78c-.26-.06-.44-.24-.4-.4s.28-.25.54-.19.44.24.4.4-.28.25-.54.19" class="cls-1"/><path id="Path_1398-2-2" d="m62.37,17.63c-.12-.23-.03-.52.2-.64.23-.12.52-.03.64.2.12.23.03.52-.2.64,0,0,0,0,0,0-.23.12-.52.03-.64-.2,0,0,0,0,0,0" class="cls-3"/><path id="Path_1399-2-2" d="m59.18,16.92c-.17-.32-.05-.72.27-.89.32-.17.72-.05.89.27.17.32.05.72-.27.89,0,0,0,0,0,0-.32.17-.72.05-.89-.27" class="cls-3"/><path id="Path_1400-2-2" d="m67.47,13.45c-.22-.42-.05-.94.37-1.16.42-.22.94-.05,1.16.37.22.42.05.94-.37,1.16,0,0,0,0,0,0-.42.22-.94.05-1.16-.37" class="cls-3"/><path id="Path_1401-2-2" d="m57.93,19.96c-.24-.45-.06-1.01.39-1.24.45-.24,1.01-.06,1.24.39.24.45.06,1.01-.39,1.24,0,0,0,0,0,0-.45.24-1,.06-1.24-.39" class="cls-3"/></g><g id="Group_1677-3"><path id="Path_1394-2-3" d="m47.01,21.53l4.25-2.23c.94-.49,2.1-.13,2.59.81l.02.03c.49.94.13,2.1-.81,2.59l-4.25,2.23c-.94.49-2.1.13-2.59-.81l-.02-.04c-.49-.94-.13-2.1.81-2.59,0,0,0,0,0,0" class="cls-6"/><path id="Path_1395-2-3" d="m47.25,21.88l4.18-2.19c.73-.38,1.64-.1,2.02.63v.03c.4.73.11,1.64-.62,2.02l-4.18,2.19c-.73.38-1.64.1-2.02-.63v-.03c-.4-.73-.11-1.64.62-2.02" class="cls-4"/><path id="Path_1396-2-3" d="m50.82,22.25c-.17-.32-.05-.73.28-.9.32-.17.73-.05.9.28.17.32.05.73-.28.9,0,0,0,0,0,0-.32.17-.73.05-.9-.28h0" class="cls-2"/><path id="Path_1397-2-3" d="m51.32,22.45c-.13-.03-.22-.12-.2-.2s.14-.12.27-.09.22.12.2.2-.14.12-.27.09" class="cls-1"/><path id="Path_1398-2-3" d="m49.49,22.88c-.06-.12-.02-.26.1-.33.12-.06.26-.02.33.1.06.12.02.26-.1.33,0,0,0,0,0,0-.12.06-.26.02-.33-.1,0,0,0,0,0,0" class="cls-3"/><path id="Path_1399-2-3" d="m47.87,22.52c-.09-.16-.02-.36.14-.45.16-.09.36-.02.45.14.09.16.02.36-.14.45,0,0,0,0,0,0-.16.09-.36.02-.45-.14" class="cls-3"/><path id="Path_1400-2-3" d="m52.07,20.76c-.11-.21-.03-.48.19-.59.21-.11.48-.03.59.19.11.21.03.48-.19.59,0,0,0,0,0,0-.21.11-.48.03-.59-.19" class="cls-3"/><path id="Path_1401-2-3" d="m47.23,24.06c-.12-.23-.03-.51.2-.63.23-.12.51-.03.63.2.12.23.03.51-.2.63,0,0,0,0,0,0-.23.12-.51.03-.63-.2" class="cls-3"/></g><g id="Group_1677-4"><path id="Path_1394-2-4" d="m42.71,30.9l4.25-2.23c.94-.49,2.1-.13,2.59.81l.02.03c.49.94.13,2.1-.81,2.59l-4.25,2.23c-.94.49-2.1.13-2.59-.81l-.02-.04c-.49-.94-.13-2.1.81-2.59,0,0,0,0,0,0" class="cls-6"/><path id="Path_1395-2-4" d="m42.95,31.26l4.18-2.19c.73-.38,1.64-.1,2.02.63v.03c.4.73.11,1.64-.62,2.02l-4.18,2.19c-.73.38-1.64.1-2.02-.63v-.03c-.4-.73-.11-1.64.62-2.02" class="cls-4"/><path id="Path_1396-2-4" d="m46.52,31.63c-.17-.32-.05-.73.28-.9.32-.17.73-.05.9.28.17.32.05.73-.28.9,0,0,0,0,0,0-.32.17-.73.05-.9-.28h0" class="cls-2"/><path id="Path_1397-2-4" d="m47.02,31.82c-.13-.03-.22-.12-.2-.2s.14-.12.27-.09.22.12.2.2-.14.12-.27.09" class="cls-1"/><path id="Path_1398-2-4" d="m45.18,32.25c-.06-.12-.02-.26.1-.33.12-.06.26-.02.33.1.06.12.02.26-.1.33,0,0,0,0,0,0-.12.06-.26.02-.33-.1,0,0,0,0,0,0" class="cls-3"/><path id="Path_1399-2-4" d="m43.56,31.89c-.09-.16-.02-.36.14-.45.16-.09.36-.02.45.14.09.16.02.36-.14.45,0,0,0,0,0,0-.16.09-.36.02-.45-.14" class="cls-3"/><path id="Path_1400-2-4" d="m47.77,30.13c-.11-.21-.03-.48.19-.59.21-.11.48-.03.59.19.11.21.03.48-.19.59,0,0,0,0,0,0-.21.11-.48.03-.59-.19" class="cls-3"/><path id="Path_1401-2-4" d="m42.93,33.43c-.12-.23-.03-.51.2-.63.23-.12.51-.03.63.2.12.23.03.51-.2.63,0,0,0,0,0,0-.23.12-.51.03-.63-.2" class="cls-3"/></g><g id="Group_1677-5"><path id="Path_1394-2-5" d="m56.63,27.85l4.25-2.23c.94-.49,2.1-.13,2.59.81l.02.03c.49.94.13,2.1-.81,2.59l-4.25,2.23c-.94.49-2.1.13-2.59-.81l-.02-.04c-.49-.94-.13-2.1.81-2.59,0,0,0,0,0,0" class="cls-6"/><path id="Path_1395-2-5" d="m56.87,28.21l4.18-2.19c.73-.38,1.64-.1,2.02.63v.03c.4.73.11,1.64-.62,2.02l-4.18,2.19c-.73.38-1.64.1-2.02-.63v-.03c-.4-.73-.11-1.64.62-2.02" class="cls-4"/><path id="Path_1396-2-5" d="m60.44,28.58c-.17-.32-.05-.73.28-.9.32-.17.73-.05.9.28.17.32.05.73-.28.9,0,0,0,0,0,0-.32.17-.73.05-.9-.28h0" class="cls-2"/><path id="Path_1397-2-5" d="m60.95,28.77c-.13-.03-.22-.12-.2-.2s.14-.12.27-.09.22.12.2.2-.14.12-.27.09" class="cls-1"/><path id="Path_1398-2-5" d="m59.11,29.2c-.06-.12-.02-.26.1-.33.12-.06.26-.02.33.1.06.12.02.26-.1.33,0,0,0,0,0,0-.12.06-.26.02-.33-.1,0,0,0,0,0,0" class="cls-3"/><path id="Path_1399-2-5" d="m57.49,28.84c-.09-.16-.02-.36.14-.45.16-.09.36-.02.45.14.09.16.02.36-.14.45,0,0,0,0,0,0-.16.09-.36.02-.45-.14" class="cls-3"/><path id="Path_1400-2-5" d="m61.69,27.08c-.11-.21-.03-.48.19-.59.21-.11.48-.03.59.19.11.21.03.48-.19.59,0,0,0,0,0,0-.21.11-.48.03-.59-.19" class="cls-3"/><path id="Path_1401-2-5" d="m56.85,30.38c-.12-.23-.03-.51.2-.63.23-.12.51-.03.63.2.12.23.03.51-.2.63,0,0,0,0,0,0-.23.12-.51.03-.63-.2" class="cls-3"/></g></svg>