<svg xmlns="http://www.w3.org/2000/svg" width="46.002" height="46.002" fill="#4c74f5" xmlns:v="https://vecta.io/nano"><path d="M27.965 9.683a7.17 7.17 0 0 1-9.929 0 8.53 8.53 0 0 0-3.571 6.939v.9a1.35 1.35 0 0 0 1.348 1.348h14.376a1.35 1.35 0 0 0 1.348-1.348v-.9a8.53 8.53 0 0 0-3.572-6.939zM23 8.985a4.49 4.49 0 0 1-3.176-7.668 4.49 4.49 0 0 1 4.895-.974 4.49 4.49 0 0 1 2.773 4.15A4.5 4.5 0 0 1 23 8.985zm3.685 31.626a1.35 1.35 0 0 0-1.348 1.348v2.7a1.35 1.35 0 0 0 1.348 1.348h14.376a1.35 1.35 0 0 0 1.348-1.348v-2.7a1.35 1.35 0 0 0-1.349-1.348zm17.969-29.65h-.449a4.94 4.94 0 0 0-4.942 4.942v2.636a6.06 6.06 0 0 1 1.285 9.556l-3.961 3.961a1.35 1.35 0 0 1-1.888-.018 1.35 1.35 0 0 1-.018-1.888l3.961-3.961a3.37 3.37 0 0 0-4.765-4.765l-4.77 4.77a6.7 6.7 0 0 0-1.973 4.767v6.957h13.477v-.965l5.19-8.415a1.35 1.35 0 0 0 .2-.707V12.309a1.35 1.35 0 0 0-1.347-1.348zm-25.337 29.65a1.35 1.35 0 0 1 1.348 1.348v2.7a1.35 1.35 0 0 1-1.348 1.348H4.942a1.35 1.35 0 0 1-1.347-1.353v-2.7a1.35 1.35 0 0 1 1.347-1.343zm-.449-9.65c.005-1.788-.706-3.504-1.974-4.765l-4.77-4.77a3.37 3.37 0 0 0-4.765 4.765l3.961 3.961a1.35 1.35 0 0 1 .002 1.907 1.35 1.35 0 0 1-1.907.002L5.454 28.1a6.06 6.06 0 0 1 1.285-9.556v-2.636a4.94 4.94 0 0 0-4.94-4.947h-.451a1.35 1.35 0 0 0-1.349 1.348v15.519c0 .25.069.494.2.707l5.19 8.415v.965h13.479z"/></svg>