<svg xmlns="http://www.w3.org/2000/svg" width="50.456" height="54.115" xmlns:v="https://vecta.io/nano"><path fill="#ebe1eb" d="M49.807 19.527l-16.1 20.985c-1.429 1.863-4.474 1.6-5.955-.513L9.241 13.567l8.2-10.691 30.327 11.033c2.425.882 3.467 3.755 2.038 5.618z"/><path d="M41.353 11.575l-26.531 9.96L27.755 40c1.481 2.114 4.525 2.376 5.954.513l16.1-20.986c1.429-1.863.387-4.736-2.038-5.618zM.002 31.236c0-2.618 4.619-7.8 4.619-7.8s4.619 5.178 4.619 7.8a4.621 4.621 0 1 1-9.239.238q-.002-.119.001-.238zm7.323 18.14c0-2.618 4.619-7.8 4.619-7.8s4.619 5.177 4.619 7.8a4.621 4.621 0 0 1-9.239.238q0-.119 0-.238z" fill="#4c74f5"/><path fill="#ebe1eb" d="M7.135 17.314a1 1 0 0 1-.8-1.614L18.082.393c.337-.44.967-.523 1.407-.185s.523.967.185 1.407L7.931 16.922a1 1 0 0 1-.8.393z"/></svg>