<svg xmlns="http://www.w3.org/2000/svg" width="50.456" height="54.115" viewBox="0 0 50.456 54.115">
  <g id="Group_1805" data-name="Group 1805" transform="translate(-15.678 0)">
    <path id="Path_2384" data-name="Path 2384" d="M135.421,41.29l-16.1,20.985c-1.429,1.863-4.474,1.6-5.955-.513L94.855,35.33l8.2-10.691,30.327,11.033c2.425.882,3.467,3.755,2.038,5.618Z" transform="translate(-69.936 -21.763)" fill="#ebe1eb"/>
    <g id="Group_1804" data-name="Group 1804" transform="translate(15.678 11.575)">
      <path id="Path_2385" data-name="Path 2385" d="M169.208,99.175l-26.531,9.96L155.61,127.6c1.481,2.114,4.525,2.376,5.954.513l16.1-20.986c1.429-1.863.387-4.736-2.038-5.618Z" transform="translate(-127.855 -99.175)" fill="#4c74f5"/>
      <path id="Path_2386" data-name="Path 2386" d="M15.68,208.643c0-2.618,4.619-7.8,4.619-7.8s4.619,5.178,4.619,7.8a4.621,4.621,0,0,1-9.239.238Q15.677,208.762,15.68,208.643Z" transform="translate(-15.678 -188.982)" fill="#4c74f5"/>
      <path id="Path_2387" data-name="Path 2387" d="M78.428,364.077c0-2.618,4.619-7.8,4.619-7.8s4.619,5.177,4.619,7.8a4.621,4.621,0,1,1-9.239.238q0-.119,0-.238Z" transform="translate(-71.103 -326.276)" fill="#4c74f5"/>
    </g>
    <path id="Path_2388" data-name="Path 2388" d="M69.222,17.314a1,1,0,0,1-.8-1.614L80.169.393a1,1,0,0,1,1.592,1.221L70.018,16.922a1,1,0,0,1-.8.393Z" transform="translate(-46.409 0)" fill="#ebe1eb"/>
  </g>
</svg>
