<svg xmlns="http://www.w3.org/2000/svg" xmlns:v="https://vecta.io/nano" width="589.98" height="470"><style>.B{fill:#b3c7f8}.C{fill:#3161e1}.D{fill:#cfd8fd}.E{clip-path:url(#A)}</style><defs><clipPath id="A"><path fill="none" d="M0 0h589.98v470H0z"/></clipPath><clipPath id="B"><path fill="none" d="M0 0h89.385v333.144H0z"/></clipPath><clipPath id="C"><path fill="none" d="M0 0h64.91v248.083H0z"/></clipPath></defs><g class="E"><g class="E"><path d="M568.62 452.166c-15.655-3.049-44.144-5.091-76.694-5.091s-61.042 2.041-76.689 5.091h-12.771v5.408c0 5.8 40.055 10.495 89.46 10.495s89.458-4.7 89.458-10.495v-5.408z" class="B"/><path d="M581.384 452.161c0 5.8-40.052 10.5-89.46 10.5s-89.458-4.7-89.458-10.5 40.052-10.5 89.458-10.5 89.46 4.7 89.46 10.5" class="D"/><path d="M353.574 443.285c-32.688-5.346-93.992-8.948-164.225-8.948s-131.54 3.6-164.225 8.948H0v8.884c0 9.85 84.772 17.832 189.348 17.832s189.346-7.981 189.346-17.832v-8.884z" class="B"/><path d="M378.694 443.285c0 9.848-84.772 17.834-189.346 17.834S0 453.133 0 443.285s84.772-17.832 189.348-17.832 189.346 7.984 189.346 17.832" class="D"/><path d="M364.27 121.529v318.895c0 4.212-17.075 8.051-45.118 10.946l-.865.09c-31.88 3.247-77.647 5.286-128.509 5.3h-.865c-30.911 0-59.939-.764-85.113-2.085-16.248-.854-30.893-1.942-43.4-3.213l-.858-.09c-28.043-2.9-45.122-6.734-45.122-10.946V121.529z" class="B"/><g class="C"><path d="M350.635 207.021c7.8-2.016 12.294-4 13.638-6.028a2.33 2.33 0 0 0 .43-1.3.43.43 0 0 0-.653-.391.43.43 0 0 0-.21.391c0 3.063-11.885 7.777-44.687 12.129v-51.997a280.49 280.49 0 0 0 31.482-5.666c7.8-2.016 12.294-4 13.638-6.03.27-.381.42-.833.43-1.3a.43.43 0 0 0-.432-.411.43.43 0 0 0-.432.411c0 3.066-11.885 7.777-44.687 12.131v-32.428a.43.43 0 0 0-.43-.43c-.238 0-.431.192-.433.43v32.54q-2.568.331-5.307.667c-34.724 4.228-78.464 6.561-123.2 6.578v-39.785a.43.43 0 0 0-.431-.411.43.43 0 0 0-.431.411v39.786c-44.749-.016-88.488-2.35-123.208-6.578l-5.307-.667v-32.541a.43.43 0 0 0-.431-.411.43.43 0 0 0-.431.411v32.423c-32.803-4.354-44.693-9.065-44.693-12.131a.43.43 0 0 0-.644-.372.43.43 0 0 0-.214.372 2.36 2.36 0 0 0 .426 1.3c1.344 2.028 5.846 4.014 13.643 6.03 10.376 2.487 20.885 4.378 31.477 5.666v51.992c-32.8-4.352-44.687-9.065-44.687-12.129a.43.43 0 0 0-.644-.372.43.43 0 0 0-.214.372 2.36 2.36 0 0 0 .426 1.3c1.349 2.028 5.846 4.011 13.643 6.028 10.376 2.485 20.885 4.375 31.477 5.662v51.995c-32.8-4.354-44.687-9.061-44.687-12.131a.43.43 0 0 0-.644-.372.43.43 0 0 0-.214.372c.01.469.158.925.426 1.31 1.349 2.028 5.846 4.009 13.643 6.025 10.376 2.487 20.885 4.378 31.477 5.666v51.995c-32.8-4.354-44.687-9.065-44.687-12.133a.43.43 0 0 0-.429-.429.43.43 0 0 0-.429.429c.009.468.158.923.426 1.307 1.349 2.03 5.846 4.011 13.643 6.03 10.375 2.487 20.884 4.381 31.474 5.673v51.992c-32.8-4.352-44.687-9.065-44.687-12.126a.43.43 0 0 0-.644-.372.43.43 0 0 0-.214.372 2.37 2.37 0 0 0 .426 1.3c1.349 2.028 5.846 4.007 13.643 6.025 10.376 2.486 20.885 4.377 31.477 5.664v51.995c-32.8-4.354-44.687-9.063-44.687-12.131a.43.43 0 0 0-.429-.429.43.43 0 0 0-.429.429c.01.469.158.925.426 1.31 1.349 2.028 5.846 4.009 13.643 6.028 10.376 2.483 20.886 4.373 31.477 5.662v27.24l.863.09v-27.214q2.551.338 5.2.663c34.757 4.228 78.537 6.566 123.315 6.582v25.268h.863V431.49c44.777-.016 88.553-2.354 123.31-6.582l5.2-.663v27.217l.863-.09v-27.24a281.69 281.69 0 0 0 31.482-5.662c7.8-2.018 12.294-4 13.638-6.028a2.36 2.36 0 0 0 .43-1.31.43.43 0 0 0-.431-.411.43.43 0 0 0-.432.411c0 3.068-11.885 7.777-44.687 12.131V371.27a280.56 280.56 0 0 0 31.482-5.664c7.8-2.018 12.294-4 13.638-6.025a2.34 2.34 0 0 0 .43-1.3.43.43 0 0 0-.653-.391.43.43 0 0 0-.21.391c0 3.061-11.885 7.774-44.687 12.126V318.41c10.593-1.29 21.104-3.181 31.482-5.664 7.8-2.018 12.294-4 13.638-6.03.271-.383.421-.838.43-1.307a.43.43 0 0 0-.432-.411.43.43 0 0 0-.432.411c0 3.068-11.885 7.779-44.687 12.133v-51.994a280.48 280.48 0 0 0 31.482-5.666c7.8-2.016 12.294-4 13.638-6.025.271-.384.421-.84.43-1.31a.43.43 0 0 0-.432-.411.43.43 0 0 0-.432.411c0 3.07-11.885 7.777-44.687 12.131v-51.995a280.64 280.64 0 0 0 31.482-5.662M188.912 430.627c-44.745-.016-88.484-2.352-123.209-6.578l-5.307-.667v-51.995q2.551.335 5.2.656c34.757 4.232 78.537 6.566 123.315 6.58zm0-52.865c-44.745-.016-88.484-2.348-123.209-6.571l-5.307-.674v-51.994q2.551.335 5.2.658c34.757 4.232 78.537 6.568 123.315 6.58zm0-52.86c-44.745-.014-88.484-2.348-123.209-6.575l-5.307-.667v-52q2.551.335 5.2.658c34.757 4.23 78.537 6.568 123.315 6.585zm0-52.862c-44.745-.016-88.484-2.35-123.209-6.578l-5.307-.667V212.8q2.551.335 5.2.656c34.757 4.232 78.537 6.566 123.315 6.582zm0-52.865c-44.745-.016-88.484-2.345-123.209-6.571l-5.307-.674v-51.992q2.551.335 5.2.656c34.762 4.232 78.543 6.566 123.316 6.582zM318.29 423.382q-2.568.338-5.307.667c-34.724 4.225-78.464 6.561-123.2 6.578v-52c44.777-.014 88.553-2.348 123.31-6.58l5.2-.656zm0-52.865l-5.307.674c-34.724 4.223-78.464 6.555-123.2 6.571v-52c44.777-.012 88.553-2.348 123.31-6.58l5.2-.658zm0-52.858q-2.568.331-5.307.667c-34.724 4.228-78.464 6.561-123.2 6.575v-52c44.777-.016 88.553-2.354 123.31-6.585l5.2-.658zm0-52.865q-2.568.335-5.307.667c-34.724 4.228-78.464 6.561-123.2 6.578v-52c44.777-.016 88.553-2.35 123.31-6.582l5.2-.656zm0-52.865q-2.568.338-5.307.674c-34.724 4.225-78.464 6.555-123.2 6.571v-52c44.777-.016 88.553-2.35 123.31-6.582l5.2-.656z"/><path d="M364.27 121.529c0 9.022-78.316 16.333-174.925 16.333-31.077 0-60.257-.755-85.545-2.081-53.348-2.801-89.384-8.131-89.384-14.252.165-1.347.625-2.641 1.346-3.791 1.749 1.321 5.19 2.591 10.09 3.791 14.66 3.588 42.476 6.571 77.944 8.43 25.288 1.326 54.469 2.083 85.545 2.083 89.237 0 162.868-6.239 173.583-14.3a9.23 9.23 0 0 1 1.342 3.791"/></g><path d="M362.929 117.738c-10.716 8.064-84.344 14.3-173.583 14.3-31.074 0-60.255-.755-85.545-2.083-47.342-2.482-81.056-6.963-88.036-12.217 8.828-16.386 61.693-68.88 170.9-69.73l2.684-.009c111.025 0 164.679 53.221 173.583 69.739" class="D"/><g class="C" opacity=".25"><g clip-path="url(#B)" transform="translate(14.416 121.529)"><path d="M89.384 14.255v318.891c-16.248-.854-30.893-1.942-43.4-3.213-.288-.035-.573-.058-.856-.09-28.043-2.9-45.125-6.734-45.125-10.946V.002c0 6.12 36.041 11.454 89.384 14.253"/></g></g><g class="B"><path d="M186.662 48.008v5.24c-65.833 13.811-82.86 76.712-82.86 76.712-47.34-2.487-81.054-6.968-88.037-12.222 8.831-16.386 61.7-68.883 170.9-69.73"/><path d="M156.955 38.607v11.157c0 1.922 13.3 3.48 29.71 3.48s29.714-1.558 29.714-3.48V38.607z"/></g><path d="M216.375 38.608c0 1.919-13.3 3.478-29.712 3.478s-29.708-1.559-29.708-3.478 13.3-3.478 29.712-3.478 29.712 1.553 29.712 3.478" class="D"/><path d="M576.18 212.8v239.368c0 4.944-37.721 8.95-84.257 8.95-6.66 0-13.132-.085-19.344-.237-37.21-.927-64.91-4.481-64.91-8.713V212.8z" class="B"/><path d="M576.18 212.8c0 4.944-37.721 8.95-84.257 8.95a772.35 772.35 0 0 1-19.344-.237c-37.21-.925-64.91-4.474-64.91-8.713 0-4.944 37.726-8.95 84.254-8.95s84.257 4.007 84.257 8.95" class="D"/><g class="C"><path d="M491.924 258.724c-22.52 0-43.7-.934-59.624-2.626-6.094-.553-12.145-1.507-18.113-2.856-4.746-1.19-6.95-2.43-6.95-3.9a.43.43 0 0 1 .653-.391.43.43 0 0 1 .21.391c0 1.606 6.382 4 24.294 5.9 15.9 1.687 37.042 2.617 59.53 2.617s43.633-.93 59.534-2.617c17.908-1.908 24.29-4.3 24.29-5.9a.43.43 0 0 1 .653-.391.43.43 0 0 1 .21.391c0 1.471-2.2 2.711-6.944 3.9a139.68 139.68 0 0 1-18.119 2.856c-15.926 1.692-37.1 2.626-59.624 2.626m0 54.668c-22.52 0-43.7-.932-59.624-2.624a139.57 139.57 0 0 1-18.113-2.858c-4.746-1.19-6.95-2.428-6.95-3.9a.43.43 0 0 1 .431-.411.43.43 0 0 1 .432.411c0 1.6 6.382 4 24.294 5.9 15.9 1.687 37.042 2.619 59.53 2.619s43.633-.932 59.534-2.619c17.908-1.9 24.29-4.3 24.29-5.9a.43.43 0 0 1 .431-.411.43.43 0 0 1 .432.411c0 1.473-2.2 2.711-6.944 3.9a139.92 139.92 0 0 1-18.119 2.858c-15.926 1.692-37.1 2.624-59.624 2.624m0 54.669c-22.52 0-43.7-.934-59.624-2.626a138.45 138.45 0 0 1-18.113-2.856c-4.746-1.188-6.95-2.426-6.95-3.9a.43.43 0 0 1 .653-.391.43.43 0 0 1 .21.391c0 1.6 6.382 4 24.294 5.9 15.9 1.689 37.042 2.621 59.53 2.621s43.633-.932 59.534-2.621c17.908-1.9 24.29-4.295 24.29-5.9a.43.43 0 0 1 .653-.391.43.43 0 0 1 .21.391c0 1.473-2.2 2.711-6.944 3.9a138.79 138.79 0 0 1-18.119 2.856c-15.926 1.692-37.1 2.626-59.624 2.626m0 54.667c-22.52 0-43.7-.93-59.624-2.621a139.64 139.64 0 0 1-18.113-2.856c-4.746-1.19-6.95-2.43-6.95-3.9a.43.43 0 0 1 .431-.411.43.43 0 0 1 .432.411c0 1.606 6.382 4 24.294 5.9 15.9 1.689 37.042 2.621 59.53 2.621s43.633-.932 59.534-2.621c17.908-1.9 24.29-4.295 24.29-5.9a.43.43 0 0 1 .431-.411.43.43 0 0 1 .432.411c0 1.473-2.2 2.713-6.944 3.9a139.98 139.98 0 0 1-18.119 2.856c-15.926 1.692-37.1 2.621-59.624 2.621"/></g><path d="M429.724 202.674V212.8c0 3.648 27.848 6.607 62.2 6.607s62.2-2.96 62.2-6.607v-10.126z" class="B"/><path d="M554.126 202.674c0 3.65-27.848 6.607-62.2 6.607s-62.2-2.957-62.2-6.607 27.848-6.608 62.2-6.608 62.2 2.96 62.2 6.608" class="D"/><path d="M464.946 182.202v20.214c0 1.583 12.078 2.868 26.98 2.868s26.985-1.284 26.985-2.868v-20.214z" class="C"/><path d="M518.911 182.202c0 1.579-12.085 2.863-26.985 2.863s-26.98-1.284-26.98-2.863 12.078-2.87 26.98-2.87 26.985 1.284 26.985 2.87" class="B"/><g fill="#4763a8"><path d="M496.769 28.566V182.2c0 .96-2.17 1.738-4.845 1.738s-4.845-.778-4.845-1.738V28.566c-.012-10.417-8.453-18.859-18.87-18.872H210.381c-10.418.011-18.861 8.454-18.872 18.872v10.046c0 .315-2.175.578-4.849.578s-4.843-.263-4.843-.578V28.566C181.836 12.798 194.613.02 210.381 0H468.21c15.766.023 28.54 12.8 28.559 28.566M2.612 462.086a.97.97 0 0 1-.969-.969V133.913a17.16 17.16 0 0 1 17.139-17.141h6.313a.97.97 0 0 1 .969.969.97.97 0 0 1-.969.969h-6.313c-8.39.011-15.189 6.81-15.2 15.2v327.2a.97.97 0 0 1-.969.969"/></g><path d="M44.918 116.772h-6.313a17.16 17.16 0 0 0-17.137 17.141v.969H2.612a.97.97 0 0 0-.969.969.97.97 0 0 0 .969.969h18.856v24H2.612a.97.97 0 0 0-.969.969.97.97 0 0 0 .969.969h18.856v24H2.612a.97.97 0 0 0-.84 1.455.97.97 0 0 0 .84.485h18.856v24H2.612a.97.97 0 0 0-.84 1.455.97.97 0 0 0 .84.485h18.856v24H2.612a.97.97 0 0 0-.84 1.455.97.97 0 0 0 .84.485h18.856v24H2.612a.97.97 0 0 0-.839 1.454.97.97 0 0 0 .839.484h18.856v24H2.612a.97.97 0 0 0-.84 1.455.97.97 0 0 0 .84.485h18.856v24H2.612a.97.97 0 0 0-.839 1.454.97.97 0 0 0 .839.484h18.856v24H2.612a.97.97 0 0 0-.839 1.454.97.97 0 0 0 .839.484h18.856v24H2.612a.97.97 0 0 0-.839 1.454.97.97 0 0 0 .839.484h18.856v24H2.612a.97.97 0 0 0-.838 1.452.97.97 0 0 0 .838.484h18.856v24H2.612a.97.97 0 0 0-.839 1.454.97.97 0 0 0 .839.484h18.856v24H2.612a.97.97 0 0 0-.839 1.454.97.97 0 0 0 .839.484h18.856v13.047a.97.97 0 0 0 1.454.839.97.97 0 0 0 .484-.839V133.913a15.22 15.22 0 0 1 15.2-15.2h6.312a.97.97 0 0 0 .969-.969.97.97 0 0 0-.969-.969" class="C"/><path fill="#4763a8" d="M589.98 238.898v224.285h-1.938V238.898c-.007-8.393-6.807-15.196-15.2-15.206h-6.313a.97.97 0 0 1-.969-.969.97.97 0 0 1 .969-.969h6.313c9.463.012 17.13 7.681 17.138 17.144"/><path d="M570.162 267.734v24h18.849a.97.97 0 0 1 .839 1.454.97.97 0 0 1-.839.484h-18.849v24h18.849a.97.97 0 0 1 .839 1.454.97.97 0 0 1-.839.484h-18.849v24h18.849a.97.97 0 0 1 .839 1.454.97.97 0 0 1-.839.484h-18.849v24h18.849a.97.97 0 0 1 .839 1.454.97.97 0 0 1-.839.484h-18.849v24h18.849a.97.97 0 0 1 .839 1.454.97.97 0 0 1-.839.484h-18.849v24h18.849a.97.97 0 1 1 0 1.94h-18.849v24h18.849a.97.97 0 0 1 .839 1.454.97.97 0 0 1-.839.484h-18.849v13.885h-1.942V238.892c-.007-8.393-6.807-15.196-15.2-15.206h-6.313a.97.97 0 0 1-.969-.969.97.97 0 0 1 .969-.969h6.313a17.17 17.17 0 0 1 17.144 17.144v.964h18.847a.97.97 0 0 1 0 1.94h-18.849v24h18.849a.97.97 0 0 1 .839 1.454.97.97 0 0 1-.839.484z" class="C"/><g class="C" opacity=".25"><g clip-path="url(#C)" transform="translate(407.669 212.798)"><path d="M64.91 8.715v239.368C27.7 247.156 0 243.602 0 239.367V.002c0 4.237 27.7 7.786 64.91 8.713"/></g></g></g></g></svg>