<svg version="1.2" xmlns="http://www.w3.org/2000/svg" viewBox="0 0 1365 663" width="1365" height="663"><style>.a{fill:#fff}</style><path class="a" d="m540.5 200q3.4 0.3 3.6 3.7 0 1-0.7 2.5l-30.8 63.3q-1 2.7-4.3 3-3-0.3-4-3l-30.9-63.4q-0.6-1.4-0.6-2.4 0.3-3.6 3.7-3.7 2.6-0.3 3.8 2.8l28.1 58.5h0.3l28.1-58.8q1.4-2.7 3.7-2.5z"/><path class="a" d="m623.8 200q3.4 0.3 3.5 3.7 0 1-0.7 2.5l-30.8 63.3q-1 2.7-4.3 3-3-0.3-4-3l-30.9-63.4q-0.6-1.4-0.6-2.4 0.3-3.6 3.7-3.7 2.7-0.3 3.9 2.8l28.1 58.5h0.3l28.1-58.8q1.3-2.7 3.7-2.5z"/><path class="a" d="m694.7 258.3q0 1.2-0.5 2.1-6.2 12.9-23 12.9-11.9 0-18.7-7.2-6.9-7.3-6.9-20.1v-64.6q0-4 3.9-4.3 3.7 0.1 3.7 4.3v19.5h33.4q3.6 0.1 3.9 3.5-0.3 3.4-3.9 3.6h-33.4v38.2q0 4.4 1.2 8.4 1.3 3.7 4.9 7.7 3.9 3.9 12.3 3.9 11.5 0 16.1-9.4 1-2.2 3.4-2.2 3.3 0.2 3.6 3.7z"/><path fill-rule="evenodd" class="a" d="m781.5 200q3.8 0.3 3.8 4.3v64q0 3.9-3.8 4.2-3.6-0.2-3.7-4.2v-10.4h-0.3q-2.1 3.4-5.4 6.5-2.7 2.7-8.8 6-5.9 2.9-16.2 2.9-15.9 0-26.1-10.2-4.5-4.9-6.8-10.4-2.3-5.5-2.6-8.1-0.3-2.6-0.6-8.4 0-8.2 3.3-16.8 3.1-8.4 12.3-14.6 9.2-6.2 20.5-5.7 10.4 0 16.2 3.1 9.7 5.1 14.2 12.3h0.3v-10.2q0.1-4.2 3.7-4.3zm-54.6 57.9q8.2 8.3 21.3 8.3 13 0 21.3-8.3 8.2-8.3 8.2-21.7 0-13.3-8.2-21.7-8.3-8.3-21.3-8.3-13.1 0-21.3 8.3-8.2 8.4-8.2 21.7 0 13.4 8.2 21.7z"/><path class="a" d="m861.3 258.3q0 1.2-0.5 2.1-6.2 12.9-23 12.9-11.9 0-18.7-7.2-6.9-7.3-6.9-20.1v-64.6q0-4 3.9-4.3 3.7 0.1 3.7 4.3v19.5h33.4q3.6 0.1 3.9 3.5-0.3 3.4-3.9 3.6h-33.4v38.2q0 4.4 1.2 8.4 1.3 3.7 4.9 7.7 3.9 3.9 12.3 3.9 11.5 0 16.1-9.4 1-2.2 3.4-2.2 3.3 0.2 3.6 3.7z"/><path class="a" d="m471.1 313.6h392.2v3.2h-392.2z"/><path class="a" d="m522.9 359.6l-23.1 52h-5.4l-23.1-52h6l19.9 45.2 20.1-45.2z"/><path fill-rule="evenodd" class="a" d="m555.8 387.4v24.2h-5.1v-6.1c-2.4 4-7 6.5-13.4 6.5-8.9 0-14.3-4.7-14.3-11.4 0-6 3.9-11.1 15.1-11.1h12.4v-2.3c0-6.7-3.8-10.4-11.1-10.4-5 0-9.8 1.8-13 4.6l-2.4-3.9c4-3.3 9.8-5.3 15.9-5.3 10.2 0 15.9 5.1 15.9 15.2zm-5.3 12.5v-6.4h-12.3c-7.5 0-10 2.9-10 6.9 0 4.6 3.7 7.4 9.9 7.4 5.9 0 10.3-2.8 12.4-7.9z"/><path class="a" d="m570.1 356.5h5.3v55.1h-5.3z"/><path class="a" d="m584.7 407.1l2.4-4.1c3.1 2.4 8.4 4.4 13.9 4.4 7.4 0 10.4-2.6 10.4-6.4 0-10.2-25.3-2.2-25.3-17.6 0-6.4 5.5-11.2 15.4-11.2 5.1 0 10.6 1.4 13.9 3.7l-2.3 4.2c-3.5-2.4-7.5-3.3-11.6-3.3-7 0-10.1 2.7-10.1 6.4 0 10.6 25.3 2.6 25.3 17.6 0 6.8-5.9 11.2-16.1 11.2-6.5 0-12.7-2.1-15.9-4.9z"/><path class="a" d="m647 409.2c-2.1 1.9-5.2 2.8-8.2 2.8-7.4 0-11.5-4.2-11.5-11.4v-23.6h-6.9v-4.5h6.9v-8.5h5.3v8.5h11.9v4.5h-11.9v23.3c0 4.6 2.4 7.1 6.8 7.1 2.1 0 4.3-0.6 5.8-2z"/><path class="a" d="m688.7 372.5l-19.5 43.8c-3.3 7.6-7.5 10.1-13 10.1-3.7 0-7.2-1.2-9.5-3.6l2.4-3.9c1.9 1.9 4.3 2.9 7.1 2.9 3.5 0 5.9-1.6 8.1-6.5l1.7-3.8-17.4-39h5.5l14.7 33.2 14.7-33.2c0 0 5.2 0 5.2 0z"/><path fill-rule="evenodd" class="a" d="m735.8 392.1c0 11.8-8.4 19.9-19.5 19.9-6.5 0-11.9-2.9-15.1-8.1v7.7h-5.1v-55.1h5.3v23.5c3.3-5.1 8.7-7.8 14.9-7.8 11.1 0 19.5 8 19.5 19.9zm-5.3 0c0-9.2-6.3-15.3-14.6-15.3-8.3 0-14.5 6.1-14.5 15.3 0 9.1 6.2 15.2 14.5 15.2 8.3 0 14.6-6.1 14.6-15.2z"/><path class="a" d="m749.2 364c-2.1 0-3.9-1.7-3.9-3.8 0-2 1.8-3.7 3.9-3.7 2.2 0 3.9 1.7 3.9 3.7 0 2.1-1.7 3.8-3.9 3.8zm-2.7 8.5h5.3v39.1h-5.3z"/><path class="a" d="m802.5 388.9v22.7h-5.3v-22.1c0-8.3-4.3-12.5-11.7-12.5-8.4 0-13.7 5.2-13.7 14.1v20.5h-5.3v-39.1h5.1v7.2c2.8-4.7 8.1-7.5 14.8-7.5 9.6 0 16.1 5.5 16.1 16.7z"/><path fill-rule="evenodd" class="a" d="m851 393.7h-32.7c0.6 8.2 6.9 13.6 15.4 13.6 4.8 0 9-1.7 12-5.1l2.9 3.4c-3.4 4.1-8.9 6.4-15 6.4-12.2 0-20.6-8.3-20.6-19.9 0-11.6 8.1-19.9 19.1-19.9 11 0 19 8.1 19 19.9 0 0.4-0.1 1-0.1 1.6zm-32.7-3.9h27.7c-0.6-7.7-6.2-13-13.9-13-7.5 0-13.1 5.3-13.8 13zm13.8-25c-1.9 0-3.5-1.6-3.5-3.6 0-1.9 1.6-3.5 3.5-3.5 2 0 3.6 1.6 3.6 3.5 0 2-1.6 3.6-3.6 3.6z"/><path class="a" d="m914.2 372.5l-17.4 39.1h-5.4l-17.4-39.1h5.5l14.7 33.3 14.8-33.3z"/><path fill-rule="evenodd" class="a" d="m949.9 387.4v24.2h-5v-6.1c-2.4 4-7 6.5-13.5 6.5-8.8 0-14.3-4.7-14.3-11.4 0-6 3.9-11.1 15.1-11.1h12.4v-2.3c0-6.7-3.7-10.4-11-10.4-5.1 0-9.8 1.8-13 4.6l-2.4-3.9c3.9-3.3 9.7-5.3 15.9-5.3 10.1 0 15.8 5.1 15.8 15.2zm-5.3 12.5v-6.4h-12.2c-7.6 0-10 2.9-10 6.9 0 4.6 3.6 7.4 9.8 7.4 6 0 10.4-2.8 12.4-7.9z"/><path class="a" d="m984 372.2v5.2c-0.5 0-0.9-0.1-1.3-0.1-8.2 0-13.2 5.2-13.2 14.4v19.9h-5.2v-39.1h5v7.7c2.5-5.2 7.5-8 14.7-8z"/><path class="a" d="m1015.8 409.2c-2.1 1.9-5.2 2.8-8.3 2.8-7.3 0-11.4-4.2-11.4-11.4v-23.6h-7v-4.5h7v-8.5h5.3v8.5h11.8v4.5h-11.8v23.3c0 4.6 2.3 7.1 6.7 7.1 2.2 0 4.3-0.6 5.8-2z"/><path fill-rule="evenodd" class="a" d="m1020 392.1c0-11.6 8.5-19.9 19.9-19.9 11.5 0 19.9 8.3 19.9 19.9 0 11.5-8.4 19.9-19.9 19.9-11.4 0-19.9-8.4-19.9-19.9zm34.4 0c0-9.2-6.2-15.3-14.5-15.3-8.3 0-14.6 6.1-14.6 15.3 0 9.1 6.3 15.2 14.6 15.2 8.3 0 14.5-6.1 14.5-15.2z"/><path class="a" d="m1091.1 409.2c-2.1 1.9-5.2 2.8-8.2 2.8-7.4 0-11.5-4.2-11.5-11.4v-23.6h-7v-4.5h7v-8.5h5.3v8.5h11.9v4.5h-11.9v23.3c0 4.6 2.4 7.1 6.8 7.1 2.1 0 4.3-0.6 5.8-2z"/><path fill-rule="evenodd" class="a" d="m1095.4 392.1c0-11.6 8.4-19.9 19.9-19.9 11.4 0 19.8 8.3 19.8 19.9 0 11.5-8.4 19.9-19.8 19.9-11.5 0-19.9-8.4-19.9-19.9zm34.4 0c0-9.2-6.2-15.3-14.5-15.3-8.4 0-14.6 6.1-14.6 15.3 0 9.1 6.2 15.2 14.6 15.2 8.3 0 14.5-6.1 14.5-15.2z"/><path class="a" d="m1131.8 423.8l1.9-4c1.6 1.4 3.6 2 6.1 2 4.2 0 6.5-2.5 6.5-7.3v-42h5.2v42c0 7.2-4 11.9-11.4 11.9-3.1 0-6.3-0.9-8.3-2.6zm17.1-59.8c-2.1 0-3.8-1.7-3.8-3.8 0-2 1.7-3.7 3.8-3.7 2.2 0 3.9 1.7 3.9 3.7 0 2.1-1.7 3.8-3.9 3.8z"/><path class="a" d="m1203 426.1c-1.8 1.2-4 1.8-6.3 1.8-5 0-8.2-2.7-8.2-7 0-3.2 1.8-6.9 7.9-10.1v-6.3c-2.7 4.7-7.8 7.5-14 7.5-10 0-16.5-5.6-16.5-16.8v-22.7h5.2v22.2c0 8.3 4.4 12.5 11.8 12.5 8.2 0 13.3-5.3 13.3-14.2v-20.5h5.3v39.1c-7.1 3.1-9.1 6.1-9.1 8.9 0 2.7 2.1 4.1 4.8 4.1 1.7 0 3.5-0.4 4.6-1.4z"/><path class="a" d="m499.1 491c-2.1 1.8-5.2 2.7-8.3 2.7-7.3 0-11.4-4.2-11.4-11.4v-23.6h-7v-4.4h7v-8.6h5.3v8.6h11.9v4.4h-11.9v23.3c0 4.6 2.3 7.2 6.7 7.2 2.2 0 4.3-0.7 5.8-2z"/><path fill-rule="evenodd" class="a" d="m541.3 475.4h-32.7c0.6 8.2 6.8 13.6 15.4 13.6 4.7 0 9-1.7 11.9-5.1l3 3.4c-3.5 4.2-8.9 6.4-15.1 6.4-12.2 0-20.5-8.3-20.5-19.9 0-11.6 8.1-19.8 19.1-19.8 11 0 19 8.1 19 19.8 0 0.4-0.1 1-0.1 1.6zm-32.7-3.9h27.7c-0.7-7.6-6.2-13-13.9-13-7.6 0-13.1 5.4-13.8 13z"/><path class="a" d="m554.8 445.7c-2.1 0-3.9-1.6-3.9-3.7 0-2.1 1.8-3.8 3.9-3.8 2.1 0 3.9 1.7 3.9 3.8 0 2.1-1.8 3.7-3.9 3.7zm-2.7 8.6h5.3v39h-5.3z"/><path class="a" d="m566.7 488.9l2.4-4.2c3.1 2.5 8.4 4.4 13.9 4.4 7.4 0 10.4-2.5 10.4-6.4 0-10.2-25.3-2.1-25.3-17.6 0-6.4 5.5-11.1 15.5-11.1 5 0 10.5 1.4 13.8 3.6l-2.3 4.2c-3.4-2.3-7.5-3.3-11.5-3.3-7.1 0-10.2 2.7-10.2 6.5 0 10.5 25.3 2.6 25.3 17.6 0 6.7-5.9 11.1-16.1 11.1-6.5 0-12.7-2.1-15.9-4.8z"/><path class="a" d="m611.1 445.7c-2.1 0-3.8-1.6-3.8-3.7 0-2.1 1.7-3.8 3.8-3.8 2.2 0 3.9 1.7 3.9 3.8 0 2.1-1.7 3.7-3.9 3.7zm-2.6 8.6h5.2v39h-5.2z"/><path class="a" d="m665.2 507.9c-1.7 1.2-4 1.8-6.3 1.8-5 0-8.2-2.8-8.2-7.1 0-3.2 1.8-6.9 7.9-10.1v-6.3c-2.7 4.8-7.8 7.5-14 7.5-10 0-16.5-5.6-16.5-16.8v-22.6h5.2v22.1c0 8.3 4.4 12.5 11.8 12.5 8.2 0 13.3-5.2 13.3-14.1v-20.5h5.3v39c-7.1 3.1-9.1 6.2-9.1 8.9 0 2.8 2.1 4.2 4.8 4.2 1.7 0 3.5-0.4 4.7-1.4z"/><path fill-rule="evenodd" class="a" d="m727.4 469.1v24.2h-5v-6.1c-2.4 4-7 6.5-13.5 6.5-8.8 0-14.2-4.6-14.2-11.4 0-6 3.8-11 15-11h12.5v-2.4c0-6.7-3.8-10.3-11.1-10.3-5.1 0-9.8 1.8-13 4.6l-2.4-3.9c3.9-3.4 9.7-5.3 15.9-5.3 10.1 0 15.8 5 15.8 15.1zm-5.2 12.5v-6.4h-12.3c-7.6 0-10 3-10 7 0 4.5 3.6 7.3 9.8 7.3 6 0 10.4-2.8 12.5-7.9z"/><path fill-rule="evenodd" class="a" d="m781.4 473.8c0 11.9-8.3 19.9-19.5 19.9-6.2 0-11.6-2.7-14.8-7.7v21.7h-5.3v-53.4h5v7.7c3.2-5.2 8.7-8 15.1-8 11.2 0 19.5 8 19.5 19.8zm-5.3 0c0-9.1-6.3-15.2-14.6-15.2-8.3 0-14.5 6.1-14.5 15.2 0 9.1 6.2 15.2 14.5 15.2 8.3 0 14.6-6.1 14.6-15.2z"/><path class="a" d="m786.7 488.9l2.4-4.2c3.1 2.5 8.4 4.4 13.9 4.4 7.4 0 10.5-2.5 10.5-6.4 0-10.2-25.4-2.1-25.4-17.6 0-6.4 5.5-11.1 15.5-11.1 5.1 0 10.6 1.4 13.8 3.6l-2.3 4.2c-3.4-2.3-7.5-3.3-11.5-3.3-7.1 0-10.2 2.7-10.2 6.5 0 10.5 25.4 2.6 25.4 17.6 0 6.7-6 11.1-16.2 11.1-6.4 0-12.7-2.1-15.9-4.8z"/><path fill-rule="evenodd" class="a" d="m858 469.1v24.2h-5.1v-6.1c-2.3 4-6.9 6.5-13.4 6.5-8.9 0-14.3-4.6-14.3-11.4 0-6 3.9-11 15.1-11h12.4v-2.4c0-6.7-3.8-10.3-11.1-10.3-5 0-9.8 1.8-13 4.6l-2.3-3.9c3.9-3.4 9.7-5.3 15.9-5.3 10.1 0 15.8 5 15.8 15.1zm-5.3 12.5v-6.4h-12.2c-7.6 0-10.1 3-10.1 7 0 4.5 3.7 7.3 9.9 7.3 6 0 10.3-2.8 12.4-7.9z"/><path class="a" d="m907.6 454.3v39h-5.1v-7.1c-2.7 4.8-7.8 7.5-14 7.5-10 0-16.5-5.6-16.5-16.8v-22.6h5.2v22.1c0 8.3 4.3 12.5 11.8 12.5 8.2 0 13.3-5.2 13.3-14.1v-20.5z"/><path fill-rule="evenodd" class="a" d="m958.5 488.6c0 13.4-6.6 19.5-19.5 19.5-7.1 0-14.1-2.1-18.2-6l2.7-4c3.7 3.3 9.3 5.3 15.4 5.3 9.8 0 14.4-4.5 14.4-14.2v-4.9c-3.3 4.9-8.9 7.5-15.3 7.5-11.1 0-19.6-7.8-19.6-19 0-11.2 8.5-18.8 19.6-18.8 6.6 0 12.2 2.6 15.5 7.8v-7.5h5zm-5.1-15.8c0-8.4-6.2-14.2-14.8-14.2-8.7 0-14.8 5.8-14.8 14.2 0 8.5 6.1 14.4 14.8 14.4 8.6 0 14.8-5.9 14.8-14.4z"/><path fill-rule="evenodd" class="a" d="m969.4 473.8c0-11.6 8.5-19.8 19.9-19.8 11.4 0 19.8 8.2 19.8 19.8 0 11.6-8.4 19.9-19.8 19.9-11.4 0-19.9-8.3-19.9-19.9zm34.4 0c0-9.1-6.2-15.2-14.5-15.2-8.3 0-14.6 6.1-14.6 15.2 0 9.1 6.3 15.2 14.6 15.2 8.3 0 14.5-6.1 14.5-15.2z"/><path class="a" d="m1014.5 488.9l2.4-4.2c3.1 2.5 8.4 4.4 13.9 4.4 7.4 0 10.4-2.5 10.4-6.4 0-10.2-25.3-2.1-25.3-17.6 0-6.4 5.5-11.1 15.5-11.1 5 0 10.5 1.4 13.8 3.6l-2.3 4.2c-3.4-2.3-7.5-3.3-11.5-3.3-7.1 0-10.2 2.7-10.2 6.5 0 10.5 25.3 2.6 25.3 17.6 0 6.7-5.9 11.1-16.1 11.1-6.5 0-12.7-2.1-15.9-4.8z"/><path class="a" d="m1096.3 491c-2.1 1.8-5.2 2.7-8.2 2.7-7.4 0-11.5-4.2-11.5-11.4v-23.6h-7v-4.4h7v-8.6h5.3v8.6h11.9v4.4h-11.9v23.3c0 4.6 2.4 7.2 6.8 7.2 2.1 0 4.3-0.7 5.8-2z"/><path fill-rule="evenodd" class="a" d="m1135.4 469.1v24.2h-5v-6.1c-2.4 4-7 6.5-13.5 6.5-8.8 0-14.3-4.6-14.3-11.4 0-6 3.9-11 15.1-11h12.4v-2.4c0-6.7-3.8-10.3-11-10.3-5.1 0-9.9 1.8-13.1 4.6l-2.3-3.9c3.9-3.4 9.7-5.3 15.9-5.3 10.1 0 15.8 5 15.8 15.1zm-5.3 12.5v-6.4h-12.2c-7.6 0-10.1 3-10.1 7 0 4.5 3.7 7.3 9.9 7.3 6 0 10.3-2.8 12.4-7.9z"/><path class="a" d="m1169.4 454v5.1c-0.4 0-0.8-0.1-1.2-0.1-8.2 0-13.2 5.2-13.2 14.4v19.9h-5.2v-39h5v7.6c2.5-5.2 7.4-7.9 14.6-7.9z"/><path class="a" d="m1214.9 470.7v22.6h-5.3v-22.1c0-8.2-4.3-12.5-11.7-12.5-8.4 0-13.7 5.2-13.7 14.1v20.5h-5.3v-39h5.1v7.2c2.8-4.8 8.1-7.5 14.9-7.5 9.5 0 16 5.5 16 16.7z"/><path class="a" d="m1261.4 454.3l-19.6 43.7c-3.2 7.7-7.4 10.1-13 10.1-3.6 0-7.1-1.2-9.5-3.6l2.5-3.9c1.9 1.9 4.3 3 7.1 3 3.5 0 5.9-1.7 8.1-6.6l1.7-3.7-17.5-39h5.5l14.8 33.2 14.7-33.2h5.2z"/><path fill-rule="evenodd" class="a" d="m1308.4 473.8c0 11.8-8.3 19.9-19.5 19.9-6.4 0-11.8-2.8-15-8.1v7.7h-5.1v-55.1h5.3v23.5c3.2-5.1 8.6-7.7 14.8-7.7 11.2 0 19.5 8 19.5 19.8zm-5.3 0c0-9.1-6.3-15.2-14.5-15.2-8.4 0-14.6 6.1-14.6 15.2 0 9.1 6.2 15.2 14.6 15.2 8.2 0 14.5-6.1 14.5-15.2z"/><path fill-rule="evenodd" class="a" d="m1348.5 469.1v24.2h-5.1v-6.1c-2.4 4-7 6.5-13.4 6.5-8.9 0-14.3-4.6-14.3-11.4 0-6 3.8-11 15.1-11h12.4v-2.4c0-6.7-3.8-10.3-11.1-10.3-5.1 0-9.8 1.8-13 4.6l-2.4-3.9c4-3.4 9.8-5.3 15.9-5.3 10.1 0 15.9 5 15.9 15.1zm-5.3 12.5v-6.4h-12.3c-7.6 0-10 3-10 7 0 4.5 3.6 7.3 9.9 7.3 5.9 0 10.3-2.8 12.4-7.9z"/><path class="a" d="m243.3 260.1c-0.5 34.9-17.4 41.1-42.2 55.5 14-24.3 5.3-59-16-92.4-6.6-10.3-14.4-20.5-23.1-30.2 33.6 0.4 48.2 7.3 70.3 30.6q0.7 1.3 1.4 2.5c6.2 11 9.8 22.4 9.6 34z"/><path class="a" d="m233.7 226.1c-13.9-6.8-30.7-7.2-48.6-2.9-67.6 16.5-151 101.8-155.9 176.7-8-18.9-10.3-25.2-10.3-47.4 0-82 64.8-159.5 139.9-159.5q1.6 0 3.2 0c33.6 0.4 48.2 7.3 70.3 30.6q0.7 1.3 1.4 2.5z"/><path class="a" d="m251.6 423.9c-30.9-16.3-28.7-34.2-30.3-62.8 15.3 23.4 50.2 31.5 89.6 27.7 12.2-1.1 24.8-3.4 37.4-6.8-15.6 29.7-28.4 39.6-59.2 48.7q-1.4 0.1-2.9 0.1c-12.6 0.5-24.3-1.5-34.6-6.9z"/><path class="a" d="m286.2 430.8c12.4-9.3 20.5-24 24.7-42 16-67.6-22.1-180.6-86.6-219 20.5 1.5 27.1 2.3 46.9 12.4 73.1 37.2 112.7 130.1 78.6 196.9q-0.7 1.5-1.5 3c-15.6 29.6-28.4 39.5-59.2 48.6q-1.4 0.1-2.9 0.1z"/><path class="a" d="m102.9 334.8c31-16 44.5-4.1 68.9 10.9-28-0.7-54.5 23.3-73.9 57.9-6 10.6-11.3 22.3-15.7 34.5-15.5-29.7-16.4-45.9-6.3-76.3q0.8-1.3 1.5-2.5c6.8-10.6 15.2-19.1 25.5-24.5z"/><path class="a" d="m77.4 359.3c0.6 15.5 8.2 30.5 20.5 44.2 46.5 51.7 161.1 84.9 229.5 53.8-12.9 16-17.4 21-36.9 31.5-72.3 38.7-171.3 18.3-206.8-47.8q-0.8-1.5-1.5-2.9c-15.5-29.7-16.4-45.9-6.3-76.3q0.8-1.3 1.5-2.5z"/></svg>