<svg version="1.2" xmlns="http://www.w3.org/2000/svg" viewBox="0 0 1365 663" width="1365" height="663">
	<title>VVTAT-svg</title>
	<style>
		.s0 { fill: #ffffff } 
	</style>
	<g id="Linijos">
		<g id="Žalias copy">
			<path id="Shape 1" fill-rule="evenodd" class="s0" d="m492.4 412.3q-0.9 6.2-3.2 12.3 0.3-1.3 0.3-2.6c0 0-111.8-6.4-126.3-29.6 0 0 2.5 35.7 23.2 50.6 25.8 19 68.6 17.4 79.3 17.4 0 0 7.1-6.8 13.8-16.5-9.3 15.2-19.6 26.1-19.6 26.1-12.6 0-53.2 3.3-83.5-25.4-30.3-28.7-22.6-77.4-22.6-77.4 14.8 45.1 138.6 45.1 138.6 45.1z"/>
			<path id="Shape 2" class="s0" d="m457 470.4c0 0 84.1-16.5 103.2-100 13.5-68.3 24.8-158.9-90.3-257.9-24.9-20.9-58.1-42.2-109.7-41.9 0 0 112.6 52.9 138.7 245 13.5 106.7-41.9 154.8-41.9 154.8z"/>
		</g>
		<g id="Raudonas copy">
			<path id="Shape 1 copy" fill-rule="evenodd" class="s0" d="m161.3 441.7q-2.6-2.3-4.8-4.9c10.6-18 59.6-96.7 96.4-98.6 0 0-31.3-13.9-66.8-3.6-35.8 10.7-49.6 46.1-55.1 55.8 0 0 0.3 2.6 1 6.5-3.3-7.5-4.9-12.9-4.9-12.9 6.5-11 23.9-47.7 63.9-59.7 40.3-11.6 78.3 19.4 78.3 19.4-46.4-10-108 98-108 98z"/>
			<path id="Shape 2 copy" class="s0" d="m128.4 381.4c0 0-27.7 80.9 35.2 139.3 52.2 46.1 125.1 100.9 268.2 50.9 30.7-11.3 65.8-29.3 91.3-74.2 0 0-101.9 71-281.5-2.2-99.3-41.9-113.2-113.8-113.2-113.8z"/>
		</g>
		<g id="Mėlynas copy">
			<path id="Shape 1 copy 2" fill-rule="evenodd" class="s0" d="m299 146.7c16.4-6.8 37.1-3.9 49.3-0.6q-2.6-2.9-4.5-4.9c0 0-24.8-2.9-45.5 4.5q0 0 0.7 1zm74.8 75.1c-7.4 44.5-36.1 54.8-36.1 54.8 18-33.5-32.6-119.9-38.7-129.9q-3.2 1.3-6.1 3.2c0 0 61.9 107.1 30.3 142.5 0 0 46.1-17.4 55.8-58.3 9.6-40.6-13.6-74.2-19.7-85.1 0 0-4.2-1.3-11-2.9 12.6 14.5 29.7 48.3 25.5 75.7z"/>
			<path id="Shape 2 copy 2" class="s0" d="m360.9 151.5c0 0-56.1-64.4-138-39.3-66.1 22.3-150.3 57.7-178.3 207-5.8 31.9-7.7 71.2 18.4 116 0 0-10.3-123.8 143.1-242.7 85.5-64.8 154.8-41 154.8-41z"/>
		</g>
		<path id="VVTAT copy" fill-rule="evenodd" class="s0" d="m1305 254.4c3.5 0 6.4 2.9 6.4 6.4 0 3.6-2.9 6.5-6.4 6.5h-51.6v67.7c0 10.3 9.3 20.9 28.7 20.9 19.3 0 19.6-7.7 26.1-14.5 6.4-6.8 11.6 0.3 9.7 3.2-2 2.9-10 22.6-35.5 22.6-31.9 0-39.7-22.6-41.6-30q-0.3-0.9-0.3-2.2v-112.9c0-3.5 2.9-6.4 6.4-6.4 3.6 0 6.5 2.9 6.5 6.4v32.3zm-583.6 0c3.2-1.3 6.4-0.3 9.7 6.4 3.2 6.8 41.9 87.1 41.9 87.1l41.9-87.1c0 0 3.9-10.3 9.7-6.4 5.8 3.8 3.2 9.6 3.2 9.6l-48.4 96.8c0 0-1.6 6.4-6.4 6.4-4.9 0-6.5-6.4-6.5-6.4l-48.3-96.8c-1.3-3.2 0-8.3 3.2-9.6zm264.4-29c0-3.6 2.9-6.5 6.4-6.5 3.6 0 6.5 2.9 6.5 6.5v29h48.3c3.6 0 6.5 2.9 6.5 6.4 0 3.6-2.9 6.5-6.5 6.5h-48.3v67.7c0 10.3 9.3 20.9 28.7 20.9 19.3 0 19.6-7.7 26.1-14.5 6.4-6.8 11.6 0.3 9.7 3.2-2 2.9-10 22.6-35.5 22.6-31.9 0-39.7-22.6-41.6-30q-0.3-0.9-0.3-2.2zm203.1 32.2c0-3.5 2.9-6.4 6.5-6.4 3.5 0 6.4 2.9 6.4 6.4v103.2c0 3.5-2.9 6.4-6.4 6.4-3.6 0-6.5-2.9-6.5-6.4v-15.2c-10.6 13.2-26.8 21.6-45.1 21.6-32.3 0-58.1-25.8-58.1-58 0-32.3 25.8-58 58.1-58 18.3 0 34.5 8.3 45.1 21.6zm2.3 50.4c0-26.1-21.2-47.2-47.3-47.2-26.1 0-47.2 21.1-47.2 47.2 0 26.1 21.1 47.2 47.2 47.2 26.1 0 47.3-21.1 47.3-47.2zm-340.8-53.7c3.2-1.3 6.4-0.3 9.6 6.5 3.3 6.8 41.9 87 41.9 87l42-87c0 0 3.8-10.3 9.6-6.5 5.8 3.6 3.3 9.7 3.3 9.7l-48.4 96.7c0 0-1.6 6.5-6.5 6.5-4.8 0-6.4-6.5-6.4-6.5l-48.4-96.7c-1.3-3.2 0-8.4 3.3-9.7zm-130.6 174.1h596.5c2.5 0 4.8 1.9 4.8 4.8 0 2.6-2.3 4.9-4.8 4.9h-596.5c-2.6 0-4.9-2.3-4.9-4.9 0-2.9 2.3-4.8 4.9-4.8z"/>
	</g>
</svg>