<svg xmlns="http://www.w3.org/2000/svg" xmlns:v="https://vecta.io/nano" xmlns:xlink="http://www.w3.org/1999/xlink" width="550.393" height="421.999"><style>.B{fill:none}.C{clip-path:url(#A)}.D{fill:#494949}.E{clip-path:url(#AK)}</style><defs><clipPath id="A"><path d="M0 0h550.393v421.999H0z" class="B"/></clipPath><clipPath id="B"><path d="M232.771,0c-8.748,0-30.194,3.951-32.451,11.852L183.389,313.779h98.76L265.22,11.851C262.963,3.95,241.517,0,232.771,0Z" class="B" transform="translate(-183.389 .001)"/></clipPath><linearGradient id="C" x1="-2.844" x2="-2.828" y1="1.345" y2="1.345"><stop offset="0" stop-color="#757575"/><stop offset=".708" stop-color="#eee"/><stop offset="1" stop-color="#bdbdbd"/></linearGradient><clipPath id="D"><path d="M227.328,0c-8.748,0-30.194,3.951-32.451,11.852l-1.248,22.268c5.52-6.944,25.186-10.416,33.7-10.416s28.177,3.472,33.7,10.416l-1.248-22.268C257.52,3.95,236.075,0,227.328,0Z" class="B" transform="translate(-193.629 .001)"/></clipPath><linearGradient id="E" x1="-4.4" x2="-4.377" y1="12.368" y2="12.368"><stop offset="0" stop-color="#821414"/><stop offset=".169" stop-color="#851515"/><stop offset=".3" stop-color="#8e1b1b"/><stop offset=".418" stop-color="#9f2424"/><stop offset=".528" stop-color="#b63230"/><stop offset=".633" stop-color="#d44341"/><stop offset=".708" stop-color="#ef5350"/><stop offset="1" stop-color="#c62828"/></linearGradient><clipPath id="F"><path d="M191.72 78l-3.1 55.276c12.3-6.034 31.678-7.927 41.37-7.927s29.069 1.893 41.369 7.927L268.258 78c-11.425-5.555-29.31-7.2-38.268-7.2s-26.845 1.646-38.27 7.2" class="B" transform="translate(-188.62 -70.798)"/></clipPath><linearGradient id="G" x1="-3.491" x2="-3.473" y1="5.019" y2="5.019" xlink:href="#E"/><clipPath id="H"><path d="M163.09,182.391v155.66H344.182V152.519Z" class="B" transform="translate(-163.09 -152.519)"/></clipPath><linearGradient id="I" x1="-1.379" x2="-1.371" y1="1.016" y2="1.016"><stop offset="0" stop-color="#757575"/><stop offset=".01" stop-color="#757575"/><stop offset="1" stop-color="#616161"/></linearGradient><clipPath id="J"><path d="M281.335,338.051h81.378V182.391l-81.378-29.872Z" class="B" transform="translate(-281.335 -152.519)"/></clipPath><linearGradient id="K" x1="-5.295" x2="-5.276" y1="1.016" y2="1.016"><stop offset="0" stop-color="#a2a2a2"/><stop offset="1" stop-color="#868686"/></linearGradient><clipPath id="L"><path d="M294.7,300.764h99.056V235.247L294.7,222.673Z" class="B" transform="translate(-294.702 -222.673)"/></clipPath><linearGradient id="M" x1="-4.556" x2="-4.541" y1="1.037" y2="1.037"><stop offset="0" stop-color="#eee"/><stop offset="1" stop-color="#e0e0e0"/></linearGradient><clipPath id="N"><path d="M265.638,235.247v65.518H310.15V222.673Z" class="B" transform="translate(-265.638 -222.673)"/></clipPath><linearGradient id="O" x1="-9.14" x2="-9.105" y1="1.037" y2="1.037"><stop offset="0" stop-color="#939393"/><stop offset="1" stop-color="#bdbdbd"/></linearGradient><clipPath id="P"><path d="M50.641,82.531l-35.9,299.5h196.93l-35.9-299.5c-3.077-9.486-33.846-17.949-62.566-17.949s-59.49,8.463-62.565,17.949" class="B" transform="translate(-14.741 -64.582)"/></clipPath><linearGradient id="Q" x1="-.115" x2="-.107" y1="1.018" y2="1.018" xlink:href="#C"/><clipPath id="R"><path d="M38.605,82.531,37.386,92.7c5.737-9.063,35.7-16.831,63.784-16.831s58.047,7.768,63.786,16.831l-1.219-10.165c-3.077-9.486-33.846-17.949-62.566-17.949S41.68,73.045,38.605,82.531" class="B" transform="translate(-37.386 -64.582)"/></clipPath><linearGradient id="S" x1="-.449" x2="-.437" y1="11.492" y2="11.492" xlink:href="#E"/><clipPath id="T"><path d="M33.861 144.38l-9.984 83.288c23.79-6.821 54.664-11.235 84.473-11.235s60.684 4.414 84.475 11.235l-9.984-83.288a313.31 313.31 0 0 0-148.98 0" class="B" transform="translate(-23.877 -135.396)"/></clipPath><linearGradient id="U" x1="-.216" x2="-.207" y1="2.326" y2="2.326" xlink:href="#E"/><clipPath id="V"><path d="M157.261,163.326l85.473,10.586V147.04l-85.473-10.586Z" class="B" transform="translate(-157.261 -136.454)"/></clipPath><linearGradient id="W" x1="-2.818" x2="-2.8" y1="5.687" y2="5.687"><stop offset="0" stop-color="#e0e0e0"/><stop offset="1" stop-color="#eee"/></linearGradient><clipPath id="X"><path d="M154.586,136.454v29.835l4.1-2.963V136.454Z" class="B" transform="translate(-154.586 -136.454)"/></clipPath><linearGradient id="Y" x1="-57.789" x2="-57.415" y1="7.14" y2="7.14" xlink:href="#O"/><clipPath id="Z"><path d="M0 0h62.471v34.609H0z" class="B"/></clipPath><clipPath id="a"><path d="M75.4,180.281V333.886H180.032V160.355Z" class="B" transform="translate(-75.397 -160.355)"/></clipPath><linearGradient id="b" x1="-1.104" x2="-1.089" y1="1.017" y2="1.017"><stop offset="0" stop-color="#82b1ff"/><stop offset="1" stop-color="#bbdefb"/></linearGradient><clipPath id="c"><path d="M75.4,220.684v87.147H180.032V209.378Z" class="B" transform="translate(-75.397 -209.378)"/></clipPath><linearGradient id="d" y1="1.029" y2="1.029" xlink:href="#b"/><clipPath id="e"><path d="M143.719,333.886h160.9V180.281l-160.9-19.926Z" class="B" transform="translate(-143.719 -160.355)"/></clipPath><linearGradient id="f" x1="-1.368" x2="-1.358" xlink:href="#b"/><clipPath id="g"><path d="M143.719,306h160.9V223.526l-160.9-10.7Z" class="B" transform="translate(-143.719 -212.827)"/></clipPath><linearGradient id="h" x1="-1.368" x2="-1.358" y1="1.031" y2="1.031" xlink:href="#b"/><clipPath id="i"><path d="M71.644,252.622v17.436H182.027V247.64Z" class="B" transform="translate(-71.644 -247.64)"/></clipPath><linearGradient id="j" x1="-.994" x2="-.98" y1="1.906" y2="1.906" xlink:href="#O"/><clipPath id="k"><path d="M0 0h104.636v37.101H0z" class="B"/></clipPath><clipPath id="l"><path d="M75.4,199.391l104.635-19.9v-17.2L75.4,181.18Z" class="B" transform="translate(-75.397 -162.29)"/></clipPath><linearGradient id="m" x1="-1.104" x2="-1.089" y1="4.675" y2="4.675" xlink:href="#O"/><clipPath id="n"><path d="M71.644,180.281v18.268l110.383-21v-17.2Z" class="B" transform="translate(-71.644 -160.355)"/></clipPath><linearGradient id="o" x1="-.994" x2="-.98" y1="4.619" y2="4.619" xlink:href="#O"/><clipPath id="p"><path d="M0 0h104.636v17.436H0z" class="B"/></clipPath><clipPath id="q"><path d="M0 0h104.635v17.436H0z" class="B"/></clipPath><linearGradient id="r" x1="-1.104" x2="-1.089" y1="1.165" y2="1.165"><stop offset="0" stop-color="#fff"/><stop offset=".116" stop-color="#fafafa"/><stop offset=".24" stop-color="#ededed"/><stop offset=".369" stop-color="#d8d8d8"/><stop offset=".5" stop-color="#bababa"/><stop offset=".633" stop-color="#939393"/><stop offset=".768" stop-color="#646464"/><stop offset=".902" stop-color="#2d2d2d"/><stop offset="1"/></linearGradient><clipPath id="s"><path d="M0 0h104.636v27.745H0z" class="B"/></clipPath><clipPath id="t"><path d="M75.4,237.123l104.635-11.018V209.378L75.4,220.684Z" class="B" transform="translate(-75.397 -209.378)"/></clipPath><linearGradient id="u" x1="-1.104" x2="-1.089" y1="3.652" y2="3.652" xlink:href="#O"/><clipPath id="v"><path d="M71.644,213.182v25.738L182.027,227.3V201.558Z" class="B" transform="translate(-71.644 -201.558)"/></clipPath><linearGradient id="w" x1="-.994" x2="-.98" y1="3.033" y2="3.033" xlink:href="#O"/><clipPath id="x"><path d="M0 0h149.268v132.855H0z" class="B"/></clipPath><clipPath id="y"><path d="M143.719,270.058H310.368V252.622L143.719,247.64Z" class="B" transform="translate(-143.719 -247.64)"/></clipPath><linearGradient id="z" x1="-1.321" x2="-1.312" y1="1.906" y2="1.906" xlink:href="#W"/><clipPath id="AA"><path d="M0 0h160.901v22.668H0z" class="B"/></clipPath><clipPath id="AB"><path d="M304.62,223.525l-160.9-10.7v11.446L304.62,235.5Z" class="B" transform="translate(-143.719 -212.826)"/></clipPath><linearGradient id="AC" x1="-1.368" x2="-1.358" y1="4.237" y2="4.237" xlink:href="#O"/><clipPath id="AD"><path d="M143.719,227.3l166.649,11.624V213.182L143.719,201.558Z" class="B" transform="translate(-143.719 -201.558)"/></clipPath><linearGradient id="AE" x1="-1.321" x2="-1.312" y1="3.033" y2="3.033" xlink:href="#W"/><clipPath id="AF"><path d="M0 0h160.901v37.871H0z" class="B"/></clipPath><clipPath id="AG"><path d="M304.62,181.53l-160.9-19.24v17.2l160.9,20.672Z" class="B" transform="translate(-143.719 -162.29)"/></clipPath><linearGradient id="AH" x1="-1.368" x2="-1.358" y1="4.58" y2="4.58" xlink:href="#O"/><clipPath id="AI"><path d="M143.719,177.554l166.649,21.41V180.281L143.719,160.355Z" class="B" transform="translate(-143.719 -160.355)"/></clipPath><linearGradient id="AJ" x1="-1.321" x2="-1.312" y1="4.569" y2="4.569" xlink:href="#W"/><clipPath id="AK"><path d="M0 0h160.901v17.436H0z" class="B"/></clipPath><linearGradient id="AL" x1="-1.368" x2="-1.358" xlink:href="#r"/><clipPath id="AM"><path d="M97.965,236.672v58.94h40.862V232.368Z" class="B" transform="translate(-97.965 -232.368)"/></clipPath><linearGradient id="AN" x1="-3.672" x2="-3.634" y1="1.046" y2="1.046" xlink:href="#O"/><clipPath id="AO"><path d="M0 0h31.538v55.773H0z" class="B"/></clipPath><clipPath id="AP"><path d="M101.009,240.75v52.269h31.538V237.246Z" class="B" transform="translate(-101.009 -237.246)"/></clipPath><linearGradient id="AQ" x1="-4.905" x2="-4.856" y1="1.052" y2="1.052" xlink:href="#r"/><clipPath id="AR"><path d="M0 0h550.393v6.578H0z" class="B"/></clipPath><linearGradient id="AS" x1="0" x2=".003" y1="1" y2="1" xlink:href="#I"/><path id="AT" d="M156.155 264.682h11.633v145.716h-11.633z"/></defs><g class="C"><g clip-path="url(#B)" transform="translate(280.861 -.002)"><path fill="url(#C)" d="M0 0h98.76v313.78H0z"/></g><g clip-path="url(#D)" transform="translate(296.543 -.002)"><path fill="url(#E)" d="M0 0h67.397v34.12H0z"/></g><g clip-path="url(#F)" transform="translate(288.872 108.427)"><path fill="url(#G)" d="M0 0h82.739v62.479H0z"/></g><g><g clip-path="url(#H)" transform="translate(249.773 233.583)"><path fill="url(#I)" d="M0 0h181.092v185.532H0z"/></g></g><g clip-path="url(#J)" transform="translate(430.865 233.583)"><path fill="url(#K)" d="M0 0h81.378v185.532H0z"/></g><g><g clip-path="url(#L)" transform="translate(451.337 341.024)"><path fill="url(#M)" d="M0 0h99.056v78.091H0z"/></g></g><g clip-path="url(#N)" transform="translate(406.825 341.024)"><path fill="url(#O)" d="M0 0h44.512v78.091H0z"/></g><g><g clip-path="url(#P)" transform="translate(22.576 98.907)"><path fill="url(#Q)" d="M0 0h196.93v317.447H0z"/></g></g><g><g clip-path="url(#R)" transform="translate(57.257 98.907)"><path fill="url(#S)" d="M0 0h127.569v28.114H0z"/></g></g><g clip-path="url(#T)" transform="translate(36.568 207.359)"><path fill="url(#U)" d="M0 0h168.948v92.271H0z"/></g><g class="C D"><path d="M256.324 232.343h6.359v19.543h-6.359zm43.052 4.321h6.359v19.545h-6.359z"/></g><g><g clip-path="url(#V)" transform="translate(240.845 208.98)"><path fill="url(#W)" d="M0 0h85.473v37.457H0z"/></g></g><g clip-path="url(#X)" transform="translate(236.749 208.98)"><path fill="url(#Y)" d="M0 0h4.097v29.835H0z"/></g><g class="C"><path d="M240.847 235.851l85.472 10.586-4.284 2.484-85.286-10.106z" class="D"/><g opacity=".5" style="mix-blend-mode:overlay"><g clip-path="url(#Z)" transform="translate(263.847 211.828)"><path fill="#fff" d="M35.073 31.216l27.4 3.394V7.737L.002 0z"/></g></g></g><g><g clip-path="url(#a)" transform="translate(115.471 245.584)"><path fill="url(#b)" d="M0 0h104.635v173.531H0z"/></g></g><g><g clip-path="url(#c)" transform="translate(115.471 320.663)"><path fill="url(#d)" d="M0 0h104.635v98.453H0z"/></g></g><g clip-path="url(#e)" transform="translate(220.106 245.584)"><path fill="url(#f)" d="M0 0h160.901v173.531H0z"/></g><g clip-path="url(#g)" transform="translate(220.106 325.945)"><path fill="url(#h)" d="M0 0h160.901v93.17H0z"/></g><g class="C"><use class="D" xlink:href="#AT"/><path fill="#5b5b5b" d="M220.106 253.058h11.633v157.34h-11.633z"/><path d="M208.473 253.058h11.633v157.34h-11.633z" class="D"/></g><g><g clip-path="url(#i)" transform="translate(109.723 379.261)"><path fill="url(#j)" d="M0 0h110.383v22.418H0z"/></g></g><g class="C"><g style="mix-blend-mode:multiply"><g clip-path="url(#k)" transform="translate(115.47 248.547)"><g clip-path="url(#l)"><path fill="url(#m)" d="M0 0h104.635v37.101H0z"/></g></g></g></g><g><g clip-path="url(#n)" transform="translate(109.723 245.584)"><path fill="url(#o)" d="M0 0h110.383v38.194H0z"/></g></g><g class="C"><path fill="#2d2d2d" d="M115.471 401.679h104.635v17.436H115.471z"/><g opacity=".63" style="mix-blend-mode:multiply"><g clip-path="url(#p)" transform="translate(115.47 401.679)"><g clip-path="url(#q)"><path fill="url(#r)" d="M0 0h104.635v17.436H0z"/></g></g></g><path d="M131.847 328.198h66.891v90.918h-66.891z" class="D"/><g style="mix-blend-mode:multiply"><g clip-path="url(#s)" transform="translate(115.47 320.663)"><g clip-path="url(#t)"><path fill="url(#u)" d="M0 0h104.635v27.745H0z"/></g></g></g></g><g clip-path="url(#v)" transform="translate(109.723 308.686)"><path fill="url(#w)" d="M0 0h110.383v37.363H0z"/></g><g class="C"><g opacity=".22" style="mix-blend-mode:overlay"><g clip-path="url(#x)" transform="translate(231.739 246.975)"><path fill="#fff" d="M149.268 18.537L0 0l149.268 132.855z"/></g></g><g fill="#5b5b5b"><path d="M275.716 264.682h11.633v145.716h-11.633zm55.63 0h11.633v145.716h-11.633z"/></g></g><g clip-path="url(#y)" transform="translate(220.106 379.261)"><path fill="url(#z)" d="M0 0h166.649v22.418H0z"/></g><g class="C"><g style="mix-blend-mode:multiply"><g clip-path="url(#AA)" transform="translate(220.106 325.944)"><g clip-path="url(#AB)" transform="translate(0 -.001)"><path fill="url(#AC)" d="M0 0h160.901v22.669H0z"/></g></g></g></g><g clip-path="url(#AD)" transform="translate(220.106 308.686)"><path fill="url(#AE)" d="M0 0h166.649v37.363H0z"/></g><g class="C"><g style="mix-blend-mode:multiply"><g clip-path="url(#AF)" transform="translate(220.106 248.547)"><g clip-path="url(#AG)"><path fill="url(#AH)" d="M0 0h160.901v37.871H0z"/></g></g></g></g><g clip-path="url(#AI)" transform="translate(220.106 245.584)"><path fill="url(#AJ)" d="M0 0h166.649v38.609H0z"/></g><g class="C"><path d="M220.106 401.679h160.901v17.436H220.106z" class="D"/><g opacity=".63" style="mix-blend-mode:multiply"><g class="E"><g class="E"><path fill="url(#AL)" d="M0 0h160.901v17.436H0z" transform="translate(220.106 401.679)"/></g></g></g></g><g clip-path="url(#AM)" transform="translate(150.034 355.872)"><path fill="url(#AN)" d="M0 0h40.862v63.243H0z"/></g><g class="C"><path fill="#2d2d2d" d="M154.696 366.847v52.269h31.537v-55.773z"/><g opacity=".63" style="mix-blend-mode:multiply"><g clip-path="url(#AO)" transform="translate(154.695 363.343)"><g clip-path="url(#AP)"><path fill="url(#AQ)" d="M0 0h31.538v55.773H0z"/></g></g></g></g><g><g clip-path="url(#AR)" transform="translate(0 415.421)"><path fill="url(#AS)" d="M0 0h550.393v6.578H0z"/></g></g></g></svg>