<svg xmlns="http://www.w3.org/2000/svg" xmlns:v="https://vecta.io/nano" xmlns:xlink="http://www.w3.org/1999/xlink" width="427.592" height="425.5"><style>.B{opacity:.2}.C{fill:none}.D{fill:#5796dc}.E{fill:#3d6dc7}.F{fill:#c9d2ed}.G{fill:#96cefc}.H{fill:#3965b8}.I{fill:#3a3a54}.J{fill:#1d315b}.K{fill:#e9ebf3}.L{fill:#96a4d2}.M{fill:#4f4d73}.N{clip-path:url(#F)}.O{fill:#8582b4}.P{clip-path:url(#A)}.Q{clip-path:url(#H)}</style><defs><clipPath id="A"><path d="M0 0h427.592v425.5H0z" class="C"/></clipPath><clipPath id="B"><path d="M0 0h22.877v14.108H0z" class="C"/></clipPath><clipPath id="C"><path d="M0 0h42.369v29.017H0z" class="C"/></clipPath><clipPath id="D"><path d="M0 0h41.713v24.006H0z" class="C"/></clipPath><clipPath id="E"><path d="M0 0h83.73v19.24H0z" class="C"/></clipPath><clipPath id="F"><path d="M0 0h71.955v2.464H0z" class="C"/></clipPath><clipPath id="G"><path d="M0 0h71.956v2.467H0z" class="C"/></clipPath><clipPath id="H"><path d="M0 0h71.956v2.464H0z" class="C"/></clipPath><clipPath id="I"><path d="M0 0h22.777v91.845H0z" class="C"/></clipPath><clipPath id="J"><path d="M0 0h65.489v24.174H0z" class="C"/></clipPath><clipPath id="K"><path d="M0 0h102.096v20.653H0z" class="C"/></clipPath><clipPath id="L"><path d="M0 0h225.431v30.291H0z" class="C"/></clipPath><clipPath id="M"><path d="M0 0h391.53v108.169H0z" class="C"/></clipPath><clipPath id="N"><path d="M0 0h325.559v53.31H0z" class="C"/></clipPath><path id="O" d="M69.624 2.464H2.331A2.33 2.33 0 0 1 .001.134V0h71.954v.134a2.33 2.33 0 0 1-2.33 2.33"/><path id="P" d="M251.488 36.96h-71.576c-.852 0-1.543-.691-1.543-1.543s.691-1.543 1.543-1.543h71.576c.852 0 1.543.691 1.543 1.543s-.691 1.543-1.543 1.543"/><path id="Q" d="M254.498 54.029h-71.576c-.852 0-1.543-.691-1.543-1.543s.691-1.543 1.543-1.543h71.576c.551 0 1.061.294 1.336.771s.276 1.066 0 1.543-.785.772-1.336.771"/><path id="R" d="M227.692 51.295h-40.246c-.196 0-.355-.159-.355-.355s.159-.355.355-.355h40.245c.196 0 .355.159.355.355s-.159.355-.355.355"/><path id="S" d="M158.152 118.892h-23.293c-1.285.001-2.518-.51-3.427-1.419s-1.419-2.142-1.419-3.427V16.521c0-1.285.511-2.518 1.419-3.427s2.141-1.419 3.427-1.419h23.293c1.285 0 2.518.511 3.427 1.419s1.419 2.141 1.419 3.427v97.526c.001 1.285-.51 2.518-1.419 3.427s-2.142 1.419-3.427 1.419"/><path id="T" d="M43.903 277.978c0 2.941-.676 5.323-1.512 5.323s-1.509-2.382-1.509-5.323.676-5.323 1.509-5.323 1.512 2.382 1.512 5.323"/></defs><g class="P"><g class="H"><path d="M132.783 19.362h3.928v117.309h-3.928z"/><path d="M129.39 19.362h3.393v117.309h-3.393z"/><path d="M176.559 131.537l-43.779-24.615v29.75h43.779z"/></g><g class="P"><path d="M220.42 24.893h-37.816V5.781a5.78 5.78 0 0 1 5.781-5.779h26.257c1.533 0 3.002.608 4.086 1.692s1.692 2.553 1.692 4.086z" class="M"/><g style="mix-blend-mode:overlay" class="B"><g clip-path="url(#B)" transform="translate(182.604 1.532)"><path fill="#fff" d="M17.387 13.212C22.878 18.308 22.878 0 22.878 0H1.87C.679 1.09 0 2.631 0 4.246v4.371c4.465.125 13.363.858 17.387 4.6"/></g></g><path fill="#595781" d="M235.806 24.893H197.99V5.781a5.78 5.78 0 0 1 5.781-5.779h26.253c1.533 0 3.002.608 4.086 1.692s1.692 2.553 1.692 4.086z"/><path d="M234.364 24.893h-33.808V5.61c-.001-1.081.429-2.118 1.193-2.883s1.801-1.195 2.882-1.195h25.656c1.081 0 2.118.43 2.882 1.195s1.193 1.802 1.193 2.883z" class="I"/><path fill="#e7ecdf" d="M231.151 7.6c0 1.085-.654 2.063-1.656 2.479s-2.157.186-2.924-.582-.997-1.921-.582-2.924 1.394-1.656 2.479-1.656c1.482.001 2.682 1.201 2.683 2.683"/><path fill="#b4b8ad" d="M229.956 7.599a1.49 1.49 0 0 1-2.542 1.053 1.49 1.49 0 0 1 1.053-2.542 1.49 1.49 0 0 1 1.489 1.489"/><path fill="#75bafc" d="M290.852 65.284c0 22.483-7.568 40.709-13.948 40.709s-11.547-18.226-11.547-40.709 5.17-40.706 11.547-40.706 13.948 18.229 13.948 40.706"/><path d="M276.907 24.578H245.73v81.415h31.177c6.377 0 11.55-18.226 11.55-40.706s-5.172-40.709-11.55-40.709" class="D"/><g style="mix-blend-mode:overlay" class="B"><g clip-path="url(#C)" transform="translate(245.729 27.826)"><path fill="#fff" d="M.001 0v29.017c5.235-.921 10.528-1.471 15.841-1.646h26.527c-.767-10.592-2.711-19.522-5.315-24.956C28.775 2.665 5.406 3.074 0-.001"/></g></g><g style="mix-blend-mode:overlay" class="B"><g clip-path="url(#D)" transform="translate(245.729 81.986)"><path d="M28.589 2.419H3.343L.001 7.254v16.752h31.174c4.692 0 8.728-9.853 10.535-24a40.09 40.09 0 0 1-13.121 2.416"/></g></g><path d="M257.28 65.284c0 22.483-5.17 40.709-11.55 40.709s-11.55-18.226-11.55-40.709 5.17-40.706 11.547-40.706 11.553 18.229 11.553 40.706" class="H"/><path fill="#4e89d1" d="M244.812 26.067h-74.15V104.5h74.15c6.144 0 11.126-17.558 11.126-39.217s-4.978-39.216-11.126-39.216"/><g style="mix-blend-mode:overlay" class="B"><g clip-path="url(#E)" transform="translate(170.66 85.263)"><path d="M80.212 1.356H.002V19.24h74.15c4.075 0 7.636-7.725 9.575-19.24-.953.89-2.214 1.377-3.518 1.356"/></g></g><g style="mix-blend-mode:overlay" class="B"><g class="N"><path d="M69.629 2.464h-67.3A2.33 2.33 0 0 1-.001.134V0h71.954v.134a2.33 2.33 0 0 1-2.33 2.33" transform="translate(179.533 35.778)"/></g></g><g style="mix-blend-mode:overlay" class="B"><g clip-path="url(#G)" transform="translate(181.585 44.261)"><path d="M69.624 2.467H2.331A2.33 2.33 0 0 1 .001.137V.003h71.954v.134a2.33 2.33 0 0 1-2.33 2.33"/></g></g><g style="mix-blend-mode:overlay" class="B"><g class="Q" transform="translate(182.734 52.796)"><use xlink:href="#O"/></g></g><g style="mix-blend-mode:overlay" class="B"><g class="N" transform="translate(183.35 61.33)"><use xlink:href="#O"/></g></g><g style="mix-blend-mode:overlay" class="B"><g class="N" transform="translate(183.35 69.862)"><use xlink:href="#O"/></g></g><g style="mix-blend-mode:overlay" class="B"><g class="Q" transform="translate(182.434 78.396)"><use xlink:href="#O"/></g></g><g fill="#75bafc"><use xlink:href="#P"/><path d="M253.35 45.494h-71.576c-.852 0-1.543-.691-1.543-1.543s.691-1.543 1.543-1.543h71.576c.852 0 1.543.691 1.543 1.543s-.691 1.543-1.543 1.543"/><use xlink:href="#Q"/><path d="M255.114 62.56h-71.576c-.852 0-1.543-.691-1.543-1.543s.691-1.543 1.543-1.543h71.576c.551 0 1.061.294 1.336.771s.276 1.066 0 1.543a1.54 1.54 0 0 1-1.336.771m0 8.536h-71.576c-.852 0-1.543-.691-1.543-1.543s.691-1.543 1.543-1.543h71.576c.551 0 1.061.294 1.336.771s.276 1.066 0 1.543a1.54 1.54 0 0 1-1.336.771m-.616 8.532h-71.576c-.852 0-1.543-.691-1.543-1.543s.691-1.543 1.543-1.543h71.576c.551 0 1.061.294 1.336.771s.276 1.066 0 1.543a1.54 1.54 0 0 1-1.336.771"/></g><g class="D"><path d="M253.35 88.161h-71.576c-.852 0-1.543-.691-1.543-1.543s.691-1.543 1.543-1.543h71.576c.551 0 1.061.294 1.336.771s.276 1.066 0 1.543a1.54 1.54 0 0 1-1.336.771m-1.862 8.533h-71.576c-.852 0-1.543-.691-1.543-1.543s.691-1.543 1.543-1.543h71.576c.551 0 1.061.294 1.336.771s.276 1.066 0 1.543a1.54 1.54 0 0 1-1.336.771m-72.57-71.802h60.577v2.274h-60.577z"/></g><path d="M169.998 25.143h-6.2v6.46c-3.123 7.156-5.189 19.567-5.189 33.68s2.063 26.525 5.189 33.681v6.46h6.2c6.289 0 11.388-17.97 11.388-40.14s-5.103-40.141-11.388-40.141" class="H"/><g class="G"><path d="M254.58 91.79c-.028 0-.055-.003-.082-.009-.191-.046-.309-.238-.264-.429a117.07 117.07 0 0 0 2.689-26.07c0-19.746-4.112-36.9-9.566-39.9-.083-.045-.144-.12-.171-.21s-.016-.187.029-.27a.36.36 0 0 1 .483-.142c5.758 3.172 9.936 20.215 9.936 40.527a117.7 117.7 0 0 1-2.71 26.231c-.037.16-.18.273-.344.273m33.874-26.152c-.094 0-.184-.037-.251-.104s-.104-.157-.104-.251c0-10.473-1.128-20.411-3.175-27.982-.043-.186.069-.373.253-.423s.375.055.432.238c2.063 7.631 3.2 17.635 3.2 28.167 0 .094-.037.184-.104.251s-.157.104-.251.104m-64.351-31.415h-40.249c-.196 0-.355-.159-.355-.355s.159-.355.355-.355h40.248c.196 0 .355.159.355.355s-.159.355-.355.355m2.007 8.539h-40.246c-.127 0-.244-.068-.307-.177s-.063-.245 0-.355.181-.178.307-.177h40.245c.196 0 .355.159.355.355s-.159.355-.355.355"/><use xlink:href="#R"/><path d="M228.528 59.829h-40.246c-.196 0-.355-.159-.355-.355s.159-.355.355-.355h40.245c.196 0 .355.159.355.355s-.159.355-.355.355m8.541-34.584h-50.483c-.196 0-.355-.159-.355-.355s.159-.355.355-.355h50.482c.196 0 .355.159.355.355s-.159.355-.355.355M207.57 68.364h-19.286c-.196 0-.356-.159-.356-.356s.159-.356.356-.356h19.286c.196 0 .356.159.356.356s-.159.356-.356.356m-5.334 8.531h-13.952c-.196 0-.355-.159-.355-.355s.159-.355.355-.355h13.952c.196 0 .355.159.355.355s-.159.355-.355.355"/></g><path fill="#3d62ab" d="M175.179 65.283c0-20.536-4.38-37.466-10.024-39.842v-.009l-12.75-6.07v91.847l12.755-6.073v-.006c5.644-2.381 10.019-19.305 10.019-39.847"/><g style="mix-blend-mode:overlay" class="B"><g clip-path="url(#I)" transform="translate(152.407 19.362)"><path d="M12.324 60.264C10.074 57.559 2.857 13.929.649.307L.001 0v91.845l12.752-6.07v-.009c5.647-2.379 10.027-19.3 10.027-39.845l-.009-1.179c-2.512 12.854-8.279 18.131-10.447 15.522"/></g></g><path d="M166.237 83.168l-11.891 1.907v-39.58l11.888 1.9a5.26 5.26 0 0 1 4.428 5.2v25.381a5.26 5.26 0 0 1-4.425 5.192" class="J"/><path d="M163.795 19.362h3.928v117.309h-3.928z" class="D"/><path d="M160.402 19.362h3.393v117.309h-3.393z" class="H"/><path d="M207.57 131.537l-43.775-24.615v29.75h43.775z" class="D"/><use class="I" xlink:href="#S"/><path d="M151.962 118.892h-23.293c-1.285.001-2.518-.51-3.427-1.419s-1.419-2.142-1.419-3.427V16.521c0-1.285.511-2.518 1.419-3.427s2.141-1.419 3.427-1.419h23.293c1.285 0 2.518.511 3.427 1.419s1.419 2.141 1.419 3.427v97.526c.001 1.285-.51 2.518-1.419 3.427s-2.142 1.419-3.427 1.419" class="M"/><path d="M156.807 89.511c-.094 0-.184-.037-.251-.104s-.104-.157-.104-.251V16.523c-.002-2.479-2.011-4.488-4.49-4.49h-16.578c-.196 0-.355-.159-.355-.355s.159-.355.355-.355h16.578a5.21 5.21 0 0 1 5.2 5.2v72.633c0 .094-.037.184-.104.251s-.157.104-.251.104" class="O"/><path d="M150.631 13.212h-20.633c-14.588 0-63.47 4.428-71.706 8.89v86.368c8.236 4.459 57.118 8.89 71.706 8.89h20.633c1.285 0 2.518-.511 3.427-1.419s1.419-2.141 1.419-3.427V18.058c.001-1.285-.51-2.518-1.419-3.427s-2.142-1.419-3.427-1.419" class="I"/><path d="M152.211 24.578h-13.9c-7.952 0-31.017 2.268-42.485 4.979-3.415.797-5.833 3.84-5.837 7.347V93.67a7.56 7.56 0 0 0 5.834 7.346c11.467 2.711 34.533 4.976 42.485 4.976h13.9c1.942-.155 3.398-1.844 3.265-3.788V28.369a3.56 3.56 0 0 0-3.265-3.791" class="M"/><path d="M79.419 109.502h-16.91a9.13 9.13 0 0 1-9.131-9.131V30.199a9.13 9.13 0 0 1 9.131-9.131h16.91a9.13 9.13 0 0 1 9.131 9.131v70.172a9.13 9.13 0 0 1-9.131 9.131" class="I"/><path fill="#313146" d="M76.197 104.636H65.732a9.13 9.13 0 0 1-9.128-9.128V35.064a9.13 9.13 0 0 1 9.128-9.131h10.465a9.13 9.13 0 0 1 9.131 9.131v60.444a9.13 9.13 0 0 1-9.131 9.131"/><path d="M56.604 83.921c-.094 0-.184-.037-.251-.104s-.104-.157-.104-.251v-48.5a9.5 9.5 0 0 1 9.487-9.488h10.461a9.5 9.5 0 0 1 9.487 9.487c0 .196-.159.356-.356.356s-.355-.159-.355-.356c-.004-4.845-3.931-8.772-8.776-8.777H65.736c-4.846.003-8.775 3.931-8.779 8.777v48.5c0 .094-.037.184-.104.251s-.157.104-.251.104" class="O"/><g style="mix-blend-mode:overlay" class="B"><g clip-path="url(#J)" transform="translate(89.987 24.578)"><path fill="#fff" d="M65.49 16.108V3.788C65.623 1.844 64.167.155 62.225 0h-13.9C40.376 0 17.308 2.265 5.84 4.976 2.426 5.774.009 8.817.005 12.323v11.851c16.722-4.286 48.365-6.9 65.488-8.066"/></g></g><g style="mix-blend-mode:overlay" class="B"><g clip-path="url(#K)" transform="translate(53.38 13.212)"><path fill="#fff" d="M97.251 0H76.618C62.03 0 13.148 4.428 4.912 8.89h0C1.894 10.462.001 13.582.001 16.984v3.667c0-8.427 5.064-9.288 16.373-9.288s18.371.83 20.766 2.586c2.3 1.688 36.139-4.934 64.957-4.891V4.846c.001-1.285-.51-2.518-1.419-3.427S98.536-.001 97.251 0"/></g></g><path d="M95.252 24.932c-.177-.008-.32-.146-.337-.322s.099-.337.272-.378c10.683-2.006 36.895-5.707 49.826-6.508.13-.013.257.045.331.153s.083.247.023.364-.178.19-.309.194c-12.908.8-39.075 4.49-49.741 6.5l-.065.006" class="O"/><path d="M135.387 8.401h-18.678v5.744c3.915.557 7.866.828 11.82.81 2.39 0 4.692-.091 6.858-.256z" class="F"/><path d="M133.838 8.756h-14.759c-.196 0-.355-.159-.355-.355s.159-.355.355-.355h14.759c.196 0 .355.159.355.355s-.159.355-.355.355" class="K"/><g class="E"><path d="M105.918 393.763v28.008h3.888v-35.755c-1.146 2.655-2.444 5.241-3.888 7.747"/><path d="M109.806 386.019h23.56v35.755h-23.56z"/><path d="M100.143 421.774h39.001v3.726h-39.001zm151.115-28.011v28.008h3.891v-35.755a75.23 75.23 0 0 1-3.888 7.747"/><path d="M255.145 386.019h23.56v35.755h-23.56z"/><path d="M245.483 421.774h39.001v3.726h-39.001zM123.226 139.735v37.122l1.316 2.694h22.378v-39.816zm16.9 35.155h-10.099v-30.5h10.095z"/><path d="M124.542 179.551h23.694v-39.816h-23.694zm16.893-4.661H131.34v-30.5h10.095zm124.328-35.155v37.122l1.313 2.694h22.374v-39.816zm16.893 35.155h-10.095v-30.5h10.095z"/><path d="M267.076 179.551h23.694v-39.816h-23.694zm16.893-4.661h-10.095v-30.5h10.095z"/><path d="M123.226 136.671H290.77v3.061H123.226z"/></g><g class="D"><path d="M328.295 277.978c0-71.09 16.35-128.719 36.52-128.719s62.774 20.815 62.774 128.719c0 108.129-42.6 128.719-62.774 128.719s-36.52-57.63-36.52-128.719"/><path d="M364.815 149.259H95.045v257.436h269.77c20.17 0 36.52-57.63 36.52-128.717s-16.35-128.719-36.52-128.719"/></g><g fill="#5ea2ee"><path d="M342.962 149.259h-7.187c20.17 0 36.52 57.63 36.52 128.719s-16.35 128.717-36.52 128.717h7.187c20.17 0 36.52-57.63 36.52-128.717s-16.35-128.719-36.52-128.719m-214.618 0h-7.187c20.17 0 36.52 57.63 36.52 128.719s-16.351 128.717-36.52 128.717h7.187c20.17 0 36.52-57.63 36.52-128.717s-16.35-128.719-36.52-128.719"/></g><g class="G"><path d="M161.203 334.585h-.048c-.192-.029-.326-.207-.3-.4 2.498-18.628 3.721-37.405 3.66-56.2 0-46.654-7.187-89.724-18.757-112.406-.089-.175-.019-.389.157-.478s.389-.019.477.156c11.611 22.765 18.83 65.96 18.83 112.72a413.77 413.77 0 0 1-3.666 56.3c-.025.176-.175.306-.352.307m214.615.001h-.048c-.192-.029-.326-.207-.3-.4a412.84 412.84 0 0 0 3.66-56.2c0-46.654-7.187-89.724-18.757-112.406-.089-.175-.019-.389.156-.478s.389-.019.478.156c11.611 22.765 18.829 65.96 18.829 112.72a413.8 413.8 0 0 1-3.666 56.3c-.025.176-.175.306-.352.307"/></g><g style="mix-blend-mode:overlay" class="B"><g clip-path="url(#L)" transform="translate(110.561 149.259)"><path d="M58.985 30.29h166.228s2.9-18.481-12.471-30.287H-.003c23.162 0 50.619 18.456 58.986 30.287"/></g></g><path d="M131.567 277.978c0 71.09-16.35 128.719-36.52 128.719s-62.773-20.814-62.773-128.719c0-108.129 42.6-128.719 62.774-128.719s36.52 57.63 36.52 128.719" class="D"/><g style="mix-blend-mode:overlay" class="B"><g clip-path="url(#M)" transform="translate(32.833 298.526)"><path d="M353.328 40.216H108.601c-38.12 0-82.065-3.695-108.6-40.217 5.059 90.043 43.4 108.169 62.211 108.169h269.77c16.822 0 49.246-14.335 59.548-81.827a58.22 58.22 0 0 1-38.2 13.875"/></g></g><path d="M88.579 277.978c0 54.8-12.6 99.234-28.156 99.234S32.27 332.783 32.27 277.978s12.6-99.234 28.153-99.234 28.156 44.429 28.156 99.234" class="E"/><path d="M82.599 339.487c-.108 0-.209-.049-.277-.133s-.093-.194-.07-.299c3.908-17.572 5.971-38.694 5.971-61.077 0-54.524-12.471-98.879-27.8-98.879-4.311 0-8.634 3.686-12.5 10.66-.095.171-.311.233-.482.138s-.233-.311-.138-.482c4.056-7.318 8.469-11.027 13.121-11.027 7.693 0 14.884 10.413 20.249 29.324 5.328 18.772 8.258 43.728 8.258 70.266 0 22.435-2.072 43.608-5.988 61.231-.037.162-.181.278-.347.279" class="G"/><g style="mix-blend-mode:overlay" class="B"><g clip-path="url(#N)" transform="translate(88.479 186.918)"><path fill="#fff" d="M294.721-.001H24.951c-6.653 0-15.747 2.242-24.953 9.128 1.322 4.84 2.524 10.072 3.592 15.642a35.06 35.06 0 0 0 34.376 28.54h274.412c25.072 0 11.695-53.31-17.657-53.31"/></g></g><path d="M54.435 229.505h-6.09v5.008c-4.539 7.918-7.662 24.4-7.662 43.465s3.123 35.545 7.662 43.463v5.009h6.09c7.594 0 13.752-21.7 13.752-48.47s-6.158-48.475-13.752-48.475" class="D"/><path fill="#5ea2ee" d="M61.998 277.978c0 26.772-6.159 48.473-13.752 48.473s-13.753-21.701-13.753-48.473 6.156-48.473 13.752-48.473 13.752 21.7 13.752 48.473"/><path d="M59.682 305.276l-.065-.006c-.193-.037-.319-.222-.284-.415a147.15 147.15 0 0 0 2.313-26.877c0-26.533-6.011-48.118-13.4-48.118-4.422 0-8.708 8.347-11.189 21.784a.35.35 0 0 1-.412.284c-.093-.017-.175-.071-.228-.149s-.073-.174-.056-.266c2.583-14 7.028-22.364 11.885-22.364 7.909 0 14.108 21.449 14.108 48.828a147.78 147.78 0 0 1-2.325 27.007c-.032.168-.179.289-.35.29" class="G"/><path d="M168.232 139.735v37.122l1.313 2.694h22.381v-39.816zm16.893 35.155H175.03v-30.5h10.095z" class="E"/><path fill="#5c9fe9" d="M169.545 179.551h23.694v-39.816h-23.694zm16.9-4.661h-10.099v-30.5h10.095z"/><path d="M310.766 139.735v37.122l1.316 2.694h22.378v-39.816zm16.893 35.155h-10.095v-30.5h10.095z" class="E"/><g fill="#5c9fe9"><path d="M312.082 179.551h23.689v-39.816h-23.689zm16.889-4.661H318.88v-30.5h10.091z"/><path d="M169.547 136.671h166.228v3.061H169.547z"/></g><path d="M164.864 393.763v28.008h3.89v-35.755c-1.146 2.655-2.444 5.241-3.888 7.747" class="E"/><path fill="#5fa3f1" d="M168.752 386.019h23.56v35.755h-23.56z"/><g class="E"><path d="M159.089 421.774h39.001v3.726h-39.001zm151.114-28.011v28.008h3.888v-35.755a75.3 75.3 0 0 1-3.888 7.747"/></g><path fill="#5fa3f1" d="M314.091 386.019h23.56v35.755h-23.56z"/><path d="M304.428 421.774h39.001v3.726h-39.001z" class="E"/><path d="M47.375 267.329h-4.984v21.3h4.984c1.668 0 3.021-4.769 3.021-10.649s-1.349-10.651-3.021-10.651" class="F"/><path d="M45.417 277.978c0 5.88-1.353 10.649-3.021 10.649s-3.021-4.769-3.021-10.649 1.353-10.649 3.021-10.649 3.021 4.769 3.021 10.649" class="L"/><use class="J" xlink:href="#T"/><g class="G"><path d="M320.673 137.026H171.258c-.196 0-.355-.159-.355-.355s.159-.355.355-.355h149.415c.196 0 .355.159.355.355s-.159.355-.355.355m34.542 50.246H206.266c-.196 0-.355-.159-.355-.355s.159-.355.355-.355h148.949c.127 0 .244.068.307.177s.063.245 0 .355-.181.178-.307.177M168.751 414.56c-.196 0-.355-.159-.355-.355v-28.19c0-.196.159-.355.355-.355s.355.159.355.355v28.19c0 .196-.159.355-.355.355m145.34-2.395c-.196 0-.355-.159-.355-.355v-25.794c0-.196.159-.356.356-.356s.356.159.356.356v25.794c0 .196-.159.355-.355.355"/></g><path d="M72.53 29.474h-9.026v38.554h9.026c3.021 0 5.471-8.631 5.471-19.277s-2.45-19.277-5.471-19.277" class="F"/><path d="M68.975 48.751c0 10.646-2.45 19.277-5.468 19.277s-5.471-8.631-5.471-19.277 2.45-19.277 5.471-19.277 5.468 8.629 5.468 19.277" class="L"/><path d="M68.495 57.014h-.045c-.094-.012-.179-.061-.237-.136s-.083-.17-.07-.264c.324-2.608.483-5.233.477-7.861 0-7.9-1.393-15.063-3.464-17.825-.076-.101-.092-.235-.043-.352s.157-.198.283-.213.25.037.326.139c2.191 2.922 3.609 10.083 3.609 18.251.006 2.658-.156 5.314-.483 7.952-.023.177-.173.31-.352.31" class="K"/><path d="M63.504 34.553H49.351v28.4h14.153c2.225 0 4.03-6.358 4.03-14.2s-1.8-14.2-4.03-14.2" class="F"/><path d="M53.374 48.752c0 7.841-1.8 14.2-4.027 14.2s-4.03-6.358-4.03-14.2 1.8-14.2 4.03-14.2 4.027 6.359 4.027 14.2" class="L"/><path d="M52.182 48.751c0 5.511-1.268 9.975-2.831 9.975s-2.831-4.465-2.831-9.975 1.268-9.975 2.831-9.975 2.831 4.465 2.831 9.975" class="J"/><path d="M62.459 38.457h-7.637c-.196 0-.355-.159-.355-.355s.159-.355.355-.355h7.636c.196 0 .355.159.355.355s-.159.355-.355.355" class="K"/><path d="M75.003 75.969h-4.988v21.3h4.988c1.668 0 3.021-4.769 3.021-10.649s-1.353-10.649-3.021-10.649" class="F"/><path d="M73.039 86.618c0 5.88-1.353 10.649-3.021 10.649s-3.021-4.769-3.021-10.649 1.353-10.649 3.026-10.649 3.016 4.769 3.016 10.649" class="L"/><path d="M71.527 86.618c0 2.941-.676 5.323-1.512 5.323s-1.514-2.381-1.514-5.323.676-5.323 1.509-5.323 1.512 2.382 1.512 5.323" class="J"/><g class="F"><path d="M42.428 283.301H20.667C9.258 283.288.013 274.043 0 262.634V101.962c.01-11.411 9.256-20.66 20.667-20.674h49.385v10.653H20.667c-5.531.007-10.012 4.49-10.018 10.021v160.672a10.03 10.03 0 0 0 10.018 10.018h21.761z"/><path d="M71.564 86.618c0 2.941-.676 5.323-1.512 5.323s-1.509-2.382-1.509-5.323.676-5.323 1.509-5.323 1.512 2.382 1.512 5.323M43.94 277.978c0 2.941-.676 5.323-1.512 5.323s-1.507-2.384-1.507-5.323.676-5.323 1.509-5.323 1.512 2.382 1.512 5.323"/></g><path d="M2.975 194.267c-.196 0-.355-.159-.355-.355v-91.145c.013-10.795 8.761-19.543 19.556-19.556h17.271c.196 0 .355.159.355.355s-.159.355-.355.355H22.176A18.87 18.87 0 0 0 3.33 102.767v91.145c0 .196-.159.355-.355.355" class="K"/></g></g></svg>